<svg version="1.1" xmlns="http://www.w3.org/2000/svg" xmlns:xlink="http://www.w3.org/1999/xlink" width="853" height="83"><defs/><g><text fill="#eeeeee" stroke="none" font-family="Arial" font-size="24px" font-style="normal" font-weight="normal" text-decoration="none" x="0" y="0">UNREGISTERED</text><text fill="#eeeeee" stroke="none" font-family="Arial" font-size="24px" font-style="normal" font-weight="normal" text-decoration="none" x="0" y="30">UNREGISTERED</text><text fill="#eeeeee" stroke="none" font-family="Arial" font-size="24px" font-style="normal" font-weight="normal" text-decoration="none" x="0" y="60">UNREGISTERED</text><text fill="#eeeeee" stroke="none" font-family="Arial" font-size="24px" font-style="normal" font-weight="normal" text-decoration="none" x="200" y="0">UNREGISTERED</text><text fill="#eeeeee" stroke="none" font-family="Arial" font-size="24px" font-style="normal" font-weight="normal" text-decoration="none" x="200" y="30">UNREGISTERED</text><text fill="#eeeeee" stroke="none" font-family="Arial" font-size="24px" font-style="normal" font-weight="normal" text-decoration="none" x="200" y="60">UNREGISTERED</text><text fill="#eeeeee" stroke="none" font-family="Arial" font-size="24px" font-style="normal" font-weight="normal" text-decoration="none" x="400" y="0">UNREGISTERED</text><text fill="#eeeeee" stroke="none" font-family="Arial" font-size="24px" font-style="normal" font-weight="normal" text-decoration="none" x="400" y="30">UNREGISTERED</text><text fill="#eeeeee" stroke="none" font-family="Arial" font-size="24px" font-style="normal" font-weight="normal" text-decoration="none" x="400" y="60">UNREGISTERED</text><text fill="#eeeeee" stroke="none" font-family="Arial" font-size="24px" font-style="normal" font-weight="normal" text-decoration="none" x="600" y="0">UNREGISTERED</text><text fill="#eeeeee" stroke="none" font-family="Arial" font-size="24px" font-style="normal" font-weight="normal" text-decoration="none" x="600" y="30">UNREGISTERED</text><text fill="#eeeeee" stroke="none" font-family="Arial" font-size="24px" font-style="normal" font-weight="normal" text-decoration="none" x="600" y="60">UNREGISTERED</text><text fill="#eeeeee" stroke="none" font-family="Arial" font-size="24px" font-style="normal" font-weight="normal" text-decoration="none" x="800" y="0">UNREGISTERED</text><text fill="#eeeeee" stroke="none" font-family="Arial" font-size="24px" font-style="normal" font-weight="normal" text-decoration="none" x="800" y="30">UNREGISTERED</text><text fill="#eeeeee" stroke="none" font-family="Arial" font-size="24px" font-style="normal" font-weight="normal" text-decoration="none" x="800" y="60">UNREGISTERED</text><g transform="translate(-134,-198) scale(1,1)"><path fill="#C0C0C0" stroke="none" d="M 151 248.5 C 151 243.2532944 155.2532944 239 160.5 239 C 165.7467056 239 170 243.2532944 170 248.5 C 170 253.7467056 165.7467056 258 160.5 258 C 155.2532944 258 151 253.7467056 151 248.5 Z" opacity="0.2"/></g><g transform="translate(-134,-198) scale(1,1)"><path fill="#000000" stroke="none" d="M 144 241.5 C 144 236.2532944 148.2532944 232 153.5 232 C 158.7467056 232 163 236.2532944 163 241.5 C 163 246.7467056 158.7467056 251 153.5 251 C 148.2532944 251 144 246.7467056 144 241.5 Z"/></g><g transform="translate(-134,-198) scale(1,1)"><path fill="#C0C0C0" stroke="none" d="M 959 243.5 C 959 236.59644 964.59644 231 971.5 231 C 978.40356 231 984 236.59644 984 243.5 C 984 250.40356 978.40356 256 971.5 256 C 964.59644 256 959 250.40356 959 243.5 Z" opacity="0.2"/></g><g transform="translate(-134,-198) scale(1,1)"><path fill="none" stroke="#000000" d="M 952 236.5 C 952 229.59644 957.59644 224 964.5 224 C 971.40356 224 977 229.59644 977 236.5 C 977 243.40356 971.40356 249 964.5 249 C 957.59644 249 952 243.40356 952 236.5 Z" stroke-miterlimit="10"/></g><g transform="translate(-134,-198) scale(1,1)"><path fill="#000000" stroke="none" d="M 957 236.5 C 957 232.357864 960.357864 229 964.5 229 C 968.642136 229 972 232.357864 972 236.5 C 972 240.642136 968.642136 244 964.5 244 C 960.357864 244 957 240.642136 957 236.5 Z"/></g><g transform="translate(-134,-198) scale(1,1)"><path fill="#C0C0C0" stroke="none" d="M 441 215 L 613.498046875 215 Q 623.498046875 215 623.498046875 225 L 623.498046875 268 Q 623.498046875 278 613.498046875 278 L 441 278 Q 431 278 431 268 L 431 225 Q 431 215 441 215 Z" opacity="0.2"/></g><g transform="translate(-134,-198) scale(1,1)"><path fill="#ffffff" stroke="none" d="M 434 208 L 606.498046875 208 Q 616.498046875 208 616.498046875 218 L 616.498046875 261 Q 616.498046875 271 606.498046875 271 L 434 271 Q 424 271 424 261 L 424 218 Q 424 208 434 208 Z"/></g><g transform="translate(-134,-198) scale(1,1)"><path fill="none" stroke="#000000" d="M 434 208 L 606.498046875 208 Q 616.498046875 208 616.498046875 218 L 616.498046875 261 Q 616.498046875 271 606.498046875 271 L 434 271 Q 424 271 424 261 L 424 218 Q 424 208 434 208 Z" stroke-miterlimit="10"/></g><g transform="translate(-134,-198) scale(1,1)"><path fill="none" stroke="#000000" d="M 424 233 L 616.498046875 233" stroke-miterlimit="10"/></g><g transform="translate(-134,-198) scale(1,1)"><g><path fill="none" stroke="none"/><text fill="#000000" stroke="none" font-family="Arial" font-size="13px" font-style="normal" font-weight="bold" text-decoration="none" x="428.5" y="225.5">Seca solução por 3 segundos</text></g></g><g transform="translate(-134,-198) scale(1,1)"><g><path fill="none" stroke="none"/><text fill="#000000" stroke="none" font-family="Arial" font-size="13px" font-style="normal" font-weight="normal" text-decoration="none" x="429" y="248.5">entry/secaComposto()</text></g></g><g transform="translate(-134,-198) scale(1,1)"><g><path fill="none" stroke="none"/><text fill="#000000" stroke="none" font-family="Arial" font-size="13px" font-style="normal" font-weight="normal" text-decoration="none" x="429" y="263.5">exit/enviaComposto()</text></g></g><g transform="translate(-134,-198) scale(1,1)"><path fill="none" stroke="#000000" d="M 164 241 L 423 240" stroke-miterlimit="10"/></g><g transform="translate(-134,-198) scale(1,1)"><path fill="none" stroke="#000000" d="M 412.85365373397457 244.24872421438624 L 423 240 L 412.8211480476426 235.8297514544106" stroke-miterlimit="10"/></g><g transform="translate(-134,-198) scale(1,1)"><g><path fill="none" stroke="none"/><text fill="#000000" stroke="none" font-family="Arial" font-size="13px" font-style="normal" font-weight="normal" text-decoration="none" x="225.5" y="229.5">Recebe solução lavada</text></g></g><g transform="translate(-134,-198) scale(1,1)"><path fill="none" stroke="#000000" d="M 617 238 L 951 236" stroke-miterlimit="10"/></g><g transform="translate(-134,-198) scale(1,1)"><path fill="none" stroke="#000000" d="M 940.8627135773513 240.27029553838872 L 951 236 L 940.8123010948494 231.85141096058013" stroke-miterlimit="10"/></g><g transform="translate(-134,-198) scale(1,1)"><g><path fill="none" stroke="none"/><text fill="#000000" stroke="none" font-family="Arial" font-size="13px" font-style="normal" font-weight="normal" text-decoration="none" x="656.5" y="226.5">Composto é enviado ao tanque de biodiesel</text></g></g></g></svg>