<svg version="1.1" xmlns="http://www.w3.org/2000/svg" xmlns:xlink="http://www.w3.org/1999/xlink" width="717" height="75"><defs/><g><text fill="#eeeeee" stroke="none" font-family="Arial" font-size="24px" font-style="normal" font-weight="normal" text-decoration="none" x="0" y="0">UNREGISTERED</text><text fill="#eeeeee" stroke="none" font-family="Arial" font-size="24px" font-style="normal" font-weight="normal" text-decoration="none" x="0" y="30">UNREGISTERED</text><text fill="#eeeeee" stroke="none" font-family="Arial" font-size="24px" font-style="normal" font-weight="normal" text-decoration="none" x="0" y="60">UNREGISTERED</text><text fill="#eeeeee" stroke="none" font-family="Arial" font-size="24px" font-style="normal" font-weight="normal" text-decoration="none" x="200" y="0">UNREGISTERED</text><text fill="#eeeeee" stroke="none" font-family="Arial" font-size="24px" font-style="normal" font-weight="normal" text-decoration="none" x="200" y="30">UNREGISTERED</text><text fill="#eeeeee" stroke="none" font-family="Arial" font-size="24px" font-style="normal" font-weight="normal" text-decoration="none" x="200" y="60">UNREGISTERED</text><text fill="#eeeeee" stroke="none" font-family="Arial" font-size="24px" font-style="normal" font-weight="normal" text-decoration="none" x="400" y="0">UNREGISTERED</text><text fill="#eeeeee" stroke="none" font-family="Arial" font-size="24px" font-style="normal" font-weight="normal" text-decoration="none" x="400" y="30">UNREGISTERED</text><text fill="#eeeeee" stroke="none" font-family="Arial" font-size="24px" font-style="normal" font-weight="normal" text-decoration="none" x="400" y="60">UNREGISTERED</text><text fill="#eeeeee" stroke="none" font-family="Arial" font-size="24px" font-style="normal" font-weight="normal" text-decoration="none" x="600" y="0">UNREGISTERED</text><text fill="#eeeeee" stroke="none" font-family="Arial" font-size="24px" font-style="normal" font-weight="normal" text-decoration="none" x="600" y="30">UNREGISTERED</text><text fill="#eeeeee" stroke="none" font-family="Arial" font-size="24px" font-style="normal" font-weight="normal" text-decoration="none" x="600" y="60">UNREGISTERED</text><g transform="translate(-214,-374) scale(1,1)"><path fill="#C0C0C0" stroke="none" d="M 231 424.5 C 231 419.2532944 235.2532944 415 240.5 415 C 245.7467056 415 250 419.2532944 250 424.5 C 250 429.7467056 245.7467056 434 240.5 434 C 235.2532944 434 231 429.7467056 231 424.5 Z" opacity="0.2"/></g><g transform="translate(-214,-374) scale(1,1)"><path fill="#000000" stroke="none" d="M 224 417.5 C 224 412.2532944 228.2532944 408 233.5 408 C 238.7467056 408 243 412.2532944 243 417.5 C 243 422.7467056 238.7467056 427 233.5 427 C 228.2532944 427 224 422.7467056 224 417.5 Z"/></g><g transform="translate(-214,-374) scale(1,1)"><path fill="#C0C0C0" stroke="none" d="M 903 419.5 C 903 412.59644 908.59644 407 915.5 407 C 922.40356 407 928 412.59644 928 419.5 C 928 426.40356 922.40356 432 915.5 432 C 908.59644 432 903 426.40356 903 419.5 Z" opacity="0.2"/></g><g transform="translate(-214,-374) scale(1,1)"><path fill="none" stroke="#000000" d="M 896 412.5 C 896 405.59644 901.59644 400 908.5 400 C 915.40356 400 921 405.59644 921 412.5 C 921 419.40356 915.40356 425 908.5 425 C 901.59644 425 896 419.40356 896 412.5 Z" stroke-miterlimit="10"/></g><g transform="translate(-214,-374) scale(1,1)"><path fill="#000000" stroke="none" d="M 901 412.5 C 901 408.357864 904.357864 405 908.5 405 C 912.642136 405 916 408.357864 916 412.5 C 916 416.642136 912.642136 420 908.5 420 C 904.357864 420 901 416.642136 901 412.5 Z"/></g><g transform="translate(-214,-374) scale(1,1)"><path fill="#C0C0C0" stroke="none" d="M 489 391 L 676 391 Q 686 391 686 401 L 686 436 Q 686 446 676 446 L 489 446 Q 479 446 479 436 L 479 401 Q 479 391 489 391 Z" opacity="0.2"/></g><g transform="translate(-214,-374) scale(1,1)"><path fill="#ffffff" stroke="none" d="M 482 384 L 669 384 Q 679 384 679 394 L 679 429 Q 679 439 669 439 L 482 439 Q 472 439 472 429 L 472 394 Q 472 384 482 384 Z"/></g><g transform="translate(-214,-374) scale(1,1)"><path fill="none" stroke="#000000" d="M 482 384 L 669 384 Q 679 384 679 394 L 679 429 Q 679 439 669 439 L 482 439 Q 472 439 472 429 L 472 394 Q 472 384 482 384 Z" stroke-miterlimit="10"/></g><g transform="translate(-214,-374) scale(1,1)"><path fill="none" stroke="#000000" d="M 472 409 L 679 409" stroke-miterlimit="10"/></g><g transform="translate(-214,-374) scale(1,1)"><g><path fill="none" stroke="none"/><text fill="#000000" stroke="none" font-family="Arial" font-size="13px" font-style="normal" font-weight="bold" text-decoration="none" x="502.879638671875" y="401.5">Glicerina é armazenada</text></g></g><g transform="translate(-214,-374) scale(1,1)"><g><path fill="none" stroke="none"/><text fill="#000000" stroke="none" font-family="Arial" font-size="13px" font-style="normal" font-weight="normal" text-decoration="none" x="477" y="424.5">entry/armazenaGlicerina()</text></g></g><g transform="translate(-214,-374) scale(1,1)"><path fill="none" stroke="#000000" d="M 244 417 L 471 413" stroke-miterlimit="10"/></g><g transform="translate(-214,-374) scale(1,1)"><path fill="none" stroke="#000000" d="M 460.9130675654547 417.38791454576295 L 471 413 L 460.7647375435864 408.97018580473855" stroke-miterlimit="10"/></g><g transform="translate(-214,-374) scale(1,1)"><g><path fill="none" stroke="none"/><text fill="#000000" stroke="none" font-family="Arial" font-size="13px" font-style="normal" font-weight="normal" text-decoration="none" x="263.5" y="404.5">Recebe glicerina do Decantador</text></g></g><g transform="translate(-214,-374) scale(1,1)"><path fill="none" stroke="#000000" d="M 680 411 L 895 412" stroke-miterlimit="10"/></g><g transform="translate(-214,-374) scale(1,1)"><path fill="none" stroke="#000000" d="M 884.8178561261911 416.1622044799668 L 895 412 L 884.8570140073431 407.7432600322822" stroke-miterlimit="10"/></g><g transform="translate(-214,-374) scale(1,1)"><g><path fill="none" stroke="none"/><text fill="#000000" stroke="none" font-family="Arial" font-size="13px" font-style="normal" font-weight="normal" text-decoration="none" x="726.5" y="400.5">Tanque é preenchido</text></g></g></g></svg>