<svg version="1.1" xmlns="http://www.w3.org/2000/svg" xmlns:xlink="http://www.w3.org/1999/xlink" width="437" height="79"><defs/><g><text fill="#eeeeee" stroke="none" font-family="Arial" font-size="24px" font-style="normal" font-weight="normal" text-decoration="none" x="0" y="0">UNREGISTERED</text><text fill="#eeeeee" stroke="none" font-family="Arial" font-size="24px" font-style="normal" font-weight="normal" text-decoration="none" x="0" y="30">UNREGISTERED</text><text fill="#eeeeee" stroke="none" font-family="Arial" font-size="24px" font-style="normal" font-weight="normal" text-decoration="none" x="0" y="60">UNREGISTERED</text><text fill="#eeeeee" stroke="none" font-family="Arial" font-size="24px" font-style="normal" font-weight="normal" text-decoration="none" x="200" y="0">UNREGISTERED</text><text fill="#eeeeee" stroke="none" font-family="Arial" font-size="24px" font-style="normal" font-weight="normal" text-decoration="none" x="200" y="30">UNREGISTERED</text><text fill="#eeeeee" stroke="none" font-family="Arial" font-size="24px" font-style="normal" font-weight="normal" text-decoration="none" x="200" y="60">UNREGISTERED</text><text fill="#eeeeee" stroke="none" font-family="Arial" font-size="24px" font-style="normal" font-weight="normal" text-decoration="none" x="400" y="0">UNREGISTERED</text><text fill="#eeeeee" stroke="none" font-family="Arial" font-size="24px" font-style="normal" font-weight="normal" text-decoration="none" x="400" y="30">UNREGISTERED</text><text fill="#eeeeee" stroke="none" font-family="Arial" font-size="24px" font-style="normal" font-weight="normal" text-decoration="none" x="400" y="60">UNREGISTERED</text><g transform="translate(-334,-734) scale(1,1)"><path fill="#C0C0C0" stroke="none" d="M 351 800.5 C 351 795.2532944 355.2532944 791 360.5 791 C 365.7467056 791 370 795.2532944 370 800.5 C 370 805.7467056 365.7467056 810 360.5 810 C 355.2532944 810 351 805.7467056 351 800.5 Z" opacity="0.2"/></g><g transform="translate(-334,-734) scale(1,1)"><path fill="#000000" stroke="none" d="M 344 793.5 C 344 788.2532944 348.2532944 784 353.5 784 C 358.7467056 784 363 788.2532944 363 793.5 C 363 798.7467056 358.7467056 803 353.5 803 C 348.2532944 803 344 798.7467056 344 793.5 Z"/></g><g transform="translate(-334,-734) scale(1,1)"><path fill="#C0C0C0" stroke="none" d="M 743 763.5 C 743 756.59644 748.59644 751 755.5 751 C 762.40356 751 768 756.59644 768 763.5 C 768 770.40356 762.40356 776 755.5 776 C 748.59644 776 743 770.40356 743 763.5 Z" opacity="0.2"/></g><g transform="translate(-334,-734) scale(1,1)"><path fill="none" stroke="#000000" d="M 736 756.5 C 736 749.59644 741.59644 744 748.5 744 C 755.40356 744 761 749.59644 761 756.5 C 761 763.40356 755.40356 769 748.5 769 C 741.59644 769 736 763.40356 736 756.5 Z" stroke-miterlimit="10"/></g><g transform="translate(-334,-734) scale(1,1)"><path fill="#000000" stroke="none" d="M 741 756.5 C 741 752.357864 744.357864 749 748.5 749 C 752.642136 749 756 752.357864 756 756.5 C 756 760.642136 752.642136 764 748.5 764 C 744.357864 764 741 760.642136 741 756.5 Z"/></g><g transform="translate(-334,-734) scale(1,1)"><path fill="none" stroke="#000000" d="M 364 792 L 735 757" stroke-miterlimit="10"/></g><g transform="translate(-334,-734) scale(1,1)"><path fill="none" stroke="#000000" d="M 725.2776180486431 762.1454143848607 L 735 757 L 724.4868803893601 753.7635951964597" stroke-miterlimit="10"/></g></g></svg>