<svg version="1.1" xmlns="http://www.w3.org/2000/svg" xmlns:xlink="http://www.w3.org/1999/xlink" width="1202.88525390625" height="466"><defs/><g><text fill="#eeeeee" stroke="none" font-family="Arial" font-size="24px" font-style="normal" font-weight="normal" text-decoration="none" x="0" y="0">UNREGISTERED</text><text fill="#eeeeee" stroke="none" font-family="Arial" font-size="24px" font-style="normal" font-weight="normal" text-decoration="none" x="0" y="30">UNREGISTERED</text><text fill="#eeeeee" stroke="none" font-family="Arial" font-size="24px" font-style="normal" font-weight="normal" text-decoration="none" x="0" y="60">UNREGISTERED</text><text fill="#eeeeee" stroke="none" font-family="Arial" font-size="24px" font-style="normal" font-weight="normal" text-decoration="none" x="0" y="90">UNREGISTERED</text><text fill="#eeeeee" stroke="none" font-family="Arial" font-size="24px" font-style="normal" font-weight="normal" text-decoration="none" x="0" y="120">UNREGISTERED</text><text fill="#eeeeee" stroke="none" font-family="Arial" font-size="24px" font-style="normal" font-weight="normal" text-decoration="none" x="0" y="150">UNREGISTERED</text><text fill="#eeeeee" stroke="none" font-family="Arial" font-size="24px" font-style="normal" font-weight="normal" text-decoration="none" x="0" y="180">UNREGISTERED</text><text fill="#eeeeee" stroke="none" font-family="Arial" font-size="24px" font-style="normal" font-weight="normal" text-decoration="none" x="0" y="210">UNREGISTERED</text><text fill="#eeeeee" stroke="none" font-family="Arial" font-size="24px" font-style="normal" font-weight="normal" text-decoration="none" x="0" y="240">UNREGISTERED</text><text fill="#eeeeee" stroke="none" font-family="Arial" font-size="24px" font-style="normal" font-weight="normal" text-decoration="none" x="0" y="270">UNREGISTERED</text><text fill="#eeeeee" stroke="none" font-family="Arial" font-size="24px" font-style="normal" font-weight="normal" text-decoration="none" x="0" y="300">UNREGISTERED</text><text fill="#eeeeee" stroke="none" font-family="Arial" font-size="24px" font-style="normal" font-weight="normal" text-decoration="none" x="0" y="330">UNREGISTERED</text><text fill="#eeeeee" stroke="none" font-family="Arial" font-size="24px" font-style="normal" font-weight="normal" text-decoration="none" x="0" y="360">UNREGISTERED</text><text fill="#eeeeee" stroke="none" font-family="Arial" font-size="24px" font-style="normal" font-weight="normal" text-decoration="none" x="0" y="390">UNREGISTERED</text><text fill="#eeeeee" stroke="none" font-family="Arial" font-size="24px" font-style="normal" font-weight="normal" text-decoration="none" x="0" y="420">UNREGISTERED</text><text fill="#eeeeee" stroke="none" font-family="Arial" font-size="24px" font-style="normal" font-weight="normal" text-decoration="none" x="0" y="450">UNREGISTERED</text><text fill="#eeeeee" stroke="none" font-family="Arial" font-size="24px" font-style="normal" font-weight="normal" text-decoration="none" x="200" y="0">UNREGISTERED</text><text fill="#eeeeee" stroke="none" font-family="Arial" font-size="24px" font-style="normal" font-weight="normal" text-decoration="none" x="200" y="30">UNREGISTERED</text><text fill="#eeeeee" stroke="none" font-family="Arial" font-size="24px" font-style="normal" font-weight="normal" text-decoration="none" x="200" y="60">UNREGISTERED</text><text fill="#eeeeee" stroke="none" font-family="Arial" font-size="24px" font-style="normal" font-weight="normal" text-decoration="none" x="200" y="90">UNREGISTERED</text><text fill="#eeeeee" stroke="none" font-family="Arial" font-size="24px" font-style="normal" font-weight="normal" text-decoration="none" x="200" y="120">UNREGISTERED</text><text fill="#eeeeee" stroke="none" font-family="Arial" font-size="24px" font-style="normal" font-weight="normal" text-decoration="none" x="200" y="150">UNREGISTERED</text><text fill="#eeeeee" stroke="none" font-family="Arial" font-size="24px" font-style="normal" font-weight="normal" text-decoration="none" x="200" y="180">UNREGISTERED</text><text fill="#eeeeee" stroke="none" font-family="Arial" font-size="24px" font-style="normal" font-weight="normal" text-decoration="none" x="200" y="210">UNREGISTERED</text><text fill="#eeeeee" stroke="none" font-family="Arial" font-size="24px" font-style="normal" font-weight="normal" text-decoration="none" x="200" y="240">UNREGISTERED</text><text fill="#eeeeee" stroke="none" font-family="Arial" font-size="24px" font-style="normal" font-weight="normal" text-decoration="none" x="200" y="270">UNREGISTERED</text><text fill="#eeeeee" stroke="none" font-family="Arial" font-size="24px" font-style="normal" font-weight="normal" text-decoration="none" x="200" y="300">UNREGISTERED</text><text fill="#eeeeee" stroke="none" font-family="Arial" font-size="24px" font-style="normal" font-weight="normal" text-decoration="none" x="200" y="330">UNREGISTERED</text><text fill="#eeeeee" stroke="none" font-family="Arial" font-size="24px" font-style="normal" font-weight="normal" text-decoration="none" x="200" y="360">UNREGISTERED</text><text fill="#eeeeee" stroke="none" font-family="Arial" font-size="24px" font-style="normal" font-weight="normal" text-decoration="none" x="200" y="390">UNREGISTERED</text><text fill="#eeeeee" stroke="none" font-family="Arial" font-size="24px" font-style="normal" font-weight="normal" text-decoration="none" x="200" y="420">UNREGISTERED</text><text fill="#eeeeee" stroke="none" font-family="Arial" font-size="24px" font-style="normal" font-weight="normal" text-decoration="none" x="200" y="450">UNREGISTERED</text><text fill="#eeeeee" stroke="none" font-family="Arial" font-size="24px" font-style="normal" font-weight="normal" text-decoration="none" x="400" y="0">UNREGISTERED</text><text fill="#eeeeee" stroke="none" font-family="Arial" font-size="24px" font-style="normal" font-weight="normal" text-decoration="none" x="400" y="30">UNREGISTERED</text><text fill="#eeeeee" stroke="none" font-family="Arial" font-size="24px" font-style="normal" font-weight="normal" text-decoration="none" x="400" y="60">UNREGISTERED</text><text fill="#eeeeee" stroke="none" font-family="Arial" font-size="24px" font-style="normal" font-weight="normal" text-decoration="none" x="400" y="90">UNREGISTERED</text><text fill="#eeeeee" stroke="none" font-family="Arial" font-size="24px" font-style="normal" font-weight="normal" text-decoration="none" x="400" y="120">UNREGISTERED</text><text fill="#eeeeee" stroke="none" font-family="Arial" font-size="24px" font-style="normal" font-weight="normal" text-decoration="none" x="400" y="150">UNREGISTERED</text><text fill="#eeeeee" stroke="none" font-family="Arial" font-size="24px" font-style="normal" font-weight="normal" text-decoration="none" x="400" y="180">UNREGISTERED</text><text fill="#eeeeee" stroke="none" font-family="Arial" font-size="24px" font-style="normal" font-weight="normal" text-decoration="none" x="400" y="210">UNREGISTERED</text><text fill="#eeeeee" stroke="none" font-family="Arial" font-size="24px" font-style="normal" font-weight="normal" text-decoration="none" x="400" y="240">UNREGISTERED</text><text fill="#eeeeee" stroke="none" font-family="Arial" font-size="24px" font-style="normal" font-weight="normal" text-decoration="none" x="400" y="270">UNREGISTERED</text><text fill="#eeeeee" stroke="none" font-family="Arial" font-size="24px" font-style="normal" font-weight="normal" text-decoration="none" x="400" y="300">UNREGISTERED</text><text fill="#eeeeee" stroke="none" font-family="Arial" font-size="24px" font-style="normal" font-weight="normal" text-decoration="none" x="400" y="330">UNREGISTERED</text><text fill="#eeeeee" stroke="none" font-family="Arial" font-size="24px" font-style="normal" font-weight="normal" text-decoration="none" x="400" y="360">UNREGISTERED</text><text fill="#eeeeee" stroke="none" font-family="Arial" font-size="24px" font-style="normal" font-weight="normal" text-decoration="none" x="400" y="390">UNREGISTERED</text><text fill="#eeeeee" stroke="none" font-family="Arial" font-size="24px" font-style="normal" font-weight="normal" text-decoration="none" x="400" y="420">UNREGISTERED</text><text fill="#eeeeee" stroke="none" font-family="Arial" font-size="24px" font-style="normal" font-weight="normal" text-decoration="none" x="400" y="450">UNREGISTERED</text><text fill="#eeeeee" stroke="none" font-family="Arial" font-size="24px" font-style="normal" font-weight="normal" text-decoration="none" x="600" y="0">UNREGISTERED</text><text fill="#eeeeee" stroke="none" font-family="Arial" font-size="24px" font-style="normal" font-weight="normal" text-decoration="none" x="600" y="30">UNREGISTERED</text><text fill="#eeeeee" stroke="none" font-family="Arial" font-size="24px" font-style="normal" font-weight="normal" text-decoration="none" x="600" y="60">UNREGISTERED</text><text fill="#eeeeee" stroke="none" font-family="Arial" font-size="24px" font-style="normal" font-weight="normal" text-decoration="none" x="600" y="90">UNREGISTERED</text><text fill="#eeeeee" stroke="none" font-family="Arial" font-size="24px" font-style="normal" font-weight="normal" text-decoration="none" x="600" y="120">UNREGISTERED</text><text fill="#eeeeee" stroke="none" font-family="Arial" font-size="24px" font-style="normal" font-weight="normal" text-decoration="none" x="600" y="150">UNREGISTERED</text><text fill="#eeeeee" stroke="none" font-family="Arial" font-size="24px" font-style="normal" font-weight="normal" text-decoration="none" x="600" y="180">UNREGISTERED</text><text fill="#eeeeee" stroke="none" font-family="Arial" font-size="24px" font-style="normal" font-weight="normal" text-decoration="none" x="600" y="210">UNREGISTERED</text><text fill="#eeeeee" stroke="none" font-family="Arial" font-size="24px" font-style="normal" font-weight="normal" text-decoration="none" x="600" y="240">UNREGISTERED</text><text fill="#eeeeee" stroke="none" font-family="Arial" font-size="24px" font-style="normal" font-weight="normal" text-decoration="none" x="600" y="270">UNREGISTERED</text><text fill="#eeeeee" stroke="none" font-family="Arial" font-size="24px" font-style="normal" font-weight="normal" text-decoration="none" x="600" y="300">UNREGISTERED</text><text fill="#eeeeee" stroke="none" font-family="Arial" font-size="24px" font-style="normal" font-weight="normal" text-decoration="none" x="600" y="330">UNREGISTERED</text><text fill="#eeeeee" stroke="none" font-family="Arial" font-size="24px" font-style="normal" font-weight="normal" text-decoration="none" x="600" y="360">UNREGISTERED</text><text fill="#eeeeee" stroke="none" font-family="Arial" font-size="24px" font-style="normal" font-weight="normal" text-decoration="none" x="600" y="390">UNREGISTERED</text><text fill="#eeeeee" stroke="none" font-family="Arial" font-size="24px" font-style="normal" font-weight="normal" text-decoration="none" x="600" y="420">UNREGISTERED</text><text fill="#eeeeee" stroke="none" font-family="Arial" font-size="24px" font-style="normal" font-weight="normal" text-decoration="none" x="600" y="450">UNREGISTERED</text><text fill="#eeeeee" stroke="none" font-family="Arial" font-size="24px" font-style="normal" font-weight="normal" text-decoration="none" x="800" y="0">UNREGISTERED</text><text fill="#eeeeee" stroke="none" font-family="Arial" font-size="24px" font-style="normal" font-weight="normal" text-decoration="none" x="800" y="30">UNREGISTERED</text><text fill="#eeeeee" stroke="none" font-family="Arial" font-size="24px" font-style="normal" font-weight="normal" text-decoration="none" x="800" y="60">UNREGISTERED</text><text fill="#eeeeee" stroke="none" font-family="Arial" font-size="24px" font-style="normal" font-weight="normal" text-decoration="none" x="800" y="90">UNREGISTERED</text><text fill="#eeeeee" stroke="none" font-family="Arial" font-size="24px" font-style="normal" font-weight="normal" text-decoration="none" x="800" y="120">UNREGISTERED</text><text fill="#eeeeee" stroke="none" font-family="Arial" font-size="24px" font-style="normal" font-weight="normal" text-decoration="none" x="800" y="150">UNREGISTERED</text><text fill="#eeeeee" stroke="none" font-family="Arial" font-size="24px" font-style="normal" font-weight="normal" text-decoration="none" x="800" y="180">UNREGISTERED</text><text fill="#eeeeee" stroke="none" font-family="Arial" font-size="24px" font-style="normal" font-weight="normal" text-decoration="none" x="800" y="210">UNREGISTERED</text><text fill="#eeeeee" stroke="none" font-family="Arial" font-size="24px" font-style="normal" font-weight="normal" text-decoration="none" x="800" y="240">UNREGISTERED</text><text fill="#eeeeee" stroke="none" font-family="Arial" font-size="24px" font-style="normal" font-weight="normal" text-decoration="none" x="800" y="270">UNREGISTERED</text><text fill="#eeeeee" stroke="none" font-family="Arial" font-size="24px" font-style="normal" font-weight="normal" text-decoration="none" x="800" y="300">UNREGISTERED</text><text fill="#eeeeee" stroke="none" font-family="Arial" font-size="24px" font-style="normal" font-weight="normal" text-decoration="none" x="800" y="330">UNREGISTERED</text><text fill="#eeeeee" stroke="none" font-family="Arial" font-size="24px" font-style="normal" font-weight="normal" text-decoration="none" x="800" y="360">UNREGISTERED</text><text fill="#eeeeee" stroke="none" font-family="Arial" font-size="24px" font-style="normal" font-weight="normal" text-decoration="none" x="800" y="390">UNREGISTERED</text><text fill="#eeeeee" stroke="none" font-family="Arial" font-size="24px" font-style="normal" font-weight="normal" text-decoration="none" x="800" y="420">UNREGISTERED</text><text fill="#eeeeee" stroke="none" font-family="Arial" font-size="24px" font-style="normal" font-weight="normal" text-decoration="none" x="800" y="450">UNREGISTERED</text><text fill="#eeeeee" stroke="none" font-family="Arial" font-size="24px" font-style="normal" font-weight="normal" text-decoration="none" x="1000" y="0">UNREGISTERED</text><text fill="#eeeeee" stroke="none" font-family="Arial" font-size="24px" font-style="normal" font-weight="normal" text-decoration="none" x="1000" y="30">UNREGISTERED</text><text fill="#eeeeee" stroke="none" font-family="Arial" font-size="24px" font-style="normal" font-weight="normal" text-decoration="none" x="1000" y="60">UNREGISTERED</text><text fill="#eeeeee" stroke="none" font-family="Arial" font-size="24px" font-style="normal" font-weight="normal" text-decoration="none" x="1000" y="90">UNREGISTERED</text><text fill="#eeeeee" stroke="none" font-family="Arial" font-size="24px" font-style="normal" font-weight="normal" text-decoration="none" x="1000" y="120">UNREGISTERED</text><text fill="#eeeeee" stroke="none" font-family="Arial" font-size="24px" font-style="normal" font-weight="normal" text-decoration="none" x="1000" y="150">UNREGISTERED</text><text fill="#eeeeee" stroke="none" font-family="Arial" font-size="24px" font-style="normal" font-weight="normal" text-decoration="none" x="1000" y="180">UNREGISTERED</text><text fill="#eeeeee" stroke="none" font-family="Arial" font-size="24px" font-style="normal" font-weight="normal" text-decoration="none" x="1000" y="210">UNREGISTERED</text><text fill="#eeeeee" stroke="none" font-family="Arial" font-size="24px" font-style="normal" font-weight="normal" text-decoration="none" x="1000" y="240">UNREGISTERED</text><text fill="#eeeeee" stroke="none" font-family="Arial" font-size="24px" font-style="normal" font-weight="normal" text-decoration="none" x="1000" y="270">UNREGISTERED</text><text fill="#eeeeee" stroke="none" font-family="Arial" font-size="24px" font-style="normal" font-weight="normal" text-decoration="none" x="1000" y="300">UNREGISTERED</text><text fill="#eeeeee" stroke="none" font-family="Arial" font-size="24px" font-style="normal" font-weight="normal" text-decoration="none" x="1000" y="330">UNREGISTERED</text><text fill="#eeeeee" stroke="none" font-family="Arial" font-size="24px" font-style="normal" font-weight="normal" text-decoration="none" x="1000" y="360">UNREGISTERED</text><text fill="#eeeeee" stroke="none" font-family="Arial" font-size="24px" font-style="normal" font-weight="normal" text-decoration="none" x="1000" y="390">UNREGISTERED</text><text fill="#eeeeee" stroke="none" font-family="Arial" font-size="24px" font-style="normal" font-weight="normal" text-decoration="none" x="1000" y="420">UNREGISTERED</text><text fill="#eeeeee" stroke="none" font-family="Arial" font-size="24px" font-style="normal" font-weight="normal" text-decoration="none" x="1000" y="450">UNREGISTERED</text><text fill="#eeeeee" stroke="none" font-family="Arial" font-size="24px" font-style="normal" font-weight="normal" text-decoration="none" x="1200" y="0">UNREGISTERED</text><text fill="#eeeeee" stroke="none" font-family="Arial" font-size="24px" font-style="normal" font-weight="normal" text-decoration="none" x="1200" y="30">UNREGISTERED</text><text fill="#eeeeee" stroke="none" font-family="Arial" font-size="24px" font-style="normal" font-weight="normal" text-decoration="none" x="1200" y="60">UNREGISTERED</text><text fill="#eeeeee" stroke="none" font-family="Arial" font-size="24px" font-style="normal" font-weight="normal" text-decoration="none" x="1200" y="90">UNREGISTERED</text><text fill="#eeeeee" stroke="none" font-family="Arial" font-size="24px" font-style="normal" font-weight="normal" text-decoration="none" x="1200" y="120">UNREGISTERED</text><text fill="#eeeeee" stroke="none" font-family="Arial" font-size="24px" font-style="normal" font-weight="normal" text-decoration="none" x="1200" y="150">UNREGISTERED</text><text fill="#eeeeee" stroke="none" font-family="Arial" font-size="24px" font-style="normal" font-weight="normal" text-decoration="none" x="1200" y="180">UNREGISTERED</text><text fill="#eeeeee" stroke="none" font-family="Arial" font-size="24px" font-style="normal" font-weight="normal" text-decoration="none" x="1200" y="210">UNREGISTERED</text><text fill="#eeeeee" stroke="none" font-family="Arial" font-size="24px" font-style="normal" font-weight="normal" text-decoration="none" x="1200" y="240">UNREGISTERED</text><text fill="#eeeeee" stroke="none" font-family="Arial" font-size="24px" font-style="normal" font-weight="normal" text-decoration="none" x="1200" y="270">UNREGISTERED</text><text fill="#eeeeee" stroke="none" font-family="Arial" font-size="24px" font-style="normal" font-weight="normal" text-decoration="none" x="1200" y="300">UNREGISTERED</text><text fill="#eeeeee" stroke="none" font-family="Arial" font-size="24px" font-style="normal" font-weight="normal" text-decoration="none" x="1200" y="330">UNREGISTERED</text><text fill="#eeeeee" stroke="none" font-family="Arial" font-size="24px" font-style="normal" font-weight="normal" text-decoration="none" x="1200" y="360">UNREGISTERED</text><text fill="#eeeeee" stroke="none" font-family="Arial" font-size="24px" font-style="normal" font-weight="normal" text-decoration="none" x="1200" y="390">UNREGISTERED</text><text fill="#eeeeee" stroke="none" font-family="Arial" font-size="24px" font-style="normal" font-weight="normal" text-decoration="none" x="1200" y="420">UNREGISTERED</text><text fill="#eeeeee" stroke="none" font-family="Arial" font-size="24px" font-style="normal" font-weight="normal" text-decoration="none" x="1200" y="450">UNREGISTERED</text><g transform="translate(-174,-78) scale(1,1)"><rect fill="#C0C0C0" stroke="none" x="191" y="287" width="168" height="70" opacity="0.2"/></g><g transform="translate(-174,-78) scale(1,1)"><rect fill="#ffffff" stroke="none" x="184" y="280" width="168" height="70"/></g><g transform="translate(-174,-78) scale(1,1)"><path fill="none" stroke="#000000" d="M 184 280 L 352 280 L 352 350 L 184 350 L 184 280 Z Z" stroke-miterlimit="10"/></g><g transform="translate(-174,-78) scale(1,1)"><path fill="none" stroke="#000000" d="M 184 305 L 352 305" stroke-miterlimit="10"/></g><g transform="translate(-174,-78) scale(1,1)"><path fill="none" stroke="#000000" d="M 184 328 L 352 328" stroke-miterlimit="10"/></g><g transform="translate(-174,-78) scale(1,1)"><g><path fill="none" stroke="none"/><text fill="#000000" stroke="none" font-family="Arial" font-size="13px" font-style="normal" font-weight="bold" text-decoration="none" x="220.8115234375" y="297.5">Tanque de óleo</text></g></g><g transform="translate(-174,-78) scale(1,1)"><g><path fill="none" stroke="none"/><text fill="#000000" stroke="none" font-family="Arial" font-size="13px" font-style="normal" font-weight="normal" text-decoration="none" x="189" y="320.5">+capacidade: float</text></g></g><g transform="translate(-174,-78) scale(1,1)"><g><path fill="none" stroke="none"/><text fill="#000000" stroke="none" font-family="Arial" font-size="13px" font-style="normal" font-weight="normal" text-decoration="none" x="189" y="343.5">+enviaOleo(): float</text></g></g><g transform="translate(-174,-78) scale(1,1)"><rect fill="#C0C0C0" stroke="none" x="207" y="95" width="136" height="85" opacity="0.2"/></g><g transform="translate(-174,-78) scale(1,1)"><rect fill="#ffffff" stroke="none" x="200" y="88" width="136" height="85"/></g><g transform="translate(-174,-78) scale(1,1)"><path fill="none" stroke="#000000" d="M 200 88 L 336 88 L 336 173 L 200 173 L 200 88 Z Z" stroke-miterlimit="10"/></g><g transform="translate(-174,-78) scale(1,1)"><path fill="none" stroke="#000000" d="M 200 113 L 336 113" stroke-miterlimit="10"/></g><g transform="translate(-174,-78) scale(1,1)"><path fill="none" stroke="#000000" d="M 200 136 L 336 136" stroke-miterlimit="10"/></g><g transform="translate(-174,-78) scale(1,1)"><g><path fill="none" stroke="none"/><text fill="#000000" stroke="none" font-family="Arial" font-size="13px" font-style="normal" font-weight="bold" text-decoration="none" x="251.753173828125" y="105.5">Filtro</text></g></g><g transform="translate(-174,-78) scale(1,1)"><g><path fill="none" stroke="none"/><text fill="#000000" stroke="none" font-family="Arial" font-size="13px" font-style="normal" font-weight="normal" text-decoration="none" x="205" y="128.5">+quantidade: float</text></g></g><g transform="translate(-174,-78) scale(1,1)"><g><path fill="none" stroke="none"/><text fill="#000000" stroke="none" font-family="Arial" font-size="13px" font-style="normal" font-weight="normal" text-decoration="none" x="205" y="151.5">+filtraOleo(): void</text></g></g><g transform="translate(-174,-78) scale(1,1)"><g><path fill="none" stroke="none"/><text fill="#000000" stroke="none" font-family="Arial" font-size="13px" font-style="normal" font-weight="normal" text-decoration="none" x="205" y="166.5">+enviaOleo(): float</text></g></g><g transform="translate(-174,-78) scale(1,1)"><path fill="none" stroke="#000000" d="M 268 174 L 268 279" stroke-miterlimit="10"/></g><g transform="translate(-174,-78) scale(1,1)"><g><path fill="none" stroke="none"/><text fill="#000000" stroke="none" font-family="Arial" font-size="13px" font-style="normal" font-weight="normal" text-decoration="none" x="279.5" y="229.5">+recebe</text></g></g><g transform="translate(-174,-78) scale(1,1)"><rect fill="#C0C0C0" stroke="none" x="447" y="263" width="168" height="115" opacity="0.2"/></g><g transform="translate(-174,-78) scale(1,1)"><rect fill="#ffffff" stroke="none" x="440" y="256" width="168" height="115"/></g><g transform="translate(-174,-78) scale(1,1)"><path fill="none" stroke="#000000" d="M 440 256 L 608 256 L 608 371 L 440 371 L 440 256 Z Z" stroke-miterlimit="10"/></g><g transform="translate(-174,-78) scale(1,1)"><path fill="none" stroke="#000000" d="M 440 281 L 608 281" stroke-miterlimit="10"/></g><g transform="translate(-174,-78) scale(1,1)"><path fill="none" stroke="#000000" d="M 440 304 L 608 304" stroke-miterlimit="10"/></g><g transform="translate(-174,-78) scale(1,1)"><g><path fill="none" stroke="none"/><text fill="#000000" stroke="none" font-family="Arial" font-size="13px" font-style="normal" font-weight="bold" text-decoration="none" x="503.411376953125" y="273.5">Reator</text></g></g><g transform="translate(-174,-78) scale(1,1)"><g><path fill="none" stroke="none"/><text fill="#000000" stroke="none" font-family="Arial" font-size="13px" font-style="normal" font-weight="normal" text-decoration="none" x="445" y="296.5">+quantidade: float</text></g></g><g transform="translate(-174,-78) scale(1,1)"><g><path fill="none" stroke="none"/><text fill="#000000" stroke="none" font-family="Arial" font-size="13px" font-style="normal" font-weight="normal" text-decoration="none" x="445" y="319.5">+recebeNaOH(): void</text></g></g><g transform="translate(-174,-78) scale(1,1)"><g><path fill="none" stroke="none"/><text fill="#000000" stroke="none" font-family="Arial" font-size="13px" font-style="normal" font-weight="normal" text-decoration="none" x="445" y="334.5">+recebeEtOH(): void</text></g></g><g transform="translate(-174,-78) scale(1,1)"><g><path fill="none" stroke="none"/><text fill="#000000" stroke="none" font-family="Arial" font-size="13px" font-style="normal" font-weight="normal" text-decoration="none" x="445" y="349.5">+recebeOleo(): void</text></g></g><g transform="translate(-174,-78) scale(1,1)"><g><path fill="none" stroke="none"/><text fill="#000000" stroke="none" font-family="Arial" font-size="13px" font-style="normal" font-weight="normal" text-decoration="none" x="445" y="364.5">+acionarReator(): float</text></g></g><g transform="translate(-174,-78) scale(1,1)"><rect fill="#C0C0C0" stroke="none" x="447" y="95" width="171.27783203125" height="100" opacity="0.2"/></g><g transform="translate(-174,-78) scale(1,1)"><rect fill="#ffffff" stroke="none" x="440" y="88" width="171.27783203125" height="100"/></g><g transform="translate(-174,-78) scale(1,1)"><path fill="none" stroke="#000000" d="M 440 88 L 611.27783203125 88 L 611.27783203125 188 L 440 188 L 440 88 Z Z" stroke-miterlimit="10"/></g><g transform="translate(-174,-78) scale(1,1)"><path fill="none" stroke="#000000" d="M 440 113 L 611.27783203125 113" stroke-miterlimit="10"/></g><g transform="translate(-174,-78) scale(1,1)"><path fill="none" stroke="#000000" d="M 440 151 L 611.27783203125 151" stroke-miterlimit="10"/></g><g transform="translate(-174,-78) scale(1,1)"><g><path fill="none" stroke="none"/><text fill="#000000" stroke="none" font-family="Arial" font-size="13px" font-style="normal" font-weight="bold" text-decoration="none" x="453.88818359375" y="105.5">Tanque de NaOH_EtOH</text></g></g><g transform="translate(-174,-78) scale(1,1)"><g><path fill="none" stroke="none"/><text fill="#000000" stroke="none" font-family="Arial" font-size="13px" font-style="normal" font-weight="normal" text-decoration="none" x="445" y="128.5">+fluxoNaOH: float</text></g></g><g transform="translate(-174,-78) scale(1,1)"><g><path fill="none" stroke="none"/><text fill="#000000" stroke="none" font-family="Arial" font-size="13px" font-style="normal" font-weight="normal" text-decoration="none" x="445" y="143.5">+fluxoEtOH: float</text></g></g><g transform="translate(-174,-78) scale(1,1)"><g><path fill="none" stroke="none"/><text fill="#000000" stroke="none" font-family="Arial" font-size="13px" font-style="normal" font-weight="normal" text-decoration="none" x="445" y="166.5">+adicionaComposto(): float</text></g></g><g transform="translate(-174,-78) scale(1,1)"><path fill="none" stroke="#000000" d="M 525 189 L 524 255" stroke-miterlimit="10"/></g><g transform="translate(-174,-78) scale(1,1)"><g><path fill="none" stroke="none"/><text fill="#000000" stroke="none" font-family="Arial" font-size="13px" font-style="normal" font-weight="normal" text-decoration="none" x="526.5" y="222.5">+adiciona</text></g></g><g transform="translate(-174,-78) scale(1,1)"><path fill="none" stroke="#000000" d="M 353 314 L 439 314" stroke-miterlimit="10"/></g><g transform="translate(-174,-78) scale(1,1)"><g><path fill="none" stroke="none"/><text fill="#000000" stroke="none" font-family="Arial" font-size="13px" font-style="normal" font-weight="normal" text-decoration="none" x="376.5" y="303.5">+envia</text></g></g><g transform="translate(-174,-78) scale(1,1)"><rect fill="#C0C0C0" stroke="none" x="727" y="279" width="152" height="88" opacity="0.2"/></g><g transform="translate(-174,-78) scale(1,1)"><rect fill="#ffffff" stroke="none" x="720" y="272" width="152" height="88"/></g><g transform="translate(-174,-78) scale(1,1)"><path fill="none" stroke="#000000" d="M 720 272 L 872 272 L 872 360 L 720 360 L 720 272 Z Z" stroke-miterlimit="10"/></g><g transform="translate(-174,-78) scale(1,1)"><path fill="none" stroke="#000000" d="M 720 297 L 872 297" stroke-miterlimit="10"/></g><g transform="translate(-174,-78) scale(1,1)"><path fill="none" stroke="#000000" d="M 720 320 L 872 320" stroke-miterlimit="10"/></g><g transform="translate(-174,-78) scale(1,1)"><g><path fill="none" stroke="none"/><text fill="#000000" stroke="none" font-family="Arial" font-size="13px" font-style="normal" font-weight="bold" text-decoration="none" x="760.240478515625" y="289.5">Decantador</text></g></g><g transform="translate(-174,-78) scale(1,1)"><g><path fill="none" stroke="none"/><text fill="#000000" stroke="none" font-family="Arial" font-size="13px" font-style="normal" font-weight="normal" text-decoration="none" x="725" y="312.5">+capacidade: float</text></g></g><g transform="translate(-174,-78) scale(1,1)"><g><path fill="none" stroke="none"/><text fill="#000000" stroke="none" font-family="Arial" font-size="13px" font-style="normal" font-weight="normal" text-decoration="none" x="725" y="335.5">+repousa(): void</text></g></g><g transform="translate(-174,-78) scale(1,1)"><g><path fill="none" stroke="none"/><text fill="#000000" stroke="none" font-family="Arial" font-size="13px" font-style="normal" font-weight="normal" text-decoration="none" x="725" y="350.5">+litrosLancados(): float</text></g></g><g transform="translate(-174,-78) scale(1,1)"><path fill="none" stroke="#000000" d="M 609 314 L 719 315" stroke-miterlimit="10"/></g><g transform="translate(-174,-78) scale(1,1)"><g><path fill="none" stroke="none"/><text fill="#000000" stroke="none" font-family="Arial" font-size="13px" font-style="normal" font-weight="normal" text-decoration="none" x="638.5" y="301.5">+lança</text></g></g><g transform="translate(-174,-78) scale(1,1)"><rect fill="#C0C0C0" stroke="none" x="751" y="103" width="164.720703125" height="85" opacity="0.2"/></g><g transform="translate(-174,-78) scale(1,1)"><rect fill="#ffffff" stroke="none" x="744" y="96" width="164.720703125" height="85"/></g><g transform="translate(-174,-78) scale(1,1)"><path fill="none" stroke="#000000" d="M 744 96 L 908.720703125 96 L 908.720703125 181 L 744 181 L 744 96 Z Z" stroke-miterlimit="10"/></g><g transform="translate(-174,-78) scale(1,1)"><path fill="none" stroke="#000000" d="M 744 121 L 908.720703125 121" stroke-miterlimit="10"/></g><g transform="translate(-174,-78) scale(1,1)"><path fill="none" stroke="#000000" d="M 744 144 L 908.720703125 144" stroke-miterlimit="10"/></g><g transform="translate(-174,-78) scale(1,1)"><g><path fill="none" stroke="none"/><text fill="#000000" stroke="none" font-family="Arial" font-size="13px" font-style="normal" font-weight="bold" text-decoration="none" x="776.28369140625" y="113.5">Tanque de EtOH</text></g></g><g transform="translate(-174,-78) scale(1,1)"><g><path fill="none" stroke="none"/><text fill="#000000" stroke="none" font-family="Arial" font-size="13px" font-style="normal" font-weight="normal" text-decoration="none" x="749" y="136.5">+capacidade: float</text></g></g><g transform="translate(-174,-78) scale(1,1)"><g><path fill="none" stroke="none"/><text fill="#000000" stroke="none" font-family="Arial" font-size="13px" font-style="normal" font-weight="normal" text-decoration="none" x="749" y="159.5">+depositaComposto(): void</text></g></g><g transform="translate(-174,-78) scale(1,1)"><g><path fill="none" stroke="none"/><text fill="#000000" stroke="none" font-family="Arial" font-size="13px" font-style="normal" font-weight="normal" text-decoration="none" x="749" y="174.5">+enviaComposto(): float</text></g></g><g transform="translate(-174,-78) scale(1,1)"><rect fill="#C0C0C0" stroke="none" x="727" y="463" width="165.42529296875" height="70" opacity="0.2"/></g><g transform="translate(-174,-78) scale(1,1)"><rect fill="#ffffff" stroke="none" x="720" y="456" width="165.42529296875" height="70"/></g><g transform="translate(-174,-78) scale(1,1)"><path fill="none" stroke="#000000" d="M 720 456 L 885.42529296875 456 L 885.42529296875 526 L 720 526 L 720 456 Z Z" stroke-miterlimit="10"/></g><g transform="translate(-174,-78) scale(1,1)"><path fill="none" stroke="#000000" d="M 720 481 L 885.42529296875 481" stroke-miterlimit="10"/></g><g transform="translate(-174,-78) scale(1,1)"><path fill="none" stroke="#000000" d="M 720 504 L 885.42529296875 504" stroke-miterlimit="10"/></g><g transform="translate(-174,-78) scale(1,1)"><g><path fill="none" stroke="none"/><text fill="#000000" stroke="none" font-family="Arial" font-size="13px" font-style="normal" font-weight="bold" text-decoration="none" x="741.0673828125" y="473.5">Tanque de Glicerina</text></g></g><g transform="translate(-174,-78) scale(1,1)"><g><path fill="none" stroke="none"/><text fill="#000000" stroke="none" font-family="Arial" font-size="13px" font-style="normal" font-weight="normal" text-decoration="none" x="725" y="496.5">+capacidade: float</text></g></g><g transform="translate(-174,-78) scale(1,1)"><g><path fill="none" stroke="none"/><text fill="#000000" stroke="none" font-family="Arial" font-size="13px" font-style="normal" font-weight="normal" text-decoration="none" x="725" y="519.5">+armazenaGlicerina(): void</text></g></g><g transform="translate(-174,-78) scale(1,1)"><path fill="none" stroke="#000000" d="M 873 317 L 1207 321" stroke-miterlimit="10"/></g><g transform="translate(-174,-78) scale(1,1)"><g><path fill="none" stroke="none"/><text fill="#000000" stroke="none" font-family="Arial" font-size="13px" font-style="normal" font-weight="normal" text-decoration="none" x="1021.5" y="310.5">+envia</text></g></g><g transform="translate(-174,-78) scale(1,1)"><path fill="none" stroke="#000000" d="M 1207 290 L 910 171" stroke-miterlimit="10"/></g><g transform="translate(-174,-78) scale(1,1)"><g><path fill="none" stroke="none"/><text fill="#000000" stroke="none" font-family="Arial" font-size="13px" font-style="normal" font-weight="normal" text-decoration="none" x="1041.5" y="200.5">+recebe</text></g></g><g transform="translate(-174,-78) scale(1,1)"><path fill="none" stroke="#000000" d="M 798 361 L 801 455" stroke-miterlimit="10"/></g><g transform="translate(-174,-78) scale(1,1)"><g><path fill="none" stroke="none"/><text fill="#000000" stroke="none" font-family="Arial" font-size="13px" font-style="normal" font-weight="normal" text-decoration="none" x="802.5" y="409.5">+deposita</text></g></g><g transform="translate(-174,-78) scale(1,1)"><path fill="none" stroke="#000000" d="M 743 138 L 612 138" stroke-miterlimit="10"/></g><g transform="translate(-174,-78) scale(1,1)"><g><path fill="none" stroke="none"/><text fill="#000000" stroke="none" font-family="Arial" font-size="13px" font-style="normal" font-weight="normal" text-decoration="none" x="644.5" y="164.5">+deposita</text></g></g><g transform="translate(-174,-78) scale(1,1)"><rect fill="#C0C0C0" stroke="none" x="991" y="383" width="140.244140625" height="115" opacity="0.2"/></g><g transform="translate(-174,-78) scale(1,1)"><rect fill="#ffffff" stroke="none" x="984" y="376" width="140.244140625" height="115"/></g><g transform="translate(-174,-78) scale(1,1)"><path fill="none" stroke="#000000" d="M 984 376 L 1124.244140625 376 L 1124.244140625 491 L 984 491 L 984 376 Z Z" stroke-miterlimit="10"/></g><g transform="translate(-174,-78) scale(1,1)"><path fill="none" stroke="#000000" d="M 984 401 L 1124.244140625 401" stroke-miterlimit="10"/></g><g transform="translate(-174,-78) scale(1,1)"><path fill="none" stroke="#000000" d="M 984 424 L 1124.244140625 424" stroke-miterlimit="10"/></g><g transform="translate(-174,-78) scale(1,1)"><g><path fill="none" stroke="none"/><text fill="#000000" stroke="none" font-family="Arial" font-size="13px" font-style="normal" font-weight="bold" text-decoration="none" x="988.5" y="393.5">Tanques de Lavagem</text></g></g><g transform="translate(-174,-78) scale(1,1)"><g><path fill="none" stroke="none"/><text fill="#000000" stroke="none" font-family="Arial" font-size="13px" font-style="normal" font-weight="normal" text-decoration="none" x="989" y="416.5">+capacidade: float</text></g></g><g transform="translate(-174,-78) scale(1,1)"><g><path fill="none" stroke="none"/><text fill="#000000" stroke="none" font-family="Arial" font-size="13px" font-style="normal" font-weight="normal" text-decoration="none" x="989" y="439.5">+recebeMistura(): void</text></g></g><g transform="translate(-174,-78) scale(1,1)"><g><path fill="none" stroke="none"/><text fill="#000000" stroke="none" font-family="Arial" font-size="13px" font-style="normal" font-weight="normal" text-decoration="none" x="989" y="454.5">+recebeAgua(): void</text></g></g><g transform="translate(-174,-78) scale(1,1)"><g><path fill="none" stroke="none"/><text fill="#000000" stroke="none" font-family="Arial" font-size="13px" font-style="normal" font-weight="normal" text-decoration="none" x="989" y="469.5">+emulsao(): void</text></g></g><g transform="translate(-174,-78) scale(1,1)"><g><path fill="none" stroke="none"/><text fill="#000000" stroke="none" font-family="Arial" font-size="13px" font-style="normal" font-weight="normal" text-decoration="none" x="989" y="484.5">+lavaMistura(): float</text></g></g><g transform="translate(-174,-78) scale(1,1)"><path fill="none" stroke="#000000" d="M 873 351 L 983 401" stroke-miterlimit="10"/></g><g transform="translate(-174,-78) scale(1,1)"><g><path fill="none" stroke="none"/><text fill="#000000" stroke="none" font-family="Arial" font-size="13px" font-style="normal" font-weight="normal" text-decoration="none" x="914.5" y="366.5">+envia</text></g></g><g transform="translate(-174,-78) scale(1,1)"><rect fill="#C0C0C0" stroke="none" x="1215" y="279" width="156.04345703125" height="100" opacity="0.2"/></g><g transform="translate(-174,-78) scale(1,1)"><rect fill="#ffffff" stroke="none" x="1208" y="272" width="156.04345703125" height="100"/></g><g transform="translate(-174,-78) scale(1,1)"><path fill="none" stroke="#000000" d="M 1208 272 L 1364.04345703125 272 L 1364.04345703125 372 L 1208 372 L 1208 272 Z Z" stroke-miterlimit="10"/></g><g transform="translate(-174,-78) scale(1,1)"><path fill="none" stroke="#000000" d="M 1208 297 L 1364.04345703125 297" stroke-miterlimit="10"/></g><g transform="translate(-174,-78) scale(1,1)"><path fill="none" stroke="#000000" d="M 1208 335 L 1364.04345703125 335" stroke-miterlimit="10"/></g><g transform="translate(-174,-78) scale(1,1)"><g><path fill="none" stroke="none"/><text fill="#000000" stroke="none" font-family="Arial" font-size="13px" font-style="normal" font-weight="bold" text-decoration="none" x="1260.370849609375" y="289.5">Secador</text></g></g><g transform="translate(-174,-78) scale(1,1)"><g><path fill="none" stroke="none"/><text fill="#000000" stroke="none" font-family="Arial" font-size="13px" font-style="normal" font-weight="normal" text-decoration="none" x="1213" y="312.5">+quantidade: float</text></g></g><g transform="translate(-174,-78) scale(1,1)"><g><path fill="none" stroke="none"/><text fill="#000000" stroke="none" font-family="Arial" font-size="13px" font-style="normal" font-weight="normal" text-decoration="none" x="1213" y="327.5">+tempoDeSecagem: time</text></g></g><g transform="translate(-174,-78) scale(1,1)"><g><path fill="none" stroke="none"/><text fill="#000000" stroke="none" font-family="Arial" font-size="13px" font-style="normal" font-weight="normal" text-decoration="none" x="1213" y="350.5">+secaComposto(): void</text></g></g><g transform="translate(-174,-78) scale(1,1)"><g><path fill="none" stroke="none"/><text fill="#000000" stroke="none" font-family="Arial" font-size="13px" font-style="normal" font-weight="normal" text-decoration="none" x="1213" y="365.5">+enviaComposto(): flost</text></g></g><g transform="translate(-174,-78) scale(1,1)"><path fill="none" stroke="#000000" d="M 1125 399 L 1207 360" stroke-miterlimit="10"/></g><g transform="translate(-174,-78) scale(1,1)"><g><path fill="none" stroke="none"/><text fill="#000000" stroke="none" font-family="Arial" font-size="13px" font-style="normal" font-weight="normal" text-decoration="none" x="1139.5" y="369.5">+envia</text></g></g><g transform="translate(-174,-78) scale(1,1)"><rect fill="#C0C0C0" stroke="none" x="1207" y="471" width="166.88525390625" height="70" opacity="0.2"/></g><g transform="translate(-174,-78) scale(1,1)"><rect fill="#ffffff" stroke="none" x="1200" y="464" width="166.88525390625" height="70"/></g><g transform="translate(-174,-78) scale(1,1)"><path fill="none" stroke="#000000" d="M 1200 464 L 1366.88525390625 464 L 1366.88525390625 534 L 1200 534 L 1200 464 Z Z" stroke-miterlimit="10"/></g><g transform="translate(-174,-78) scale(1,1)"><path fill="none" stroke="#000000" d="M 1200 489 L 1366.88525390625 489" stroke-miterlimit="10"/></g><g transform="translate(-174,-78) scale(1,1)"><path fill="none" stroke="#000000" d="M 1200 512 L 1366.88525390625 512" stroke-miterlimit="10"/></g><g transform="translate(-174,-78) scale(1,1)"><g><path fill="none" stroke="none"/><text fill="#000000" stroke="none" font-family="Arial" font-size="13px" font-style="normal" font-weight="bold" text-decoration="none" x="1220.71826171875" y="481.5">Tanque de Biodiesel</text></g></g><g transform="translate(-174,-78) scale(1,1)"><g><path fill="none" stroke="none"/><text fill="#000000" stroke="none" font-family="Arial" font-size="13px" font-style="normal" font-weight="normal" text-decoration="none" x="1205" y="504.5">+capacidade: float</text></g></g><g transform="translate(-174,-78) scale(1,1)"><g><path fill="none" stroke="none"/><text fill="#000000" stroke="none" font-family="Arial" font-size="13px" font-style="normal" font-weight="normal" text-decoration="none" x="1205" y="527.5">+armazenaBiodiesel(): void</text></g></g><g transform="translate(-174,-78) scale(1,1)"><path fill="none" stroke="#000000" d="M 1285 373 L 1284 463" stroke-miterlimit="10"/></g><g transform="translate(-174,-78) scale(1,1)"><g><path fill="none" stroke="none"/><text fill="#000000" stroke="none" font-family="Arial" font-size="13px" font-style="normal" font-weight="normal" text-decoration="none" x="1287.5" y="421.5">+recebe</text></g></g></g></svg>