<svg version="1.1" xmlns="http://www.w3.org/2000/svg" xmlns:xlink="http://www.w3.org/1999/xlink" width="661" height="165"><defs/><g><text fill="#eeeeee" stroke="none" font-family="Arial" font-size="24px" font-style="normal" font-weight="normal" text-decoration="none" x="0" y="0">UNREGISTERED</text><text fill="#eeeeee" stroke="none" font-family="Arial" font-size="24px" font-style="normal" font-weight="normal" text-decoration="none" x="0" y="30">UNREGISTERED</text><text fill="#eeeeee" stroke="none" font-family="Arial" font-size="24px" font-style="normal" font-weight="normal" text-decoration="none" x="0" y="60">UNREGISTERED</text><text fill="#eeeeee" stroke="none" font-family="Arial" font-size="24px" font-style="normal" font-weight="normal" text-decoration="none" x="0" y="90">UNREGISTERED</text><text fill="#eeeeee" stroke="none" font-family="Arial" font-size="24px" font-style="normal" font-weight="normal" text-decoration="none" x="0" y="120">UNREGISTERED</text><text fill="#eeeeee" stroke="none" font-family="Arial" font-size="24px" font-style="normal" font-weight="normal" text-decoration="none" x="0" y="150">UNREGISTERED</text><text fill="#eeeeee" stroke="none" font-family="Arial" font-size="24px" font-style="normal" font-weight="normal" text-decoration="none" x="200" y="0">UNREGISTERED</text><text fill="#eeeeee" stroke="none" font-family="Arial" font-size="24px" font-style="normal" font-weight="normal" text-decoration="none" x="200" y="30">UNREGISTERED</text><text fill="#eeeeee" stroke="none" font-family="Arial" font-size="24px" font-style="normal" font-weight="normal" text-decoration="none" x="200" y="60">UNREGISTERED</text><text fill="#eeeeee" stroke="none" font-family="Arial" font-size="24px" font-style="normal" font-weight="normal" text-decoration="none" x="200" y="90">UNREGISTERED</text><text fill="#eeeeee" stroke="none" font-family="Arial" font-size="24px" font-style="normal" font-weight="normal" text-decoration="none" x="200" y="120">UNREGISTERED</text><text fill="#eeeeee" stroke="none" font-family="Arial" font-size="24px" font-style="normal" font-weight="normal" text-decoration="none" x="200" y="150">UNREGISTERED</text><text fill="#eeeeee" stroke="none" font-family="Arial" font-size="24px" font-style="normal" font-weight="normal" text-decoration="none" x="400" y="0">UNREGISTERED</text><text fill="#eeeeee" stroke="none" font-family="Arial" font-size="24px" font-style="normal" font-weight="normal" text-decoration="none" x="400" y="30">UNREGISTERED</text><text fill="#eeeeee" stroke="none" font-family="Arial" font-size="24px" font-style="normal" font-weight="normal" text-decoration="none" x="400" y="60">UNREGISTERED</text><text fill="#eeeeee" stroke="none" font-family="Arial" font-size="24px" font-style="normal" font-weight="normal" text-decoration="none" x="400" y="90">UNREGISTERED</text><text fill="#eeeeee" stroke="none" font-family="Arial" font-size="24px" font-style="normal" font-weight="normal" text-decoration="none" x="400" y="120">UNREGISTERED</text><text fill="#eeeeee" stroke="none" font-family="Arial" font-size="24px" font-style="normal" font-weight="normal" text-decoration="none" x="400" y="150">UNREGISTERED</text><text fill="#eeeeee" stroke="none" font-family="Arial" font-size="24px" font-style="normal" font-weight="normal" text-decoration="none" x="600" y="0">UNREGISTERED</text><text fill="#eeeeee" stroke="none" font-family="Arial" font-size="24px" font-style="normal" font-weight="normal" text-decoration="none" x="600" y="30">UNREGISTERED</text><text fill="#eeeeee" stroke="none" font-family="Arial" font-size="24px" font-style="normal" font-weight="normal" text-decoration="none" x="600" y="60">UNREGISTERED</text><text fill="#eeeeee" stroke="none" font-family="Arial" font-size="24px" font-style="normal" font-weight="normal" text-decoration="none" x="600" y="90">UNREGISTERED</text><text fill="#eeeeee" stroke="none" font-family="Arial" font-size="24px" font-style="normal" font-weight="normal" text-decoration="none" x="600" y="120">UNREGISTERED</text><text fill="#eeeeee" stroke="none" font-family="Arial" font-size="24px" font-style="normal" font-weight="normal" text-decoration="none" x="600" y="150">UNREGISTERED</text><g transform="translate(-214,-662) scale(1,1)"><path fill="#C0C0C0" stroke="none" d="M 231 688.5 C 231 683.2532944 235.2532944 679 240.5 679 C 245.7467056 679 250 683.2532944 250 688.5 C 250 693.7467056 245.7467056 698 240.5 698 C 235.2532944 698 231 693.7467056 231 688.5 Z" opacity="0.2"/></g><g transform="translate(-214,-662) scale(1,1)"><path fill="#000000" stroke="none" d="M 224 681.5 C 224 676.2532944 228.2532944 672 233.5 672 C 238.7467056 672 243 676.2532944 243 681.5 C 243 686.7467056 238.7467056 691 233.5 691 C 228.2532944 691 224 686.7467056 224 681.5 Z"/></g><g transform="translate(-214,-662) scale(1,1)"><path fill="#C0C0C0" stroke="none" d="M 847 811.5 C 847 804.59644 852.59644 799 859.5 799 C 866.40356 799 872 804.59644 872 811.5 C 872 818.40356 866.40356 824 859.5 824 C 852.59644 824 847 818.40356 847 811.5 Z" opacity="0.2"/></g><g transform="translate(-214,-662) scale(1,1)"><path fill="none" stroke="#000000" d="M 840 804.5 C 840 797.59644 845.59644 792 852.5 792 C 859.40356 792 865 797.59644 865 804.5 C 865 811.40356 859.40356 817 852.5 817 C 845.59644 817 840 811.40356 840 804.5 Z" stroke-miterlimit="10"/></g><g transform="translate(-214,-662) scale(1,1)"><path fill="#000000" stroke="none" d="M 845 804.5 C 845 800.357864 848.357864 797 852.5 797 C 856.642136 797 860 800.357864 860 804.5 C 860 808.642136 856.642136 812 852.5 812 C 848.357864 812 845 808.642136 845 804.5 Z"/></g><g transform="translate(-214,-662) scale(1,1)"><path fill="none" stroke="#000000" d="M 244 683 L 839 801" stroke-miterlimit="10"/></g><g transform="translate(-214,-662) scale(1,1)"><path fill="none" stroke="#000000" d="M 828.2125880317387 803.1521484676974 L 839 801 L 829.8503490701604 794.8939466214186" stroke-miterlimit="10"/></g></g></svg>