<svg version="1.1" xmlns="http://www.w3.org/2000/svg" xmlns:xlink="http://www.w3.org/1999/xlink" width="1521.099609375" height="581"><defs/><g><text fill="#eeeeee" stroke="none" font-family="Arial" font-size="24px" font-style="normal" font-weight="normal" text-decoration="none" x="0" y="0">UNREGISTERED</text><text fill="#eeeeee" stroke="none" font-family="Arial" font-size="24px" font-style="normal" font-weight="normal" text-decoration="none" x="0" y="30">UNREGISTERED</text><text fill="#eeeeee" stroke="none" font-family="Arial" font-size="24px" font-style="normal" font-weight="normal" text-decoration="none" x="0" y="60">UNREGISTERED</text><text fill="#eeeeee" stroke="none" font-family="Arial" font-size="24px" font-style="normal" font-weight="normal" text-decoration="none" x="0" y="90">UNREGISTERED</text><text fill="#eeeeee" stroke="none" font-family="Arial" font-size="24px" font-style="normal" font-weight="normal" text-decoration="none" x="0" y="120">UNREGISTERED</text><text fill="#eeeeee" stroke="none" font-family="Arial" font-size="24px" font-style="normal" font-weight="normal" text-decoration="none" x="0" y="150">UNREGISTERED</text><text fill="#eeeeee" stroke="none" font-family="Arial" font-size="24px" font-style="normal" font-weight="normal" text-decoration="none" x="0" y="180">UNREGISTERED</text><text fill="#eeeeee" stroke="none" font-family="Arial" font-size="24px" font-style="normal" font-weight="normal" text-decoration="none" x="0" y="210">UNREGISTERED</text><text fill="#eeeeee" stroke="none" font-family="Arial" font-size="24px" font-style="normal" font-weight="normal" text-decoration="none" x="0" y="240">UNREGISTERED</text><text fill="#eeeeee" stroke="none" font-family="Arial" font-size="24px" font-style="normal" font-weight="normal" text-decoration="none" x="0" y="270">UNREGISTERED</text><text fill="#eeeeee" stroke="none" font-family="Arial" font-size="24px" font-style="normal" font-weight="normal" text-decoration="none" x="0" y="300">UNREGISTERED</text><text fill="#eeeeee" stroke="none" font-family="Arial" font-size="24px" font-style="normal" font-weight="normal" text-decoration="none" x="0" y="330">UNREGISTERED</text><text fill="#eeeeee" stroke="none" font-family="Arial" font-size="24px" font-style="normal" font-weight="normal" text-decoration="none" x="0" y="360">UNREGISTERED</text><text fill="#eeeeee" stroke="none" font-family="Arial" font-size="24px" font-style="normal" font-weight="normal" text-decoration="none" x="0" y="390">UNREGISTERED</text><text fill="#eeeeee" stroke="none" font-family="Arial" font-size="24px" font-style="normal" font-weight="normal" text-decoration="none" x="0" y="420">UNREGISTERED</text><text fill="#eeeeee" stroke="none" font-family="Arial" font-size="24px" font-style="normal" font-weight="normal" text-decoration="none" x="0" y="450">UNREGISTERED</text><text fill="#eeeeee" stroke="none" font-family="Arial" font-size="24px" font-style="normal" font-weight="normal" text-decoration="none" x="0" y="480">UNREGISTERED</text><text fill="#eeeeee" stroke="none" font-family="Arial" font-size="24px" font-style="normal" font-weight="normal" text-decoration="none" x="0" y="510">UNREGISTERED</text><text fill="#eeeeee" stroke="none" font-family="Arial" font-size="24px" font-style="normal" font-weight="normal" text-decoration="none" x="0" y="540">UNREGISTERED</text><text fill="#eeeeee" stroke="none" font-family="Arial" font-size="24px" font-style="normal" font-weight="normal" text-decoration="none" x="0" y="570">UNREGISTERED</text><text fill="#eeeeee" stroke="none" font-family="Arial" font-size="24px" font-style="normal" font-weight="normal" text-decoration="none" x="200" y="0">UNREGISTERED</text><text fill="#eeeeee" stroke="none" font-family="Arial" font-size="24px" font-style="normal" font-weight="normal" text-decoration="none" x="200" y="30">UNREGISTERED</text><text fill="#eeeeee" stroke="none" font-family="Arial" font-size="24px" font-style="normal" font-weight="normal" text-decoration="none" x="200" y="60">UNREGISTERED</text><text fill="#eeeeee" stroke="none" font-family="Arial" font-size="24px" font-style="normal" font-weight="normal" text-decoration="none" x="200" y="90">UNREGISTERED</text><text fill="#eeeeee" stroke="none" font-family="Arial" font-size="24px" font-style="normal" font-weight="normal" text-decoration="none" x="200" y="120">UNREGISTERED</text><text fill="#eeeeee" stroke="none" font-family="Arial" font-size="24px" font-style="normal" font-weight="normal" text-decoration="none" x="200" y="150">UNREGISTERED</text><text fill="#eeeeee" stroke="none" font-family="Arial" font-size="24px" font-style="normal" font-weight="normal" text-decoration="none" x="200" y="180">UNREGISTERED</text><text fill="#eeeeee" stroke="none" font-family="Arial" font-size="24px" font-style="normal" font-weight="normal" text-decoration="none" x="200" y="210">UNREGISTERED</text><text fill="#eeeeee" stroke="none" font-family="Arial" font-size="24px" font-style="normal" font-weight="normal" text-decoration="none" x="200" y="240">UNREGISTERED</text><text fill="#eeeeee" stroke="none" font-family="Arial" font-size="24px" font-style="normal" font-weight="normal" text-decoration="none" x="200" y="270">UNREGISTERED</text><text fill="#eeeeee" stroke="none" font-family="Arial" font-size="24px" font-style="normal" font-weight="normal" text-decoration="none" x="200" y="300">UNREGISTERED</text><text fill="#eeeeee" stroke="none" font-family="Arial" font-size="24px" font-style="normal" font-weight="normal" text-decoration="none" x="200" y="330">UNREGISTERED</text><text fill="#eeeeee" stroke="none" font-family="Arial" font-size="24px" font-style="normal" font-weight="normal" text-decoration="none" x="200" y="360">UNREGISTERED</text><text fill="#eeeeee" stroke="none" font-family="Arial" font-size="24px" font-style="normal" font-weight="normal" text-decoration="none" x="200" y="390">UNREGISTERED</text><text fill="#eeeeee" stroke="none" font-family="Arial" font-size="24px" font-style="normal" font-weight="normal" text-decoration="none" x="200" y="420">UNREGISTERED</text><text fill="#eeeeee" stroke="none" font-family="Arial" font-size="24px" font-style="normal" font-weight="normal" text-decoration="none" x="200" y="450">UNREGISTERED</text><text fill="#eeeeee" stroke="none" font-family="Arial" font-size="24px" font-style="normal" font-weight="normal" text-decoration="none" x="200" y="480">UNREGISTERED</text><text fill="#eeeeee" stroke="none" font-family="Arial" font-size="24px" font-style="normal" font-weight="normal" text-decoration="none" x="200" y="510">UNREGISTERED</text><text fill="#eeeeee" stroke="none" font-family="Arial" font-size="24px" font-style="normal" font-weight="normal" text-decoration="none" x="200" y="540">UNREGISTERED</text><text fill="#eeeeee" stroke="none" font-family="Arial" font-size="24px" font-style="normal" font-weight="normal" text-decoration="none" x="200" y="570">UNREGISTERED</text><text fill="#eeeeee" stroke="none" font-family="Arial" font-size="24px" font-style="normal" font-weight="normal" text-decoration="none" x="400" y="0">UNREGISTERED</text><text fill="#eeeeee" stroke="none" font-family="Arial" font-size="24px" font-style="normal" font-weight="normal" text-decoration="none" x="400" y="30">UNREGISTERED</text><text fill="#eeeeee" stroke="none" font-family="Arial" font-size="24px" font-style="normal" font-weight="normal" text-decoration="none" x="400" y="60">UNREGISTERED</text><text fill="#eeeeee" stroke="none" font-family="Arial" font-size="24px" font-style="normal" font-weight="normal" text-decoration="none" x="400" y="90">UNREGISTERED</text><text fill="#eeeeee" stroke="none" font-family="Arial" font-size="24px" font-style="normal" font-weight="normal" text-decoration="none" x="400" y="120">UNREGISTERED</text><text fill="#eeeeee" stroke="none" font-family="Arial" font-size="24px" font-style="normal" font-weight="normal" text-decoration="none" x="400" y="150">UNREGISTERED</text><text fill="#eeeeee" stroke="none" font-family="Arial" font-size="24px" font-style="normal" font-weight="normal" text-decoration="none" x="400" y="180">UNREGISTERED</text><text fill="#eeeeee" stroke="none" font-family="Arial" font-size="24px" font-style="normal" font-weight="normal" text-decoration="none" x="400" y="210">UNREGISTERED</text><text fill="#eeeeee" stroke="none" font-family="Arial" font-size="24px" font-style="normal" font-weight="normal" text-decoration="none" x="400" y="240">UNREGISTERED</text><text fill="#eeeeee" stroke="none" font-family="Arial" font-size="24px" font-style="normal" font-weight="normal" text-decoration="none" x="400" y="270">UNREGISTERED</text><text fill="#eeeeee" stroke="none" font-family="Arial" font-size="24px" font-style="normal" font-weight="normal" text-decoration="none" x="400" y="300">UNREGISTERED</text><text fill="#eeeeee" stroke="none" font-family="Arial" font-size="24px" font-style="normal" font-weight="normal" text-decoration="none" x="400" y="330">UNREGISTERED</text><text fill="#eeeeee" stroke="none" font-family="Arial" font-size="24px" font-style="normal" font-weight="normal" text-decoration="none" x="400" y="360">UNREGISTERED</text><text fill="#eeeeee" stroke="none" font-family="Arial" font-size="24px" font-style="normal" font-weight="normal" text-decoration="none" x="400" y="390">UNREGISTERED</text><text fill="#eeeeee" stroke="none" font-family="Arial" font-size="24px" font-style="normal" font-weight="normal" text-decoration="none" x="400" y="420">UNREGISTERED</text><text fill="#eeeeee" stroke="none" font-family="Arial" font-size="24px" font-style="normal" font-weight="normal" text-decoration="none" x="400" y="450">UNREGISTERED</text><text fill="#eeeeee" stroke="none" font-family="Arial" font-size="24px" font-style="normal" font-weight="normal" text-decoration="none" x="400" y="480">UNREGISTERED</text><text fill="#eeeeee" stroke="none" font-family="Arial" font-size="24px" font-style="normal" font-weight="normal" text-decoration="none" x="400" y="510">UNREGISTERED</text><text fill="#eeeeee" stroke="none" font-family="Arial" font-size="24px" font-style="normal" font-weight="normal" text-decoration="none" x="400" y="540">UNREGISTERED</text><text fill="#eeeeee" stroke="none" font-family="Arial" font-size="24px" font-style="normal" font-weight="normal" text-decoration="none" x="400" y="570">UNREGISTERED</text><text fill="#eeeeee" stroke="none" font-family="Arial" font-size="24px" font-style="normal" font-weight="normal" text-decoration="none" x="600" y="0">UNREGISTERED</text><text fill="#eeeeee" stroke="none" font-family="Arial" font-size="24px" font-style="normal" font-weight="normal" text-decoration="none" x="600" y="30">UNREGISTERED</text><text fill="#eeeeee" stroke="none" font-family="Arial" font-size="24px" font-style="normal" font-weight="normal" text-decoration="none" x="600" y="60">UNREGISTERED</text><text fill="#eeeeee" stroke="none" font-family="Arial" font-size="24px" font-style="normal" font-weight="normal" text-decoration="none" x="600" y="90">UNREGISTERED</text><text fill="#eeeeee" stroke="none" font-family="Arial" font-size="24px" font-style="normal" font-weight="normal" text-decoration="none" x="600" y="120">UNREGISTERED</text><text fill="#eeeeee" stroke="none" font-family="Arial" font-size="24px" font-style="normal" font-weight="normal" text-decoration="none" x="600" y="150">UNREGISTERED</text><text fill="#eeeeee" stroke="none" font-family="Arial" font-size="24px" font-style="normal" font-weight="normal" text-decoration="none" x="600" y="180">UNREGISTERED</text><text fill="#eeeeee" stroke="none" font-family="Arial" font-size="24px" font-style="normal" font-weight="normal" text-decoration="none" x="600" y="210">UNREGISTERED</text><text fill="#eeeeee" stroke="none" font-family="Arial" font-size="24px" font-style="normal" font-weight="normal" text-decoration="none" x="600" y="240">UNREGISTERED</text><text fill="#eeeeee" stroke="none" font-family="Arial" font-size="24px" font-style="normal" font-weight="normal" text-decoration="none" x="600" y="270">UNREGISTERED</text><text fill="#eeeeee" stroke="none" font-family="Arial" font-size="24px" font-style="normal" font-weight="normal" text-decoration="none" x="600" y="300">UNREGISTERED</text><text fill="#eeeeee" stroke="none" font-family="Arial" font-size="24px" font-style="normal" font-weight="normal" text-decoration="none" x="600" y="330">UNREGISTERED</text><text fill="#eeeeee" stroke="none" font-family="Arial" font-size="24px" font-style="normal" font-weight="normal" text-decoration="none" x="600" y="360">UNREGISTERED</text><text fill="#eeeeee" stroke="none" font-family="Arial" font-size="24px" font-style="normal" font-weight="normal" text-decoration="none" x="600" y="390">UNREGISTERED</text><text fill="#eeeeee" stroke="none" font-family="Arial" font-size="24px" font-style="normal" font-weight="normal" text-decoration="none" x="600" y="420">UNREGISTERED</text><text fill="#eeeeee" stroke="none" font-family="Arial" font-size="24px" font-style="normal" font-weight="normal" text-decoration="none" x="600" y="450">UNREGISTERED</text><text fill="#eeeeee" stroke="none" font-family="Arial" font-size="24px" font-style="normal" font-weight="normal" text-decoration="none" x="600" y="480">UNREGISTERED</text><text fill="#eeeeee" stroke="none" font-family="Arial" font-size="24px" font-style="normal" font-weight="normal" text-decoration="none" x="600" y="510">UNREGISTERED</text><text fill="#eeeeee" stroke="none" font-family="Arial" font-size="24px" font-style="normal" font-weight="normal" text-decoration="none" x="600" y="540">UNREGISTERED</text><text fill="#eeeeee" stroke="none" font-family="Arial" font-size="24px" font-style="normal" font-weight="normal" text-decoration="none" x="600" y="570">UNREGISTERED</text><text fill="#eeeeee" stroke="none" font-family="Arial" font-size="24px" font-style="normal" font-weight="normal" text-decoration="none" x="800" y="0">UNREGISTERED</text><text fill="#eeeeee" stroke="none" font-family="Arial" font-size="24px" font-style="normal" font-weight="normal" text-decoration="none" x="800" y="30">UNREGISTERED</text><text fill="#eeeeee" stroke="none" font-family="Arial" font-size="24px" font-style="normal" font-weight="normal" text-decoration="none" x="800" y="60">UNREGISTERED</text><text fill="#eeeeee" stroke="none" font-family="Arial" font-size="24px" font-style="normal" font-weight="normal" text-decoration="none" x="800" y="90">UNREGISTERED</text><text fill="#eeeeee" stroke="none" font-family="Arial" font-size="24px" font-style="normal" font-weight="normal" text-decoration="none" x="800" y="120">UNREGISTERED</text><text fill="#eeeeee" stroke="none" font-family="Arial" font-size="24px" font-style="normal" font-weight="normal" text-decoration="none" x="800" y="150">UNREGISTERED</text><text fill="#eeeeee" stroke="none" font-family="Arial" font-size="24px" font-style="normal" font-weight="normal" text-decoration="none" x="800" y="180">UNREGISTERED</text><text fill="#eeeeee" stroke="none" font-family="Arial" font-size="24px" font-style="normal" font-weight="normal" text-decoration="none" x="800" y="210">UNREGISTERED</text><text fill="#eeeeee" stroke="none" font-family="Arial" font-size="24px" font-style="normal" font-weight="normal" text-decoration="none" x="800" y="240">UNREGISTERED</text><text fill="#eeeeee" stroke="none" font-family="Arial" font-size="24px" font-style="normal" font-weight="normal" text-decoration="none" x="800" y="270">UNREGISTERED</text><text fill="#eeeeee" stroke="none" font-family="Arial" font-size="24px" font-style="normal" font-weight="normal" text-decoration="none" x="800" y="300">UNREGISTERED</text><text fill="#eeeeee" stroke="none" font-family="Arial" font-size="24px" font-style="normal" font-weight="normal" text-decoration="none" x="800" y="330">UNREGISTERED</text><text fill="#eeeeee" stroke="none" font-family="Arial" font-size="24px" font-style="normal" font-weight="normal" text-decoration="none" x="800" y="360">UNREGISTERED</text><text fill="#eeeeee" stroke="none" font-family="Arial" font-size="24px" font-style="normal" font-weight="normal" text-decoration="none" x="800" y="390">UNREGISTERED</text><text fill="#eeeeee" stroke="none" font-family="Arial" font-size="24px" font-style="normal" font-weight="normal" text-decoration="none" x="800" y="420">UNREGISTERED</text><text fill="#eeeeee" stroke="none" font-family="Arial" font-size="24px" font-style="normal" font-weight="normal" text-decoration="none" x="800" y="450">UNREGISTERED</text><text fill="#eeeeee" stroke="none" font-family="Arial" font-size="24px" font-style="normal" font-weight="normal" text-decoration="none" x="800" y="480">UNREGISTERED</text><text fill="#eeeeee" stroke="none" font-family="Arial" font-size="24px" font-style="normal" font-weight="normal" text-decoration="none" x="800" y="510">UNREGISTERED</text><text fill="#eeeeee" stroke="none" font-family="Arial" font-size="24px" font-style="normal" font-weight="normal" text-decoration="none" x="800" y="540">UNREGISTERED</text><text fill="#eeeeee" stroke="none" font-family="Arial" font-size="24px" font-style="normal" font-weight="normal" text-decoration="none" x="800" y="570">UNREGISTERED</text><text fill="#eeeeee" stroke="none" font-family="Arial" font-size="24px" font-style="normal" font-weight="normal" text-decoration="none" x="1000" y="0">UNREGISTERED</text><text fill="#eeeeee" stroke="none" font-family="Arial" font-size="24px" font-style="normal" font-weight="normal" text-decoration="none" x="1000" y="30">UNREGISTERED</text><text fill="#eeeeee" stroke="none" font-family="Arial" font-size="24px" font-style="normal" font-weight="normal" text-decoration="none" x="1000" y="60">UNREGISTERED</text><text fill="#eeeeee" stroke="none" font-family="Arial" font-size="24px" font-style="normal" font-weight="normal" text-decoration="none" x="1000" y="90">UNREGISTERED</text><text fill="#eeeeee" stroke="none" font-family="Arial" font-size="24px" font-style="normal" font-weight="normal" text-decoration="none" x="1000" y="120">UNREGISTERED</text><text fill="#eeeeee" stroke="none" font-family="Arial" font-size="24px" font-style="normal" font-weight="normal" text-decoration="none" x="1000" y="150">UNREGISTERED</text><text fill="#eeeeee" stroke="none" font-family="Arial" font-size="24px" font-style="normal" font-weight="normal" text-decoration="none" x="1000" y="180">UNREGISTERED</text><text fill="#eeeeee" stroke="none" font-family="Arial" font-size="24px" font-style="normal" font-weight="normal" text-decoration="none" x="1000" y="210">UNREGISTERED</text><text fill="#eeeeee" stroke="none" font-family="Arial" font-size="24px" font-style="normal" font-weight="normal" text-decoration="none" x="1000" y="240">UNREGISTERED</text><text fill="#eeeeee" stroke="none" font-family="Arial" font-size="24px" font-style="normal" font-weight="normal" text-decoration="none" x="1000" y="270">UNREGISTERED</text><text fill="#eeeeee" stroke="none" font-family="Arial" font-size="24px" font-style="normal" font-weight="normal" text-decoration="none" x="1000" y="300">UNREGISTERED</text><text fill="#eeeeee" stroke="none" font-family="Arial" font-size="24px" font-style="normal" font-weight="normal" text-decoration="none" x="1000" y="330">UNREGISTERED</text><text fill="#eeeeee" stroke="none" font-family="Arial" font-size="24px" font-style="normal" font-weight="normal" text-decoration="none" x="1000" y="360">UNREGISTERED</text><text fill="#eeeeee" stroke="none" font-family="Arial" font-size="24px" font-style="normal" font-weight="normal" text-decoration="none" x="1000" y="390">UNREGISTERED</text><text fill="#eeeeee" stroke="none" font-family="Arial" font-size="24px" font-style="normal" font-weight="normal" text-decoration="none" x="1000" y="420">UNREGISTERED</text><text fill="#eeeeee" stroke="none" font-family="Arial" font-size="24px" font-style="normal" font-weight="normal" text-decoration="none" x="1000" y="450">UNREGISTERED</text><text fill="#eeeeee" stroke="none" font-family="Arial" font-size="24px" font-style="normal" font-weight="normal" text-decoration="none" x="1000" y="480">UNREGISTERED</text><text fill="#eeeeee" stroke="none" font-family="Arial" font-size="24px" font-style="normal" font-weight="normal" text-decoration="none" x="1000" y="510">UNREGISTERED</text><text fill="#eeeeee" stroke="none" font-family="Arial" font-size="24px" font-style="normal" font-weight="normal" text-decoration="none" x="1000" y="540">UNREGISTERED</text><text fill="#eeeeee" stroke="none" font-family="Arial" font-size="24px" font-style="normal" font-weight="normal" text-decoration="none" x="1000" y="570">UNREGISTERED</text><text fill="#eeeeee" stroke="none" font-family="Arial" font-size="24px" font-style="normal" font-weight="normal" text-decoration="none" x="1200" y="0">UNREGISTERED</text><text fill="#eeeeee" stroke="none" font-family="Arial" font-size="24px" font-style="normal" font-weight="normal" text-decoration="none" x="1200" y="30">UNREGISTERED</text><text fill="#eeeeee" stroke="none" font-family="Arial" font-size="24px" font-style="normal" font-weight="normal" text-decoration="none" x="1200" y="60">UNREGISTERED</text><text fill="#eeeeee" stroke="none" font-family="Arial" font-size="24px" font-style="normal" font-weight="normal" text-decoration="none" x="1200" y="90">UNREGISTERED</text><text fill="#eeeeee" stroke="none" font-family="Arial" font-size="24px" font-style="normal" font-weight="normal" text-decoration="none" x="1200" y="120">UNREGISTERED</text><text fill="#eeeeee" stroke="none" font-family="Arial" font-size="24px" font-style="normal" font-weight="normal" text-decoration="none" x="1200" y="150">UNREGISTERED</text><text fill="#eeeeee" stroke="none" font-family="Arial" font-size="24px" font-style="normal" font-weight="normal" text-decoration="none" x="1200" y="180">UNREGISTERED</text><text fill="#eeeeee" stroke="none" font-family="Arial" font-size="24px" font-style="normal" font-weight="normal" text-decoration="none" x="1200" y="210">UNREGISTERED</text><text fill="#eeeeee" stroke="none" font-family="Arial" font-size="24px" font-style="normal" font-weight="normal" text-decoration="none" x="1200" y="240">UNREGISTERED</text><text fill="#eeeeee" stroke="none" font-family="Arial" font-size="24px" font-style="normal" font-weight="normal" text-decoration="none" x="1200" y="270">UNREGISTERED</text><text fill="#eeeeee" stroke="none" font-family="Arial" font-size="24px" font-style="normal" font-weight="normal" text-decoration="none" x="1200" y="300">UNREGISTERED</text><text fill="#eeeeee" stroke="none" font-family="Arial" font-size="24px" font-style="normal" font-weight="normal" text-decoration="none" x="1200" y="330">UNREGISTERED</text><text fill="#eeeeee" stroke="none" font-family="Arial" font-size="24px" font-style="normal" font-weight="normal" text-decoration="none" x="1200" y="360">UNREGISTERED</text><text fill="#eeeeee" stroke="none" font-family="Arial" font-size="24px" font-style="normal" font-weight="normal" text-decoration="none" x="1200" y="390">UNREGISTERED</text><text fill="#eeeeee" stroke="none" font-family="Arial" font-size="24px" font-style="normal" font-weight="normal" text-decoration="none" x="1200" y="420">UNREGISTERED</text><text fill="#eeeeee" stroke="none" font-family="Arial" font-size="24px" font-style="normal" font-weight="normal" text-decoration="none" x="1200" y="450">UNREGISTERED</text><text fill="#eeeeee" stroke="none" font-family="Arial" font-size="24px" font-style="normal" font-weight="normal" text-decoration="none" x="1200" y="480">UNREGISTERED</text><text fill="#eeeeee" stroke="none" font-family="Arial" font-size="24px" font-style="normal" font-weight="normal" text-decoration="none" x="1200" y="510">UNREGISTERED</text><text fill="#eeeeee" stroke="none" font-family="Arial" font-size="24px" font-style="normal" font-weight="normal" text-decoration="none" x="1200" y="540">UNREGISTERED</text><text fill="#eeeeee" stroke="none" font-family="Arial" font-size="24px" font-style="normal" font-weight="normal" text-decoration="none" x="1200" y="570">UNREGISTERED</text><text fill="#eeeeee" stroke="none" font-family="Arial" font-size="24px" font-style="normal" font-weight="normal" text-decoration="none" x="1400" y="0">UNREGISTERED</text><text fill="#eeeeee" stroke="none" font-family="Arial" font-size="24px" font-style="normal" font-weight="normal" text-decoration="none" x="1400" y="30">UNREGISTERED</text><text fill="#eeeeee" stroke="none" font-family="Arial" font-size="24px" font-style="normal" font-weight="normal" text-decoration="none" x="1400" y="60">UNREGISTERED</text><text fill="#eeeeee" stroke="none" font-family="Arial" font-size="24px" font-style="normal" font-weight="normal" text-decoration="none" x="1400" y="90">UNREGISTERED</text><text fill="#eeeeee" stroke="none" font-family="Arial" font-size="24px" font-style="normal" font-weight="normal" text-decoration="none" x="1400" y="120">UNREGISTERED</text><text fill="#eeeeee" stroke="none" font-family="Arial" font-size="24px" font-style="normal" font-weight="normal" text-decoration="none" x="1400" y="150">UNREGISTERED</text><text fill="#eeeeee" stroke="none" font-family="Arial" font-size="24px" font-style="normal" font-weight="normal" text-decoration="none" x="1400" y="180">UNREGISTERED</text><text fill="#eeeeee" stroke="none" font-family="Arial" font-size="24px" font-style="normal" font-weight="normal" text-decoration="none" x="1400" y="210">UNREGISTERED</text><text fill="#eeeeee" stroke="none" font-family="Arial" font-size="24px" font-style="normal" font-weight="normal" text-decoration="none" x="1400" y="240">UNREGISTERED</text><text fill="#eeeeee" stroke="none" font-family="Arial" font-size="24px" font-style="normal" font-weight="normal" text-decoration="none" x="1400" y="270">UNREGISTERED</text><text fill="#eeeeee" stroke="none" font-family="Arial" font-size="24px" font-style="normal" font-weight="normal" text-decoration="none" x="1400" y="300">UNREGISTERED</text><text fill="#eeeeee" stroke="none" font-family="Arial" font-size="24px" font-style="normal" font-weight="normal" text-decoration="none" x="1400" y="330">UNREGISTERED</text><text fill="#eeeeee" stroke="none" font-family="Arial" font-size="24px" font-style="normal" font-weight="normal" text-decoration="none" x="1400" y="360">UNREGISTERED</text><text fill="#eeeeee" stroke="none" font-family="Arial" font-size="24px" font-style="normal" font-weight="normal" text-decoration="none" x="1400" y="390">UNREGISTERED</text><text fill="#eeeeee" stroke="none" font-family="Arial" font-size="24px" font-style="normal" font-weight="normal" text-decoration="none" x="1400" y="420">UNREGISTERED</text><text fill="#eeeeee" stroke="none" font-family="Arial" font-size="24px" font-style="normal" font-weight="normal" text-decoration="none" x="1400" y="450">UNREGISTERED</text><text fill="#eeeeee" stroke="none" font-family="Arial" font-size="24px" font-style="normal" font-weight="normal" text-decoration="none" x="1400" y="480">UNREGISTERED</text><text fill="#eeeeee" stroke="none" font-family="Arial" font-size="24px" font-style="normal" font-weight="normal" text-decoration="none" x="1400" y="510">UNREGISTERED</text><text fill="#eeeeee" stroke="none" font-family="Arial" font-size="24px" font-style="normal" font-weight="normal" text-decoration="none" x="1400" y="540">UNREGISTERED</text><text fill="#eeeeee" stroke="none" font-family="Arial" font-size="24px" font-style="normal" font-weight="normal" text-decoration="none" x="1400" y="570">UNREGISTERED</text><g transform="translate(-134,-94) scale(1,1)"><path fill="#C0C0C0" stroke="none" d="M 151 240.5 C 151 235.2532944 155.2532944 231 160.5 231 C 165.7467056 231 170 235.2532944 170 240.5 C 170 245.7467056 165.7467056 250 160.5 250 C 155.2532944 250 151 245.7467056 151 240.5 Z" opacity="0.2"/></g><g transform="translate(-134,-94) scale(1,1)"><path fill="#000000" stroke="none" d="M 144 233.5 C 144 228.2532944 148.2532944 224 153.5 224 C 158.7467056 224 163 228.2532944 163 233.5 C 163 238.7467056 158.7467056 243 153.5 243 C 148.2532944 243 144 238.7467056 144 233.5 Z"/></g><g transform="translate(-134,-94) scale(1,1)"><path fill="#C0C0C0" stroke="none" d="M 1151 659.5 C 1151 652.59644 1156.59644 647 1163.5 647 C 1170.40356 647 1176 652.59644 1176 659.5 C 1176 666.40356 1170.40356 672 1163.5 672 C 1156.59644 672 1151 666.40356 1151 659.5 Z" opacity="0.2"/></g><g transform="translate(-134,-94) scale(1,1)"><path fill="none" stroke="#000000" d="M 1144 652.5 C 1144 645.59644 1149.59644 640 1156.5 640 C 1163.40356 640 1169 645.59644 1169 652.5 C 1169 659.40356 1163.40356 665 1156.5 665 C 1149.59644 665 1144 659.40356 1144 652.5 Z" stroke-miterlimit="10"/></g><g transform="translate(-134,-94) scale(1,1)"><path fill="#000000" stroke="none" d="M 1149 652.5 C 1149 648.357864 1152.357864 645 1156.5 645 C 1160.642136 645 1164 648.357864 1164 652.5 C 1164 656.642136 1160.642136 660 1156.5 660 C 1152.357864 660 1149 656.642136 1149 652.5 Z"/></g><g transform="translate(-134,-94) scale(1,1)"><path fill="#C0C0C0" stroke="none" d="M 378 191 L 377 191 Q 380 191 380 194 L 380 284 Q 380 287 377 287 L 378 287 Q 375 287 375 284 L 375 194 Q 375 191 378 191 Z" opacity="0.2"/></g><g transform="translate(-134,-94) scale(1,1)"><path fill="#000000" stroke="none" d="M 371 184 L 371 184 Q 374 184 374 187 L 374 277 Q 374 280 371 280 L 371 280 Q 368 280 368 277 L 368 187 Q 368 184 371 184 Z"/></g><g transform="translate(-134,-94) scale(1,1)"><path fill="none" stroke="#000000" d="M 164 233 L 367 232" stroke-miterlimit="10"/></g><g transform="translate(-134,-94) scale(1,1)"><path fill="none" stroke="#000000" d="M 356.8581847357011 236.2595285120344 L 367 232 L 356.816712157556 227.84059514858995" stroke-miterlimit="10"/></g><g transform="translate(-134,-94) scale(1,1)"><g><path fill="none" stroke="none"/><text fill="#000000" stroke="none" font-family="Arial" font-size="13px" font-style="normal" font-weight="normal" text-decoration="none" x="200.5" y="221.5">Recebe os compostos</text></g></g><g transform="translate(-134,-94) scale(1,1)"><path fill="#C0C0C0" stroke="none" d="M 601 111 L 765.54443359375 111 Q 775.54443359375 111 775.54443359375 121 L 775.54443359375 148 Q 775.54443359375 158 765.54443359375 158 L 601 158 Q 591 158 591 148 L 591 121 Q 591 111 601 111 Z" opacity="0.2"/></g><g transform="translate(-134,-94) scale(1,1)"><path fill="#ffffff" stroke="none" d="M 594 104 L 758.54443359375 104 Q 768.54443359375 104 768.54443359375 114 L 768.54443359375 141 Q 768.54443359375 151 758.54443359375 151 L 594 151 Q 584 151 584 141 L 584 114 Q 584 104 594 104 Z"/></g><g transform="translate(-134,-94) scale(1,1)"><path fill="none" stroke="#000000" d="M 594 104 L 758.54443359375 104 Q 768.54443359375 104 768.54443359375 114 L 768.54443359375 141 Q 768.54443359375 151 758.54443359375 151 L 594 151 Q 584 151 584 141 L 584 114 Q 584 104 594 104 Z" stroke-miterlimit="10"/></g><g transform="translate(-134,-94) scale(1,1)"><path fill="none" stroke="#000000" d="M 584 129 L 768.54443359375 129" stroke-miterlimit="10"/></g><g transform="translate(-134,-94) scale(1,1)"><g><path fill="none" stroke="none"/><text fill="#000000" stroke="none" font-family="Arial" font-size="13px" font-style="normal" font-weight="bold" text-decoration="none" x="588.5" y="123">Óleo é adicionado a solução</text></g></g><g transform="translate(-134,-94) scale(1,1)"><g><path fill="none" stroke="none"/><text fill="#000000" stroke="none" font-family="Arial" font-size="13px" font-style="normal" font-weight="normal" text-decoration="none" x="589" y="144.5">entry/recebeOleo()</text></g></g><g transform="translate(-134,-94) scale(1,1)"><path fill="#C0C0C0" stroke="none" d="M 593 215 L 765 215 Q 775 215 775 225 L 775 253 Q 775 263 765 263 L 593 263 Q 583 263 583 253 L 583 225 Q 583 215 593 215 Z" opacity="0.2"/></g><g transform="translate(-134,-94) scale(1,1)"><path fill="#ffffff" stroke="none" d="M 586 208 L 758 208 Q 768 208 768 218 L 768 246 Q 768 256 758 256 L 586 256 Q 576 256 576 246 L 576 218 Q 576 208 586 208 Z"/></g><g transform="translate(-134,-94) scale(1,1)"><path fill="none" stroke="#000000" d="M 586 208 L 758 208 Q 768 208 768 218 L 768 246 Q 768 256 758 256 L 586 256 Q 576 256 576 246 L 576 218 Q 576 208 586 208 Z" stroke-miterlimit="10"/></g><g transform="translate(-134,-94) scale(1,1)"><path fill="none" stroke="#000000" d="M 576 233 L 768 233" stroke-miterlimit="10"/></g><g transform="translate(-134,-94) scale(1,1)"><g><path fill="none" stroke="none"/><text fill="#000000" stroke="none" font-family="Arial" font-size="13px" font-style="normal" font-weight="bold" text-decoration="none" x="582.425048828125" y="225.5">EtOH é adicionado a solução</text></g></g><g transform="translate(-134,-94) scale(1,1)"><g><path fill="none" stroke="none"/><text fill="#000000" stroke="none" font-family="Arial" font-size="13px" font-style="normal" font-weight="normal" text-decoration="none" x="581" y="248.5">entry/recebeEtOH()</text></g></g><g transform="translate(-134,-94) scale(1,1)"><path fill="#C0C0C0" stroke="none" d="M 593 303 L 773 303 Q 783 303 783 313 L 783 341 Q 783 351 773 351 L 593 351 Q 583 351 583 341 L 583 313 Q 583 303 593 303 Z" opacity="0.2"/></g><g transform="translate(-134,-94) scale(1,1)"><path fill="#ffffff" stroke="none" d="M 586 296 L 766 296 Q 776 296 776 306 L 776 334 Q 776 344 766 344 L 586 344 Q 576 344 576 334 L 576 306 Q 576 296 586 296 Z"/></g><g transform="translate(-134,-94) scale(1,1)"><path fill="none" stroke="#000000" d="M 586 296 L 766 296 Q 776 296 776 306 L 776 334 Q 776 344 766 344 L 586 344 Q 576 344 576 334 L 576 306 Q 576 296 586 296 Z" stroke-miterlimit="10"/></g><g transform="translate(-134,-94) scale(1,1)"><path fill="none" stroke="#000000" d="M 576 321 L 776 321" stroke-miterlimit="10"/></g><g transform="translate(-134,-94) scale(1,1)"><g><path fill="none" stroke="none"/><text fill="#000000" stroke="none" font-family="Arial" font-size="13px" font-style="normal" font-weight="bold" text-decoration="none" x="584.615966796875" y="313.5">NaOH é adicionado a solução</text></g></g><g transform="translate(-134,-94) scale(1,1)"><g><path fill="none" stroke="none"/><text fill="#000000" stroke="none" font-family="Arial" font-size="13px" font-style="normal" font-weight="normal" text-decoration="none" x="581" y="336.5">entry/recebeNaOH()</text></g></g><g transform="translate(-134,-94) scale(1,1)"><path fill="none" stroke="#000000" d="M 374 231 L 603 152" stroke-miterlimit="10"/></g><g transform="translate(-134,-94) scale(1,1)"><path fill="none" stroke="#000000" d="M 594.765726774925 159.29360983702958 L 603 152 L 592.0201285893141 151.33485053949923" stroke-miterlimit="10"/></g><g transform="translate(-134,-94) scale(1,1)"><g><path fill="none" stroke="none"/><text fill="#000000" stroke="none" font-family="Arial" font-size="13px" font-style="normal" font-weight="normal" text-decoration="none" x="429.5" y="164.5">Recebe o óleo</text></g></g><g transform="translate(-134,-94) scale(1,1)"><path fill="none" stroke="#000000" d="M 374 232 L 575 232" stroke-miterlimit="10"/></g><g transform="translate(-134,-94) scale(1,1)"><path fill="none" stroke="#000000" d="M 564.8373251423759 236.209517756016 L 575 232 L 564.8373251423758 227.790482243984" stroke-miterlimit="10"/></g><g transform="translate(-134,-94) scale(1,1)"><g><path fill="none" stroke="none"/><text fill="#000000" stroke="none" font-family="Arial" font-size="13px" font-style="normal" font-weight="normal" text-decoration="none" x="470.5" y="221.5">Recebe EtOH</text></g></g><g transform="translate(-134,-94) scale(1,1)"><path fill="none" stroke="#000000" d="M 374 233 L 589 295" stroke-miterlimit="10"/></g><g transform="translate(-134,-94) scale(1,1)"><path fill="none" stroke="#000000" d="M 578.0688509980357 296.2288130438984 L 589 295 L 580.4016083783995 288.1394124507015" stroke-miterlimit="10"/></g><g transform="translate(-134,-94) scale(1,1)"><g><path fill="none" stroke="none"/><text fill="#000000" stroke="none" font-family="Arial" font-size="13px" font-style="normal" font-weight="normal" text-decoration="none" x="402.5" y="285.5">Recebe NaOH</text></g></g><g transform="translate(-134,-94) scale(1,1)"><path fill="#C0C0C0" stroke="none" d="M 1018 175 L 1017 175 Q 1020 175 1020 178 L 1020 300 Q 1020 303 1017 303 L 1018 303 Q 1015 303 1015 300 L 1015 178 Q 1015 175 1018 175 Z" opacity="0.2"/></g><g transform="translate(-134,-94) scale(1,1)"><path fill="#000000" stroke="none" d="M 1011 168 L 1011 168 Q 1014 168 1014 171 L 1014 293 Q 1014 296 1011 296 L 1011 296 Q 1008 296 1008 293 L 1008 171 Q 1008 168 1011 168 Z"/></g><g transform="translate(-134,-94) scale(1,1)"><path fill="none" stroke="#000000" d="M 756 152 L 1007 231" stroke-miterlimit="10"/></g><g transform="translate(-134,-94) scale(1,1)"><path fill="none" stroke="#000000" d="M 996.0423461825432 231.9642732065004 L 1007 231 L 998.5699245565487 223.93361280301457" stroke-miterlimit="10"/></g><g transform="translate(-134,-94) scale(1,1)"><g><path fill="none" stroke="none"/><text fill="#000000" stroke="none" font-family="Arial" font-size="13px" font-style="normal" font-weight="normal" text-decoration="none" x="819.5" y="156.5">Junta o óleo na solução</text></g></g><g transform="translate(-134,-94) scale(1,1)"><path fill="none" stroke="#000000" d="M 769 232 L 1007 232" stroke-miterlimit="10"/></g><g transform="translate(-134,-94) scale(1,1)"><path fill="none" stroke="#000000" d="M 996.8373251423759 236.209517756016 L 1007 232 L 996.8373251423758 227.790482243984" stroke-miterlimit="10"/></g><g transform="translate(-134,-94) scale(1,1)"><g><path fill="none" stroke="none"/><text fill="#000000" stroke="none" font-family="Arial" font-size="13px" font-style="normal" font-weight="normal" text-decoration="none" x="782.5" y="225.5">Junta o EtOH na solução</text></g></g><g transform="translate(-134,-94) scale(1,1)"><path fill="none" stroke="#000000" d="M 771 295 L 1007 233" stroke-miterlimit="10"/></g><g transform="translate(-134,-94) scale(1,1)"><path fill="none" stroke="#000000" d="M 998.2404534132374 239.65359629030317 L 1007 233 L 996.1012621522297 231.51086826453175" stroke-miterlimit="10"/></g><g transform="translate(-134,-94) scale(1,1)"><g><path fill="none" stroke="none"/><text fill="#000000" stroke="none" font-family="Arial" font-size="13px" font-style="normal" font-weight="normal" text-decoration="none" x="814.5" y="305.5">Junta o NaOH na solução</text></g></g><g transform="translate(-134,-94) scale(1,1)"><path fill="#C0C0C0" stroke="none" d="M 1249 215 L 1360.87158203125 215 Q 1370.87158203125 215 1370.87158203125 225 L 1370.87158203125 252 Q 1370.87158203125 262 1360.87158203125 262 L 1249 262 Q 1239 262 1239 252 L 1239 225 Q 1239 215 1249 215 Z" opacity="0.2"/></g><g transform="translate(-134,-94) scale(1,1)"><path fill="#ffffff" stroke="none" d="M 1242 208 L 1353.87158203125 208 Q 1363.87158203125 208 1363.87158203125 218 L 1363.87158203125 245 Q 1363.87158203125 255 1353.87158203125 255 L 1242 255 Q 1232 255 1232 245 L 1232 218 Q 1232 208 1242 208 Z"/></g><g transform="translate(-134,-94) scale(1,1)"><path fill="none" stroke="#000000" d="M 1242 208 L 1353.87158203125 208 Q 1363.87158203125 208 1363.87158203125 218 L 1363.87158203125 245 Q 1363.87158203125 255 1353.87158203125 255 L 1242 255 Q 1232 255 1232 245 L 1232 218 Q 1232 208 1242 208 Z" stroke-miterlimit="10"/></g><g transform="translate(-134,-94) scale(1,1)"><path fill="none" stroke="#000000" d="M 1232 233 L 1363.87158203125 233" stroke-miterlimit="10"/></g><g transform="translate(-134,-94) scale(1,1)"><g><path fill="none" stroke="none"/><text fill="#000000" stroke="none" font-family="Arial" font-size="13px" font-style="normal" font-weight="bold" text-decoration="none" x="1253.50537109375" y="225.5">Acionar reator</text></g></g><g transform="translate(-134,-94) scale(1,1)"><g><path fill="none" stroke="none"/><text fill="#000000" stroke="none" font-family="Arial" font-size="13px" font-style="normal" font-weight="normal" text-decoration="none" x="1237" y="248.5">do/acionarReator()</text></g></g><g transform="translate(-134,-94) scale(1,1)"><path fill="none" stroke="#000000" d="M 1014 232 L 1231 231" stroke-miterlimit="10"/></g><g transform="translate(-134,-94) scale(1,1)"><path fill="none" stroke="#000000" d="M 1220.8568315432415 235.25630516502488 L 1231 231 L 1220.8180345565202 226.83735904649694" stroke-miterlimit="10"/></g><g transform="translate(-134,-94) scale(1,1)"><g><path fill="none" stroke="none"/><text fill="#000000" stroke="none" font-family="Arial" font-size="13px" font-style="normal" font-weight="normal" text-decoration="none" x="1034.5" y="220.5">Inicia o acionamento do reator</text></g></g><g transform="translate(-134,-94) scale(1,1)"><path fill="#C0C0C0" stroke="none" d="M 1295 368.5 L 1306.5 359 L 1317 368.5 L 1306.5 377 L 1295 368.5" opacity="0.2"/></g><g transform="translate(-134,-94) scale(1,1)"><path fill="#ffffff" stroke="none" d="M 1288 361 L 1299 352 L 1310 361 L 1299 370 L 1288 361"/></g><g transform="translate(-134,-94) scale(1,1)"><path fill="none" stroke="#000000" d="M 1288 361 L 1299 352 L 1310 361 L 1299 370 L 1288 361 L 1288 361" stroke-miterlimit="10"/></g><g transform="translate(-134,-94) scale(1,1)"><path fill="none" stroke="#000000" d="M 1297 256 L 1299 351" stroke-miterlimit="10"/></g><g transform="translate(-134,-94) scale(1,1)"><path fill="none" stroke="#000000" d="M 1294.577511138714 340.92817830420927 L 1299 351 L 1302.994681556458 340.7509747164673" stroke-miterlimit="10"/></g><g transform="translate(-134,-94) scale(1,1)"><g><path fill="none" stroke="none"/><text fill="#000000" stroke="none" font-family="Arial" font-size="13px" font-style="normal" font-weight="normal" text-decoration="none" x="1214.5" y="306.5">Verifica proporção dos compostos</text></g></g><g transform="translate(-134,-94) scale(1,1)"><path fill="#C0C0C0" stroke="none" d="M 1113 463 L 1212.55712890625 463 Q 1222.55712890625 463 1222.55712890625 473 L 1222.55712890625 509 Q 1222.55712890625 519 1212.55712890625 519 L 1113 519 Q 1103 519 1103 509 L 1103 473 Q 1103 463 1113 463 Z" opacity="0.2"/></g><g transform="translate(-134,-94) scale(1,1)"><path fill="#ffffff" stroke="none" d="M 1106 456 L 1205.55712890625 456 Q 1215.55712890625 456 1215.55712890625 466 L 1215.55712890625 502 Q 1215.55712890625 512 1205.55712890625 512 L 1106 512 Q 1096 512 1096 502 L 1096 466 Q 1096 456 1106 456 Z"/></g><g transform="translate(-134,-94) scale(1,1)"><path fill="none" stroke="#000000" d="M 1106 456 L 1205.55712890625 456 Q 1215.55712890625 456 1215.55712890625 466 L 1215.55712890625 502 Q 1215.55712890625 512 1205.55712890625 512 L 1106 512 Q 1096 512 1096 502 L 1096 466 Q 1096 456 1106 456 Z" stroke-miterlimit="10"/></g><g transform="translate(-134,-94) scale(1,1)"><g><path fill="none" stroke="none"/><text fill="#000000" stroke="none" font-family="Arial" font-size="13px" font-style="normal" font-weight="bold" text-decoration="none" x="1100.5" y="473.5">Processa solução</text></g></g><g transform="translate(-134,-94) scale(1,1)"><path fill="none" stroke="#000000" d="M 1287 371 L 1189 455" stroke-miterlimit="10"/></g><g transform="translate(-134,-94) scale(1,1)"><path fill="none" stroke="#000000" d="M 1193.976560141318 445.19011472239123 L 1189 455 L 1199.455595825368 451.58232302044945" stroke-miterlimit="10"/></g><g transform="translate(-134,-94) scale(1,1)"><g><path fill="none" stroke="none"/><text fill="#000000" stroke="none" font-family="Arial" font-size="13px" font-style="normal" font-weight="normal" text-decoration="none" x="1107.713134765625" y="409.5">Proporção correta</text></g></g><g transform="translate(-134,-94) scale(1,1)"><path fill="#C0C0C0" stroke="none" d="M 1353 463 L 1500.92626953125 463 Q 1510.92626953125 463 1510.92626953125 473 L 1510.92626953125 508 Q 1510.92626953125 518 1500.92626953125 518 L 1353 518 Q 1343 518 1343 508 L 1343 473 Q 1343 463 1353 463 Z" opacity="0.2"/></g><g transform="translate(-134,-94) scale(1,1)"><path fill="#ffffff" stroke="none" d="M 1346 456 L 1493.92626953125 456 Q 1503.92626953125 456 1503.92626953125 466 L 1503.92626953125 501 Q 1503.92626953125 511 1493.92626953125 511 L 1346 511 Q 1336 511 1336 501 L 1336 466 Q 1336 456 1346 456 Z"/></g><g transform="translate(-134,-94) scale(1,1)"><path fill="none" stroke="#000000" d="M 1346 456 L 1493.92626953125 456 Q 1503.92626953125 456 1503.92626953125 466 L 1503.92626953125 501 Q 1503.92626953125 511 1493.92626953125 511 L 1346 511 Q 1336 511 1336 501 L 1336 466 Q 1336 456 1346 456 Z" stroke-miterlimit="10"/></g><g transform="translate(-134,-94) scale(1,1)"><g><path fill="none" stroke="none"/><text fill="#000000" stroke="none" font-family="Arial" font-size="13px" font-style="normal" font-weight="bold" text-decoration="none" x="1340.5" y="473.5">Aguarda mais compostos</text></g></g><g transform="translate(-134,-94) scale(1,1)"><path fill="none" stroke="#000000" d="M 1309 371 L 1391 455" stroke-miterlimit="10"/></g><g transform="translate(-134,-94) scale(1,1)"><path fill="none" stroke="#000000" d="M 1380.8887760644639 450.6683547553569 L 1391 455 L 1386.9132207152682 444.787349262905" stroke-miterlimit="10"/></g><g transform="translate(-134,-94) scale(1,1)"><g><path fill="none" stroke="none"/><text fill="#000000" stroke="none" font-family="Arial" font-size="13px" font-style="normal" font-weight="normal" text-decoration="none" x="1353.5" y="405.5">Proporção incorreta</text></g></g><g transform="translate(-134,-94) scale(1,1)"><path fill="none" stroke="#000000" d="M 1505 481 L 1536 480 L 1536 232 L 1365 231" stroke-miterlimit="10"/></g><g transform="translate(-134,-94) scale(1,1)"><path fill="none" stroke="#000000" d="M 1375.1871177296518 226.84998405277602 L 1365 231 L 1375.137884445697 235.26887560906812" stroke-miterlimit="10"/></g><g transform="translate(-134,-94) scale(1,1)"><g><path fill="none" stroke="none"/><text fill="#000000" stroke="none" font-family="Arial" font-size="13px" font-style="normal" font-weight="normal" text-decoration="none" x="1390.5" y="218.5">Verifica novamente o acionamento do reator</text></g></g><g transform="translate(-134,-94) scale(1,1)"><path fill="none" stroke="#000000" d="M 1155 513 L 1156 639" stroke-miterlimit="10"/></g><g transform="translate(-134,-94) scale(1,1)"><path fill="none" stroke="#000000" d="M 1151.709961203014 628.87105301029 L 1156 639 L 1160.1287315778009 628.8042373723948" stroke-miterlimit="10"/></g><g transform="translate(-134,-94) scale(1,1)"><g><path fill="none" stroke="none"/><text fill="#000000" stroke="none" font-family="Arial" font-size="13px" font-style="normal" font-weight="normal" text-decoration="none" x="1166.5" y="579.5">Envia solução para o decantador</text></g></g></g></svg>