<svg version="1.1" xmlns="http://www.w3.org/2000/svg" xmlns:xlink="http://www.w3.org/1999/xlink" width="549" height="69"><defs/><g><text fill="#eeeeee" stroke="none" font-family="Arial" font-size="24px" font-style="normal" font-weight="normal" text-decoration="none" x="0" y="0">UNREGISTERED</text><text fill="#eeeeee" stroke="none" font-family="Arial" font-size="24px" font-style="normal" font-weight="normal" text-decoration="none" x="0" y="30">UNREGISTERED</text><text fill="#eeeeee" stroke="none" font-family="Arial" font-size="24px" font-style="normal" font-weight="normal" text-decoration="none" x="0" y="60">UNREGISTERED</text><text fill="#eeeeee" stroke="none" font-family="Arial" font-size="24px" font-style="normal" font-weight="normal" text-decoration="none" x="200" y="0">UNREGISTERED</text><text fill="#eeeeee" stroke="none" font-family="Arial" font-size="24px" font-style="normal" font-weight="normal" text-decoration="none" x="200" y="30">UNREGISTERED</text><text fill="#eeeeee" stroke="none" font-family="Arial" font-size="24px" font-style="normal" font-weight="normal" text-decoration="none" x="200" y="60">UNREGISTERED</text><text fill="#eeeeee" stroke="none" font-family="Arial" font-size="24px" font-style="normal" font-weight="normal" text-decoration="none" x="400" y="0">UNREGISTERED</text><text fill="#eeeeee" stroke="none" font-family="Arial" font-size="24px" font-style="normal" font-weight="normal" text-decoration="none" x="400" y="30">UNREGISTERED</text><text fill="#eeeeee" stroke="none" font-family="Arial" font-size="24px" font-style="normal" font-weight="normal" text-decoration="none" x="400" y="60">UNREGISTERED</text><g transform="translate(-206,-430) scale(1,1)"><path fill="#C0C0C0" stroke="none" d="M 223 456.5 C 223 451.2532944 227.2532944 447 232.5 447 C 237.7467056 447 242 451.2532944 242 456.5 C 242 461.7467056 237.7467056 466 232.5 466 C 227.2532944 466 223 461.7467056 223 456.5 Z" opacity="0.2"/></g><g transform="translate(-206,-430) scale(1,1)"><path fill="#000000" stroke="none" d="M 216 449.5 C 216 444.2532944 220.2532944 440 225.5 440 C 230.7467056 440 235 444.2532944 235 449.5 C 235 454.7467056 230.7467056 459 225.5 459 C 220.2532944 459 216 454.7467056 216 449.5 Z"/></g><g transform="translate(-206,-430) scale(1,1)"><path fill="#C0C0C0" stroke="none" d="M 727 483.5 C 727 476.59644 732.59644 471 739.5 471 C 746.40356 471 752 476.59644 752 483.5 C 752 490.40356 746.40356 496 739.5 496 C 732.59644 496 727 490.40356 727 483.5 Z" opacity="0.2"/></g><g transform="translate(-206,-430) scale(1,1)"><path fill="none" stroke="#000000" d="M 720 476.5 C 720 469.59644 725.59644 464 732.5 464 C 739.40356 464 745 469.59644 745 476.5 C 745 483.40356 739.40356 489 732.5 489 C 725.59644 489 720 483.40356 720 476.5 Z" stroke-miterlimit="10"/></g><g transform="translate(-206,-430) scale(1,1)"><path fill="#000000" stroke="none" d="M 725 476.5 C 725 472.357864 728.357864 469 732.5 469 C 736.642136 469 740 472.357864 740 476.5 C 740 480.642136 736.642136 484 732.5 484 C 728.357864 484 725 480.642136 725 476.5 Z"/></g><g transform="translate(-206,-430) scale(1,1)"><path fill="none" stroke="#000000" d="M 236 450 L 719 475" stroke-miterlimit="10"/></g><g transform="translate(-206,-430) scale(1,1)"><path fill="none" stroke="#000000" d="M 708.6333184990605 478.6785750852848 L 719 475 L 709.0685038243757 470.27079460019326" stroke-miterlimit="10"/></g></g></svg>