<svg version="1.1" xmlns="http://www.w3.org/2000/svg" xmlns:xlink="http://www.w3.org/1999/xlink" width="797" height="82"><defs/><g><text fill="#eeeeee" stroke="none" font-family="Arial" font-size="24px" font-style="normal" font-weight="normal" text-decoration="none" x="0" y="0">UNREGISTERED</text><text fill="#eeeeee" stroke="none" font-family="Arial" font-size="24px" font-style="normal" font-weight="normal" text-decoration="none" x="0" y="30">UNREGISTERED</text><text fill="#eeeeee" stroke="none" font-family="Arial" font-size="24px" font-style="normal" font-weight="normal" text-decoration="none" x="0" y="60">UNREGISTERED</text><text fill="#eeeeee" stroke="none" font-family="Arial" font-size="24px" font-style="normal" font-weight="normal" text-decoration="none" x="200" y="0">UNREGISTERED</text><text fill="#eeeeee" stroke="none" font-family="Arial" font-size="24px" font-style="normal" font-weight="normal" text-decoration="none" x="200" y="30">UNREGISTERED</text><text fill="#eeeeee" stroke="none" font-family="Arial" font-size="24px" font-style="normal" font-weight="normal" text-decoration="none" x="200" y="60">UNREGISTERED</text><text fill="#eeeeee" stroke="none" font-family="Arial" font-size="24px" font-style="normal" font-weight="normal" text-decoration="none" x="400" y="0">UNREGISTERED</text><text fill="#eeeeee" stroke="none" font-family="Arial" font-size="24px" font-style="normal" font-weight="normal" text-decoration="none" x="400" y="30">UNREGISTERED</text><text fill="#eeeeee" stroke="none" font-family="Arial" font-size="24px" font-style="normal" font-weight="normal" text-decoration="none" x="400" y="60">UNREGISTERED</text><text fill="#eeeeee" stroke="none" font-family="Arial" font-size="24px" font-style="normal" font-weight="normal" text-decoration="none" x="600" y="0">UNREGISTERED</text><text fill="#eeeeee" stroke="none" font-family="Arial" font-size="24px" font-style="normal" font-weight="normal" text-decoration="none" x="600" y="30">UNREGISTERED</text><text fill="#eeeeee" stroke="none" font-family="Arial" font-size="24px" font-style="normal" font-weight="normal" text-decoration="none" x="600" y="60">UNREGISTERED</text><g transform="translate(-206,-406) scale(1,1)"><path fill="#C0C0C0" stroke="none" d="M 223 456.5 C 223 451.2532944 227.2532944 447 232.5 447 C 237.7467056 447 242 451.2532944 242 456.5 C 242 461.7467056 237.7467056 466 232.5 466 C 227.2532944 466 223 461.7467056 223 456.5 Z" opacity="0.2"/></g><g transform="translate(-206,-406) scale(1,1)"><path fill="#000000" stroke="none" d="M 216 449.5 C 216 444.2532944 220.2532944 440 225.5 440 C 230.7467056 440 235 444.2532944 235 449.5 C 235 454.7467056 230.7467056 459 225.5 459 C 220.2532944 459 216 454.7467056 216 449.5 Z"/></g><g transform="translate(-206,-406) scale(1,1)"><path fill="#C0C0C0" stroke="none" d="M 975 451.5 C 975 444.59644 980.59644 439 987.5 439 C 994.40356 439 1000 444.59644 1000 451.5 C 1000 458.40356 994.40356 464 987.5 464 C 980.59644 464 975 458.40356 975 451.5 Z" opacity="0.2"/></g><g transform="translate(-206,-406) scale(1,1)"><path fill="none" stroke="#000000" d="M 968 444.5 C 968 437.59644 973.59644 432 980.5 432 C 987.40356 432 993 437.59644 993 444.5 C 993 451.40356 987.40356 457 980.5 457 C 973.59644 457 968 451.40356 968 444.5 Z" stroke-miterlimit="10"/></g><g transform="translate(-206,-406) scale(1,1)"><path fill="#000000" stroke="none" d="M 973 444.5 C 973 440.357864 976.357864 437 980.5 437 C 984.642136 437 988 440.357864 988 444.5 C 988 448.642136 984.642136 452 980.5 452 C 976.357864 452 973 448.642136 973 444.5 Z"/></g><g transform="translate(-206,-406) scale(1,1)"><path fill="#C0C0C0" stroke="none" d="M 553 423 L 684 423 Q 694 423 694 433 L 694 475 Q 694 485 684 485 L 553 485 Q 543 485 543 475 L 543 433 Q 543 423 553 423 Z" opacity="0.2"/></g><g transform="translate(-206,-406) scale(1,1)"><path fill="#ffffff" stroke="none" d="M 546 416 L 677 416 Q 687 416 687 426 L 687 468 Q 687 478 677 478 L 546 478 Q 536 478 536 468 L 536 426 Q 536 416 546 416 Z"/></g><g transform="translate(-206,-406) scale(1,1)"><path fill="none" stroke="#000000" d="M 546 416 L 677 416 Q 687 416 687 426 L 687 468 Q 687 478 677 478 L 546 478 Q 536 478 536 468 L 536 426 Q 536 416 546 416 Z" stroke-miterlimit="10"/></g><g transform="translate(-206,-406) scale(1,1)"><path fill="none" stroke="#000000" d="M 536 441 L 687 441" stroke-miterlimit="10"/></g><g transform="translate(-206,-406) scale(1,1)"><g><path fill="none" stroke="none"/><text fill="#000000" stroke="none" font-family="Arial" font-size="13px" font-style="normal" font-weight="bold" text-decoration="none" x="568.529541015625" y="433.5">Filtrando óleo</text></g></g><g transform="translate(-206,-406) scale(1,1)"><g><path fill="none" stroke="none"/><text fill="#000000" stroke="none" font-family="Arial" font-size="13px" font-style="normal" font-weight="normal" text-decoration="none" x="541" y="456.5">do/filtraOleo()</text></g></g><g transform="translate(-206,-406) scale(1,1)"><g><path fill="none" stroke="none"/><text fill="#000000" stroke="none" font-family="Arial" font-size="13px" font-style="normal" font-weight="normal" text-decoration="none" x="541" y="471.5">exit/enviaOleo()</text></g></g><g transform="translate(-206,-406) scale(1,1)"><path fill="none" stroke="#000000" d="M 236 449 L 535 447" stroke-miterlimit="10"/></g><g transform="translate(-206,-406) scale(1,1)"><path fill="none" stroke="#000000" d="M 524.8657091646246 451.2773998251304 L 535 447 L 524.8093958055935 442.8585526499852" stroke-miterlimit="10"/></g><g transform="translate(-206,-406) scale(1,1)"><g><path fill="none" stroke="none"/><text fill="#000000" stroke="none" font-family="Arial" font-size="13px" font-style="normal" font-weight="normal" text-decoration="none" x="295.5" y="437.5">Recebe óleo residual da fritura</text></g></g><g transform="translate(-206,-406) scale(1,1)"><path fill="none" stroke="#000000" d="M 688 446 L 967 444" stroke-miterlimit="10"/></g><g transform="translate(-206,-406) scale(1,1)"><path fill="none" stroke="#000000" d="M 956.8677612252253 448.2822584474727 L 967 444 L 956.8074112667542 439.86343924075686" stroke-miterlimit="10"/></g><g transform="translate(-206,-406) scale(1,1)"><g><path fill="none" stroke="none"/><text fill="#000000" stroke="none" font-family="Arial" font-size="13px" font-style="normal" font-weight="normal" text-decoration="none" x="726.5" y="434.5">Envia o óleo filtrado para o tanque</text></g></g></g></svg>