<svg version="1.1" xmlns="http://www.w3.org/2000/svg" xmlns:xlink="http://www.w3.org/1999/xlink" width="685" height="69"><defs/><g><text fill="#eeeeee" stroke="none" font-family="Arial" font-size="24px" font-style="normal" font-weight="normal" text-decoration="none" x="0" y="0">UNREGISTERED</text><text fill="#eeeeee" stroke="none" font-family="Arial" font-size="24px" font-style="normal" font-weight="normal" text-decoration="none" x="0" y="30">UNREGISTERED</text><text fill="#eeeeee" stroke="none" font-family="Arial" font-size="24px" font-style="normal" font-weight="normal" text-decoration="none" x="0" y="60">UNREGISTERED</text><text fill="#eeeeee" stroke="none" font-family="Arial" font-size="24px" font-style="normal" font-weight="normal" text-decoration="none" x="200" y="0">UNREGISTERED</text><text fill="#eeeeee" stroke="none" font-family="Arial" font-size="24px" font-style="normal" font-weight="normal" text-decoration="none" x="200" y="30">UNREGISTERED</text><text fill="#eeeeee" stroke="none" font-family="Arial" font-size="24px" font-style="normal" font-weight="normal" text-decoration="none" x="200" y="60">UNREGISTERED</text><text fill="#eeeeee" stroke="none" font-family="Arial" font-size="24px" font-style="normal" font-weight="normal" text-decoration="none" x="400" y="0">UNREGISTERED</text><text fill="#eeeeee" stroke="none" font-family="Arial" font-size="24px" font-style="normal" font-weight="normal" text-decoration="none" x="400" y="30">UNREGISTERED</text><text fill="#eeeeee" stroke="none" font-family="Arial" font-size="24px" font-style="normal" font-weight="normal" text-decoration="none" x="400" y="60">UNREGISTERED</text><text fill="#eeeeee" stroke="none" font-family="Arial" font-size="24px" font-style="normal" font-weight="normal" text-decoration="none" x="600" y="0">UNREGISTERED</text><text fill="#eeeeee" stroke="none" font-family="Arial" font-size="24px" font-style="normal" font-weight="normal" text-decoration="none" x="600" y="30">UNREGISTERED</text><text fill="#eeeeee" stroke="none" font-family="Arial" font-size="24px" font-style="normal" font-weight="normal" text-decoration="none" x="600" y="60">UNREGISTERED</text><g transform="translate(-118,-212) scale(1,1)"><path fill="#C0C0C0" stroke="none" d="M 135 248.5 C 135 243.2532944 139.2532944 239 144.5 239 C 149.7467056 239 154 243.2532944 154 248.5 C 154 253.7467056 149.7467056 258 144.5 258 C 139.2532944 258 135 253.7467056 135 248.5 Z" opacity="0.2"/></g><g transform="translate(-118,-212) scale(1,1)"><path fill="#000000" stroke="none" d="M 128 241.5 C 128 236.2532944 132.2532944 232 137.5 232 C 142.7467056 232 147 236.2532944 147 241.5 C 147 246.7467056 142.7467056 251 137.5 251 C 132.2532944 251 128 246.7467056 128 241.5 Z"/></g><g transform="translate(-118,-212) scale(1,1)"><path fill="#C0C0C0" stroke="none" d="M 775 259.5 C 775 252.59644 780.59644 247 787.5 247 C 794.40356 247 800 252.59644 800 259.5 C 800 266.40356 794.40356 272 787.5 272 C 780.59644 272 775 266.40356 775 259.5 Z" opacity="0.2"/></g><g transform="translate(-118,-212) scale(1,1)"><path fill="none" stroke="#000000" d="M 768 252.5 C 768 245.59644 773.59644 240 780.5 240 C 787.40356 240 793 245.59644 793 252.5 C 793 259.40356 787.40356 265 780.5 265 C 773.59644 265 768 259.40356 768 252.5 Z" stroke-miterlimit="10"/></g><g transform="translate(-118,-212) scale(1,1)"><path fill="#000000" stroke="none" d="M 773 252.5 C 773 248.357864 776.357864 245 780.5 245 C 784.642136 245 788 248.357864 788 252.5 C 788 256.642136 784.642136 260 780.5 260 C 776.357864 260 773 256.642136 773 252.5 Z"/></g><g transform="translate(-118,-212) scale(1,1)"><path fill="#C0C0C0" stroke="none" d="M 433 231 L 550.6416015625 231 Q 560.6416015625 231 560.6416015625 241 L 560.6416015625 268 Q 560.6416015625 278 550.6416015625 278 L 433 278 Q 423 278 423 268 L 423 241 Q 423 231 433 231 Z" opacity="0.2"/></g><g transform="translate(-118,-212) scale(1,1)"><path fill="#ffffff" stroke="none" d="M 426 224 L 543.6416015625 224 Q 553.6416015625 224 553.6416015625 234 L 553.6416015625 261 Q 553.6416015625 271 543.6416015625 271 L 426 271 Q 416 271 416 261 L 416 234 Q 416 224 426 224 Z"/></g><g transform="translate(-118,-212) scale(1,1)"><path fill="none" stroke="#000000" d="M 426 224 L 543.6416015625 224 Q 553.6416015625 224 553.6416015625 234 L 553.6416015625 261 Q 553.6416015625 271 543.6416015625 271 L 426 271 Q 416 271 416 261 L 416 234 Q 416 224 426 224 Z" stroke-miterlimit="10"/></g><g transform="translate(-118,-212) scale(1,1)"><path fill="none" stroke="#000000" d="M 416 249 L 553.6416015625 249" stroke-miterlimit="10"/></g><g transform="translate(-118,-212) scale(1,1)"><g><path fill="none" stroke="none"/><text fill="#000000" stroke="none" font-family="Arial" font-size="13px" font-style="normal" font-weight="bold" text-decoration="none" x="425.21630859375" y="243">Óleo é armazenado</text></g></g><g transform="translate(-118,-212) scale(1,1)"><g><path fill="none" stroke="none"/><text fill="#000000" stroke="none" font-family="Arial" font-size="13px" font-style="normal" font-weight="normal" text-decoration="none" x="421" y="264.5">exit/enviaOleo()</text></g></g><g transform="translate(-118,-212) scale(1,1)"><path fill="none" stroke="#000000" d="M 148 241 L 415 246" stroke-miterlimit="10"/></g><g transform="translate(-118,-212) scale(1,1)"><path fill="none" stroke="#000000" d="M 404.7602905219513 250.01850094004703 L 415 246 L 404.9179227257798 241.60094125560335" stroke-miterlimit="10"/></g><g transform="translate(-118,-212) scale(1,1)"><g><path fill="none" stroke="none"/><text fill="#000000" stroke="none" font-family="Arial" font-size="13px" font-style="normal" font-weight="normal" text-decoration="none" x="223.5" y="232.5">Recebe óleo filtrado</text></g></g><g transform="translate(-118,-212) scale(1,1)"><path fill="none" stroke="#000000" d="M 555 248 L 767 252" stroke-miterlimit="10"/></g><g transform="translate(-118,-212) scale(1,1)"><path fill="none" stroke="#000000" d="M 756.759722878895 256.0170542046347 L 767 252 L 756.9185443379461 247.59951687492833" stroke-miterlimit="10"/></g><g transform="translate(-118,-212) scale(1,1)"><g><path fill="none" stroke="none"/><text fill="#000000" stroke="none" font-family="Arial" font-size="13px" font-style="normal" font-weight="normal" text-decoration="none" x="592.5" y="239.5">envia óleo para o reator</text></g></g></g></svg>