<svg version="1.1" xmlns="http://www.w3.org/2000/svg" xmlns:xlink="http://www.w3.org/1999/xlink" width="685" height="45"><defs/><g><text fill="#eeeeee" stroke="none" font-family="Arial" font-size="24px" font-style="normal" font-weight="normal" text-decoration="none" x="0" y="0">UNREGISTERED</text><text fill="#eeeeee" stroke="none" font-family="Arial" font-size="24px" font-style="normal" font-weight="normal" text-decoration="none" x="0" y="30">UNREGISTERED</text><text fill="#eeeeee" stroke="none" font-family="Arial" font-size="24px" font-style="normal" font-weight="normal" text-decoration="none" x="200" y="0">UNREGISTERED</text><text fill="#eeeeee" stroke="none" font-family="Arial" font-size="24px" font-style="normal" font-weight="normal" text-decoration="none" x="200" y="30">UNREGISTERED</text><text fill="#eeeeee" stroke="none" font-family="Arial" font-size="24px" font-style="normal" font-weight="normal" text-decoration="none" x="400" y="0">UNREGISTERED</text><text fill="#eeeeee" stroke="none" font-family="Arial" font-size="24px" font-style="normal" font-weight="normal" text-decoration="none" x="400" y="30">UNREGISTERED</text><text fill="#eeeeee" stroke="none" font-family="Arial" font-size="24px" font-style="normal" font-weight="normal" text-decoration="none" x="600" y="0">UNREGISTERED</text><text fill="#eeeeee" stroke="none" font-family="Arial" font-size="24px" font-style="normal" font-weight="normal" text-decoration="none" x="600" y="30">UNREGISTERED</text><g transform="translate(-118,-222) scale(1,1)"><path fill="#C0C0C0" stroke="none" d="M 135 248.5 C 135 243.2532944 139.2532944 239 144.5 239 C 149.7467056 239 154 243.2532944 154 248.5 C 154 253.7467056 149.7467056 258 144.5 258 C 139.2532944 258 135 253.7467056 135 248.5 Z" opacity="0.2"/></g><g transform="translate(-118,-222) scale(1,1)"><path fill="#000000" stroke="none" d="M 128 241.5 C 128 236.2532944 132.2532944 232 137.5 232 C 142.7467056 232 147 236.2532944 147 241.5 C 147 246.7467056 142.7467056 251 137.5 251 C 132.2532944 251 128 246.7467056 128 241.5 Z"/></g><g transform="translate(-118,-222) scale(1,1)"><path fill="#C0C0C0" stroke="none" d="M 775 251.5 C 775 244.59644 780.59644 239 787.5 239 C 794.40356 239 800 244.59644 800 251.5 C 800 258.40356 794.40356 264 787.5 264 C 780.59644 264 775 258.40356 775 251.5 Z" opacity="0.2"/></g><g transform="translate(-118,-222) scale(1,1)"><path fill="none" stroke="#000000" d="M 768 244.5 C 768 237.59644 773.59644 232 780.5 232 C 787.40356 232 793 237.59644 793 244.5 C 793 251.40356 787.40356 257 780.5 257 C 773.59644 257 768 251.40356 768 244.5 Z" stroke-miterlimit="10"/></g><g transform="translate(-118,-222) scale(1,1)"><path fill="#000000" stroke="none" d="M 773 244.5 C 773 240.357864 776.357864 237 780.5 237 C 784.642136 237 788 240.357864 788 244.5 C 788 248.642136 784.642136 252 780.5 252 C 776.357864 252 773 248.642136 773 244.5 Z"/></g><g transform="translate(-118,-222) scale(1,1)"><path fill="none" stroke="#000000" d="M 148 241 L 767 244" stroke-miterlimit="10"/></g><g transform="translate(-118,-222) scale(1,1)"><path fill="none" stroke="#000000" d="M 756.8170431944835 248.16021522243565 L 767 244 L 756.8578457953098 239.74127858526933" stroke-miterlimit="10"/></g></g></svg>