<svg version="1.1" xmlns="http://www.w3.org/2000/svg" xmlns:xlink="http://www.w3.org/1999/xlink" width="485" height="79"><defs/><g><text fill="#eeeeee" stroke="none" font-family="Arial" font-size="24px" font-style="normal" font-weight="normal" text-decoration="none" x="0" y="0">UNREGISTERED</text><text fill="#eeeeee" stroke="none" font-family="Arial" font-size="24px" font-style="normal" font-weight="normal" text-decoration="none" x="0" y="30">UNREGISTERED</text><text fill="#eeeeee" stroke="none" font-family="Arial" font-size="24px" font-style="normal" font-weight="normal" text-decoration="none" x="0" y="60">UNREGISTERED</text><text fill="#eeeeee" stroke="none" font-family="Arial" font-size="24px" font-style="normal" font-weight="normal" text-decoration="none" x="200" y="0">UNREGISTERED</text><text fill="#eeeeee" stroke="none" font-family="Arial" font-size="24px" font-style="normal" font-weight="normal" text-decoration="none" x="200" y="30">UNREGISTERED</text><text fill="#eeeeee" stroke="none" font-family="Arial" font-size="24px" font-style="normal" font-weight="normal" text-decoration="none" x="200" y="60">UNREGISTERED</text><text fill="#eeeeee" stroke="none" font-family="Arial" font-size="24px" font-style="normal" font-weight="normal" text-decoration="none" x="400" y="0">UNREGISTERED</text><text fill="#eeeeee" stroke="none" font-family="Arial" font-size="24px" font-style="normal" font-weight="normal" text-decoration="none" x="400" y="30">UNREGISTERED</text><text fill="#eeeeee" stroke="none" font-family="Arial" font-size="24px" font-style="normal" font-weight="normal" text-decoration="none" x="400" y="60">UNREGISTERED</text><g transform="translate(-286,-782) scale(1,1)"><path fill="#C0C0C0" stroke="none" d="M 303 848.5 C 303 843.2532944 307.2532944 839 312.5 839 C 317.7467056 839 322 843.2532944 322 848.5 C 322 853.7467056 317.7467056 858 312.5 858 C 307.2532944 858 303 853.7467056 303 848.5 Z" opacity="0.2"/></g><g transform="translate(-286,-782) scale(1,1)"><path fill="#000000" stroke="none" d="M 296 841.5 C 296 836.2532944 300.2532944 832 305.5 832 C 310.7467056 832 315 836.2532944 315 841.5 C 315 846.7467056 310.7467056 851 305.5 851 C 300.2532944 851 296 846.7467056 296 841.5 Z"/></g><g transform="translate(-286,-782) scale(1,1)"><path fill="#C0C0C0" stroke="none" d="M 743 811.5 C 743 804.59644 748.59644 799 755.5 799 C 762.40356 799 768 804.59644 768 811.5 C 768 818.40356 762.40356 824 755.5 824 C 748.59644 824 743 818.40356 743 811.5 Z" opacity="0.2"/></g><g transform="translate(-286,-782) scale(1,1)"><path fill="none" stroke="#000000" d="M 736 804.5 C 736 797.59644 741.59644 792 748.5 792 C 755.40356 792 761 797.59644 761 804.5 C 761 811.40356 755.40356 817 748.5 817 C 741.59644 817 736 811.40356 736 804.5 Z" stroke-miterlimit="10"/></g><g transform="translate(-286,-782) scale(1,1)"><path fill="#000000" stroke="none" d="M 741 804.5 C 741 800.357864 744.357864 797 748.5 797 C 752.642136 797 756 800.357864 756 804.5 C 756 808.642136 752.642136 812 748.5 812 C 744.357864 812 741 808.642136 741 804.5 Z"/></g><g transform="translate(-286,-782) scale(1,1)"><path fill="none" stroke="#000000" d="M 316 840 L 735 805" stroke-miterlimit="10"/></g><g transform="translate(-286,-782) scale(1,1)"><path fill="none" stroke="#000000" d="M 725.2230063390463 810.040872439734 L 735 805 L 724.5221863974895 801.651056567954" stroke-miterlimit="10"/></g></g></svg>