<svg version="1.1" xmlns="http://www.w3.org/2000/svg" xmlns:xlink="http://www.w3.org/1999/xlink" width="1124.994140625" height="259"><defs/><g><text fill="#eeeeee" stroke="none" font-family="Arial" font-size="24px" font-style="normal" font-weight="normal" text-decoration="none" x="0" y="0">UNREGISTERED</text><text fill="#eeeeee" stroke="none" font-family="Arial" font-size="24px" font-style="normal" font-weight="normal" text-decoration="none" x="0" y="30">UNREGISTERED</text><text fill="#eeeeee" stroke="none" font-family="Arial" font-size="24px" font-style="normal" font-weight="normal" text-decoration="none" x="0" y="60">UNREGISTERED</text><text fill="#eeeeee" stroke="none" font-family="Arial" font-size="24px" font-style="normal" font-weight="normal" text-decoration="none" x="0" y="90">UNREGISTERED</text><text fill="#eeeeee" stroke="none" font-family="Arial" font-size="24px" font-style="normal" font-weight="normal" text-decoration="none" x="0" y="120">UNREGISTERED</text><text fill="#eeeeee" stroke="none" font-family="Arial" font-size="24px" font-style="normal" font-weight="normal" text-decoration="none" x="0" y="150">UNREGISTERED</text><text fill="#eeeeee" stroke="none" font-family="Arial" font-size="24px" font-style="normal" font-weight="normal" text-decoration="none" x="0" y="180">UNREGISTERED</text><text fill="#eeeeee" stroke="none" font-family="Arial" font-size="24px" font-style="normal" font-weight="normal" text-decoration="none" x="0" y="210">UNREGISTERED</text><text fill="#eeeeee" stroke="none" font-family="Arial" font-size="24px" font-style="normal" font-weight="normal" text-decoration="none" x="0" y="240">UNREGISTERED</text><text fill="#eeeeee" stroke="none" font-family="Arial" font-size="24px" font-style="normal" font-weight="normal" text-decoration="none" x="200" y="0">UNREGISTERED</text><text fill="#eeeeee" stroke="none" font-family="Arial" font-size="24px" font-style="normal" font-weight="normal" text-decoration="none" x="200" y="30">UNREGISTERED</text><text fill="#eeeeee" stroke="none" font-family="Arial" font-size="24px" font-style="normal" font-weight="normal" text-decoration="none" x="200" y="60">UNREGISTERED</text><text fill="#eeeeee" stroke="none" font-family="Arial" font-size="24px" font-style="normal" font-weight="normal" text-decoration="none" x="200" y="90">UNREGISTERED</text><text fill="#eeeeee" stroke="none" font-family="Arial" font-size="24px" font-style="normal" font-weight="normal" text-decoration="none" x="200" y="120">UNREGISTERED</text><text fill="#eeeeee" stroke="none" font-family="Arial" font-size="24px" font-style="normal" font-weight="normal" text-decoration="none" x="200" y="150">UNREGISTERED</text><text fill="#eeeeee" stroke="none" font-family="Arial" font-size="24px" font-style="normal" font-weight="normal" text-decoration="none" x="200" y="180">UNREGISTERED</text><text fill="#eeeeee" stroke="none" font-family="Arial" font-size="24px" font-style="normal" font-weight="normal" text-decoration="none" x="200" y="210">UNREGISTERED</text><text fill="#eeeeee" stroke="none" font-family="Arial" font-size="24px" font-style="normal" font-weight="normal" text-decoration="none" x="200" y="240">UNREGISTERED</text><text fill="#eeeeee" stroke="none" font-family="Arial" font-size="24px" font-style="normal" font-weight="normal" text-decoration="none" x="400" y="0">UNREGISTERED</text><text fill="#eeeeee" stroke="none" font-family="Arial" font-size="24px" font-style="normal" font-weight="normal" text-decoration="none" x="400" y="30">UNREGISTERED</text><text fill="#eeeeee" stroke="none" font-family="Arial" font-size="24px" font-style="normal" font-weight="normal" text-decoration="none" x="400" y="60">UNREGISTERED</text><text fill="#eeeeee" stroke="none" font-family="Arial" font-size="24px" font-style="normal" font-weight="normal" text-decoration="none" x="400" y="90">UNREGISTERED</text><text fill="#eeeeee" stroke="none" font-family="Arial" font-size="24px" font-style="normal" font-weight="normal" text-decoration="none" x="400" y="120">UNREGISTERED</text><text fill="#eeeeee" stroke="none" font-family="Arial" font-size="24px" font-style="normal" font-weight="normal" text-decoration="none" x="400" y="150">UNREGISTERED</text><text fill="#eeeeee" stroke="none" font-family="Arial" font-size="24px" font-style="normal" font-weight="normal" text-decoration="none" x="400" y="180">UNREGISTERED</text><text fill="#eeeeee" stroke="none" font-family="Arial" font-size="24px" font-style="normal" font-weight="normal" text-decoration="none" x="400" y="210">UNREGISTERED</text><text fill="#eeeeee" stroke="none" font-family="Arial" font-size="24px" font-style="normal" font-weight="normal" text-decoration="none" x="400" y="240">UNREGISTERED</text><text fill="#eeeeee" stroke="none" font-family="Arial" font-size="24px" font-style="normal" font-weight="normal" text-decoration="none" x="600" y="0">UNREGISTERED</text><text fill="#eeeeee" stroke="none" font-family="Arial" font-size="24px" font-style="normal" font-weight="normal" text-decoration="none" x="600" y="30">UNREGISTERED</text><text fill="#eeeeee" stroke="none" font-family="Arial" font-size="24px" font-style="normal" font-weight="normal" text-decoration="none" x="600" y="60">UNREGISTERED</text><text fill="#eeeeee" stroke="none" font-family="Arial" font-size="24px" font-style="normal" font-weight="normal" text-decoration="none" x="600" y="90">UNREGISTERED</text><text fill="#eeeeee" stroke="none" font-family="Arial" font-size="24px" font-style="normal" font-weight="normal" text-decoration="none" x="600" y="120">UNREGISTERED</text><text fill="#eeeeee" stroke="none" font-family="Arial" font-size="24px" font-style="normal" font-weight="normal" text-decoration="none" x="600" y="150">UNREGISTERED</text><text fill="#eeeeee" stroke="none" font-family="Arial" font-size="24px" font-style="normal" font-weight="normal" text-decoration="none" x="600" y="180">UNREGISTERED</text><text fill="#eeeeee" stroke="none" font-family="Arial" font-size="24px" font-style="normal" font-weight="normal" text-decoration="none" x="600" y="210">UNREGISTERED</text><text fill="#eeeeee" stroke="none" font-family="Arial" font-size="24px" font-style="normal" font-weight="normal" text-decoration="none" x="600" y="240">UNREGISTERED</text><text fill="#eeeeee" stroke="none" font-family="Arial" font-size="24px" font-style="normal" font-weight="normal" text-decoration="none" x="800" y="0">UNREGISTERED</text><text fill="#eeeeee" stroke="none" font-family="Arial" font-size="24px" font-style="normal" font-weight="normal" text-decoration="none" x="800" y="30">UNREGISTERED</text><text fill="#eeeeee" stroke="none" font-family="Arial" font-size="24px" font-style="normal" font-weight="normal" text-decoration="none" x="800" y="60">UNREGISTERED</text><text fill="#eeeeee" stroke="none" font-family="Arial" font-size="24px" font-style="normal" font-weight="normal" text-decoration="none" x="800" y="90">UNREGISTERED</text><text fill="#eeeeee" stroke="none" font-family="Arial" font-size="24px" font-style="normal" font-weight="normal" text-decoration="none" x="800" y="120">UNREGISTERED</text><text fill="#eeeeee" stroke="none" font-family="Arial" font-size="24px" font-style="normal" font-weight="normal" text-decoration="none" x="800" y="150">UNREGISTERED</text><text fill="#eeeeee" stroke="none" font-family="Arial" font-size="24px" font-style="normal" font-weight="normal" text-decoration="none" x="800" y="180">UNREGISTERED</text><text fill="#eeeeee" stroke="none" font-family="Arial" font-size="24px" font-style="normal" font-weight="normal" text-decoration="none" x="800" y="210">UNREGISTERED</text><text fill="#eeeeee" stroke="none" font-family="Arial" font-size="24px" font-style="normal" font-weight="normal" text-decoration="none" x="800" y="240">UNREGISTERED</text><text fill="#eeeeee" stroke="none" font-family="Arial" font-size="24px" font-style="normal" font-weight="normal" text-decoration="none" x="1000" y="0">UNREGISTERED</text><text fill="#eeeeee" stroke="none" font-family="Arial" font-size="24px" font-style="normal" font-weight="normal" text-decoration="none" x="1000" y="30">UNREGISTERED</text><text fill="#eeeeee" stroke="none" font-family="Arial" font-size="24px" font-style="normal" font-weight="normal" text-decoration="none" x="1000" y="60">UNREGISTERED</text><text fill="#eeeeee" stroke="none" font-family="Arial" font-size="24px" font-style="normal" font-weight="normal" text-decoration="none" x="1000" y="90">UNREGISTERED</text><text fill="#eeeeee" stroke="none" font-family="Arial" font-size="24px" font-style="normal" font-weight="normal" text-decoration="none" x="1000" y="120">UNREGISTERED</text><text fill="#eeeeee" stroke="none" font-family="Arial" font-size="24px" font-style="normal" font-weight="normal" text-decoration="none" x="1000" y="150">UNREGISTERED</text><text fill="#eeeeee" stroke="none" font-family="Arial" font-size="24px" font-style="normal" font-weight="normal" text-decoration="none" x="1000" y="180">UNREGISTERED</text><text fill="#eeeeee" stroke="none" font-family="Arial" font-size="24px" font-style="normal" font-weight="normal" text-decoration="none" x="1000" y="210">UNREGISTERED</text><text fill="#eeeeee" stroke="none" font-family="Arial" font-size="24px" font-style="normal" font-weight="normal" text-decoration="none" x="1000" y="240">UNREGISTERED</text><g transform="translate(-134,-230) scale(1,1)"><path fill="#C0C0C0" stroke="none" d="M 151 296.5 C 151 291.2532944 155.2532944 287 160.5 287 C 165.7467056 287 170 291.2532944 170 296.5 C 170 301.7467056 165.7467056 306 160.5 306 C 155.2532944 306 151 301.7467056 151 296.5 Z" opacity="0.2"/></g><g transform="translate(-134,-230) scale(1,1)"><path fill="#000000" stroke="none" d="M 144 289.5 C 144 284.2532944 148.2532944 280 153.5 280 C 158.7467056 280 163 284.2532944 163 289.5 C 163 294.7467056 158.7467056 299 153.5 299 C 148.2532944 299 144 294.7467056 144 289.5 Z"/></g><g transform="translate(-134,-230) scale(1,1)"><path fill="#C0C0C0" stroke="none" d="M 1183 387.5 C 1183 380.59644 1188.59644 375 1195.5 375 C 1202.40356 375 1208 380.59644 1208 387.5 C 1208 394.40356 1202.40356 400 1195.5 400 C 1188.59644 400 1183 394.40356 1183 387.5 Z" opacity="0.2"/></g><g transform="translate(-134,-230) scale(1,1)"><path fill="none" stroke="#000000" d="M 1176 380.5 C 1176 373.59644 1181.59644 368 1188.5 368 C 1195.40356 368 1201 373.59644 1201 380.5 C 1201 387.40356 1195.40356 393 1188.5 393 C 1181.59644 393 1176 387.40356 1176 380.5 Z" stroke-miterlimit="10"/></g><g transform="translate(-134,-230) scale(1,1)"><path fill="#000000" stroke="none" d="M 1181 380.5 C 1181 376.357864 1184.357864 373 1188.5 373 C 1192.642136 373 1196 376.357864 1196 380.5 C 1196 384.642136 1192.642136 388 1188.5 388 C 1184.357864 388 1181 384.642136 1181 380.5 Z"/></g><g transform="translate(-134,-230) scale(1,1)"><path fill="#C0C0C0" stroke="none" d="M 193 423 L 379.9326171875 423 Q 389.9326171875 423 389.9326171875 433 L 389.9326171875 476 Q 389.9326171875 486 379.9326171875 486 L 193 486 Q 183 486 183 476 L 183 433 Q 183 423 193 423 Z" opacity="0.2"/></g><g transform="translate(-134,-230) scale(1,1)"><path fill="#ffffff" stroke="none" d="M 186 416 L 372.9326171875 416 Q 382.9326171875 416 382.9326171875 426 L 382.9326171875 469 Q 382.9326171875 479 372.9326171875 479 L 186 479 Q 176 479 176 469 L 176 426 Q 176 416 186 416 Z"/></g><g transform="translate(-134,-230) scale(1,1)"><path fill="none" stroke="#000000" d="M 186 416 L 372.9326171875 416 Q 382.9326171875 416 382.9326171875 426 L 382.9326171875 469 Q 382.9326171875 479 372.9326171875 479 L 186 479 Q 176 479 176 469 L 176 426 Q 176 416 186 416 Z" stroke-miterlimit="10"/></g><g transform="translate(-134,-230) scale(1,1)"><path fill="none" stroke="#000000" d="M 176 441 L 382.9326171875 441" stroke-miterlimit="10"/></g><g transform="translate(-134,-230) scale(1,1)"><g><path fill="none" stroke="none"/><text fill="#000000" stroke="none" font-family="Arial" font-size="13px" font-style="normal" font-weight="bold" text-decoration="none" x="180.5" y="433.5">Solução é adicionada ao tanque</text></g></g><g transform="translate(-134,-230) scale(1,1)"><g><path fill="none" stroke="none"/><text fill="#000000" stroke="none" font-family="Arial" font-size="13px" font-style="normal" font-weight="normal" text-decoration="none" x="181" y="456.5">entry/recebeMistura()</text></g></g><g transform="translate(-134,-230) scale(1,1)"><path fill="none" stroke="#000000" d="M 162 300 L 253 415" stroke-miterlimit="10"/></g><g transform="translate(-134,-230) scale(1,1)"><path fill="none" stroke="#000000" d="M 243.39273615983186 409.64271696609205 L 253 415 L 249.99480975198074 404.41846742795684" stroke-miterlimit="10"/></g><g transform="translate(-134,-230) scale(1,1)"><g><path fill="none" stroke="none"/><text fill="#000000" stroke="none" font-family="Arial" font-size="13px" font-style="normal" font-weight="normal" text-decoration="none" x="182.5" y="314.5">Recebe solução do Decantador</text></g></g><g transform="translate(-134,-230) scale(1,1)"><path fill="#C0C0C0" stroke="none" d="M 497 247 L 665.8671875 247 Q 675.8671875 247 675.8671875 257 L 675.8671875 284 Q 675.8671875 294 665.8671875 294 L 497 294 Q 487 294 487 284 L 487 257 Q 487 247 497 247 Z" opacity="0.2"/></g><g transform="translate(-134,-230) scale(1,1)"><path fill="#ffffff" stroke="none" d="M 490 240 L 658.8671875 240 Q 668.8671875 240 668.8671875 250 L 668.8671875 277 Q 668.8671875 287 658.8671875 287 L 490 287 Q 480 287 480 277 L 480 250 Q 480 240 490 240 Z"/></g><g transform="translate(-134,-230) scale(1,1)"><path fill="none" stroke="#000000" d="M 490 240 L 658.8671875 240 Q 668.8671875 240 668.8671875 250 L 668.8671875 277 Q 668.8671875 287 658.8671875 287 L 490 287 Q 480 287 480 277 L 480 250 Q 480 240 490 240 Z" stroke-miterlimit="10"/></g><g transform="translate(-134,-230) scale(1,1)"><path fill="none" stroke="#000000" d="M 480 265 L 668.8671875 265" stroke-miterlimit="10"/></g><g transform="translate(-134,-230) scale(1,1)"><g><path fill="none" stroke="none"/><text fill="#000000" stroke="none" font-family="Arial" font-size="13px" font-style="normal" font-weight="bold" text-decoration="none" x="484.5" y="259">Água é adicionada ao tanque</text></g></g><g transform="translate(-134,-230) scale(1,1)"><g><path fill="none" stroke="none"/><text fill="#000000" stroke="none" font-family="Arial" font-size="13px" font-style="normal" font-weight="normal" text-decoration="none" x="485" y="280.5">entry/OpaqueBehavior1</text></g></g><g transform="translate(-134,-230) scale(1,1)"><path fill="none" stroke="#000000" d="M 330 415 L 534 288" stroke-miterlimit="10"/></g><g transform="translate(-134,-230) scale(1,1)"><path fill="none" stroke="#000000" d="M 527.597316717758 296.94458756943544 L 534 288 L 523.1478407080723 289.7973977586016" stroke-miterlimit="10"/></g><g transform="translate(-134,-230) scale(1,1)"><g><path fill="none" stroke="none"/><text fill="#000000" stroke="none" font-family="Arial" font-size="13px" font-style="normal" font-weight="normal" text-decoration="none" x="406.5" y="385.5">Recebe água da lavagem</text></g></g><g transform="translate(-134,-230) scale(1,1)"><path fill="#C0C0C0" stroke="none" d="M 649 423 L 836 423 Q 846 423 846 433 L 846 468 Q 846 478 836 478 L 649 478 Q 639 478 639 468 L 639 433 Q 639 423 649 423 Z" opacity="0.2"/></g><g transform="translate(-134,-230) scale(1,1)"><path fill="#ffffff" stroke="none" d="M 642 416 L 829 416 Q 839 416 839 426 L 839 461 Q 839 471 829 471 L 642 471 Q 632 471 632 461 L 632 426 Q 632 416 642 416 Z"/></g><g transform="translate(-134,-230) scale(1,1)"><path fill="none" stroke="#000000" d="M 642 416 L 829 416 Q 839 416 839 426 L 839 461 Q 839 471 829 471 L 642 471 Q 632 471 632 461 L 632 426 Q 632 416 642 416 Z" stroke-miterlimit="10"/></g><g transform="translate(-134,-230) scale(1,1)"><path fill="none" stroke="#000000" d="M 632 441 L 839 441" stroke-miterlimit="10"/></g><g transform="translate(-134,-230) scale(1,1)"><g><path fill="none" stroke="none"/><text fill="#000000" stroke="none" font-family="Arial" font-size="13px" font-style="normal" font-weight="bold" text-decoration="none" x="665.780517578125" y="433.5">Mistura é emulsificada</text></g></g><g transform="translate(-134,-230) scale(1,1)"><g><path fill="none" stroke="none"/><text fill="#000000" stroke="none" font-family="Arial" font-size="13px" font-style="normal" font-weight="normal" text-decoration="none" x="637" y="456.5">entry/emulsao()</text></g></g><g transform="translate(-134,-230) scale(1,1)"><path fill="none" stroke="#000000" d="M 596 288 L 710 415" stroke-miterlimit="10"/></g><g transform="translate(-134,-230) scale(1,1)"><path fill="none" stroke="#000000" d="M 700.0788180583676 410.249194922855 L 710 415 L 706.3439914578308 404.6253384855415" stroke-miterlimit="10"/></g><g transform="translate(-134,-230) scale(1,1)"><g><path fill="none" stroke="none"/><text fill="#000000" stroke="none" font-family="Arial" font-size="13px" font-style="normal" font-weight="normal" text-decoration="none" x="646.5" y="338.5">Realiza a emulsão</text></g></g><g transform="translate(-134,-230) scale(1,1)"><path fill="#C0C0C0" stroke="none" d="M 873 247 L 997 247 Q 1007 247 1007 257 L 1007 284 Q 1007 294 997 294 L 873 294 Q 863 294 863 284 L 863 257 Q 863 247 873 247 Z" opacity="0.2"/></g><g transform="translate(-134,-230) scale(1,1)"><path fill="#ffffff" stroke="none" d="M 866 240 L 990 240 Q 1000 240 1000 250 L 1000 277 Q 1000 287 990 287 L 866 287 Q 856 287 856 277 L 856 250 Q 856 240 866 240 Z"/></g><g transform="translate(-134,-230) scale(1,1)"><path fill="none" stroke="#000000" d="M 866 240 L 990 240 Q 1000 240 1000 250 L 1000 277 Q 1000 287 990 287 L 866 287 Q 856 287 856 277 L 856 250 Q 856 240 866 240 Z" stroke-miterlimit="10"/></g><g transform="translate(-134,-230) scale(1,1)"><path fill="none" stroke="#000000" d="M 856 265 L 1000 265" stroke-miterlimit="10"/></g><g transform="translate(-134,-230) scale(1,1)"><g><path fill="none" stroke="none"/><text fill="#000000" stroke="none" font-family="Arial" font-size="13px" font-style="normal" font-weight="bold" text-decoration="none" x="877.421875" y="257.5">Mistura é lavada</text></g></g><g transform="translate(-134,-230) scale(1,1)"><g><path fill="none" stroke="none"/><text fill="#000000" stroke="none" font-family="Arial" font-size="13px" font-style="normal" font-weight="normal" text-decoration="none" x="861" y="280.5">do/lavaMistura()</text></g></g><g transform="translate(-134,-230) scale(1,1)"><path fill="none" stroke="#000000" d="M 765 415 L 901 288" stroke-miterlimit="10"/></g><g transform="translate(-134,-230) scale(1,1)"><path fill="none" stroke="#000000" d="M 896.4453761546368 298.01276193800936 L 901 288 L 890.6993027284168 291.8594864579627" stroke-miterlimit="10"/></g><g transform="translate(-134,-230) scale(1,1)"><g><path fill="none" stroke="none"/><text fill="#000000" stroke="none" font-family="Arial" font-size="13px" font-style="normal" font-weight="normal" text-decoration="none" x="831.5" y="369.5">Tanque inicia o processo de lavagem</text></g></g><g transform="translate(-134,-230) scale(1,1)"><path fill="none" stroke="#000000" d="M 984 288 L 1175 374" stroke-miterlimit="10"/></g><g transform="translate(-134,-230) scale(1,1)"><path fill="none" stroke="#000000" d="M 1164.0050733047035 373.66595364834234 L 1175 374 L 1167.4616192155945 365.9892063346191" stroke-miterlimit="10"/></g><g transform="translate(-134,-230) scale(1,1)"><g><path fill="none" stroke="none"/><text fill="#000000" stroke="none" font-family="Arial" font-size="13px" font-style="normal" font-weight="normal" text-decoration="none" x="1030.5" y="298.5">Solução lavada é enviada ao Secador</text></g></g></g></svg>