<svg version="1.1" xmlns="http://www.w3.org/2000/svg" xmlns:xlink="http://www.w3.org/1999/xlink" width="570" height="58"><defs/><g><text fill="#eeeeee" stroke="none" font-family="Arial" font-size="24px" font-style="normal" font-weight="normal" text-decoration="none" x="0" y="0">UNREGISTERED</text><text fill="#eeeeee" stroke="none" font-family="Arial" font-size="24px" font-style="normal" font-weight="normal" text-decoration="none" x="0" y="30">UNREGISTERED</text><text fill="#eeeeee" stroke="none" font-family="Arial" font-size="24px" font-style="normal" font-weight="normal" text-decoration="none" x="200" y="0">UNREGISTERED</text><text fill="#eeeeee" stroke="none" font-family="Arial" font-size="24px" font-style="normal" font-weight="normal" text-decoration="none" x="200" y="30">UNREGISTERED</text><text fill="#eeeeee" stroke="none" font-family="Arial" font-size="24px" font-style="normal" font-weight="normal" text-decoration="none" x="400" y="0">UNREGISTERED</text><text fill="#eeeeee" stroke="none" font-family="Arial" font-size="24px" font-style="normal" font-weight="normal" text-decoration="none" x="400" y="30">UNREGISTERED</text><g transform="translate(-241,-537) scale(1,1)"><path fill="#C0C0C0" stroke="none" d="M 258 563.5 C 258 558.2532944 262.2532944 554 267.5 554 C 272.7467056 554 277 558.2532944 277 563.5 C 277 568.7467056 272.7467056 573 267.5 573 C 262.2532944 573 258 568.7467056 258 563.5 Z" opacity="0.2"/></g><g transform="translate(-241,-537) scale(1,1)"><path fill="#000000" stroke="none" d="M 251 556.5 C 251 551.2532944 255.2532944 547 260.5 547 C 265.7467056 547 270 551.2532944 270 556.5 C 270 561.7467056 265.7467056 566 260.5 566 C 255.2532944 566 251 561.7467056 251 556.5 Z"/></g><g transform="translate(-241,-537) scale(1,1)"><path fill="#C0C0C0" stroke="none" d="M 783 579.5 C 783 572.59644 788.59644 567 795.5 567 C 802.40356 567 808 572.59644 808 579.5 C 808 586.40356 802.40356 592 795.5 592 C 788.59644 592 783 586.40356 783 579.5 Z" opacity="0.2"/></g><g transform="translate(-241,-537) scale(1,1)"><path fill="none" stroke="#000000" d="M 776 572.5 C 776 565.59644 781.59644 560 788.5 560 C 795.40356 560 801 565.59644 801 572.5 C 801 579.40356 795.40356 585 788.5 585 C 781.59644 585 776 579.40356 776 572.5 Z" stroke-miterlimit="10"/></g><g transform="translate(-241,-537) scale(1,1)"><path fill="#000000" stroke="none" d="M 781 572.5 C 781 568.357864 784.357864 565 788.5 565 C 792.642136 565 796 568.357864 796 572.5 C 796 576.642136 792.642136 580 788.5 580 C 784.357864 580 781 576.642136 781 572.5 Z"/></g><g transform="translate(-241,-537) scale(1,1)"><path fill="none" stroke="#000000" d="M 271 556 L 775 572" stroke-miterlimit="10"/></g><g transform="translate(-241,-537) scale(1,1)"><path fill="none" stroke="#000000" d="M 764.7088741046816 575.8849360106323 L 775 572 L 764.976010495782 567.4701396909697" stroke-miterlimit="10"/></g></g></svg>