<svg version="1.1" xmlns="http://www.w3.org/2000/svg" xmlns:xlink="http://www.w3.org/1999/xlink" width="1281.34423828125" height="269"><defs/><g><text fill="#eeeeee" stroke="none" font-family="Arial" font-size="24px" font-style="normal" font-weight="normal" text-decoration="none" x="0" y="0">UNREGISTERED</text><text fill="#eeeeee" stroke="none" font-family="Arial" font-size="24px" font-style="normal" font-weight="normal" text-decoration="none" x="0" y="30">UNREGISTERED</text><text fill="#eeeeee" stroke="none" font-family="Arial" font-size="24px" font-style="normal" font-weight="normal" text-decoration="none" x="0" y="60">UNREGISTERED</text><text fill="#eeeeee" stroke="none" font-family="Arial" font-size="24px" font-style="normal" font-weight="normal" text-decoration="none" x="0" y="90">UNREGISTERED</text><text fill="#eeeeee" stroke="none" font-family="Arial" font-size="24px" font-style="normal" font-weight="normal" text-decoration="none" x="0" y="120">UNREGISTERED</text><text fill="#eeeeee" stroke="none" font-family="Arial" font-size="24px" font-style="normal" font-weight="normal" text-decoration="none" x="0" y="150">UNREGISTERED</text><text fill="#eeeeee" stroke="none" font-family="Arial" font-size="24px" font-style="normal" font-weight="normal" text-decoration="none" x="0" y="180">UNREGISTERED</text><text fill="#eeeeee" stroke="none" font-family="Arial" font-size="24px" font-style="normal" font-weight="normal" text-decoration="none" x="0" y="210">UNREGISTERED</text><text fill="#eeeeee" stroke="none" font-family="Arial" font-size="24px" font-style="normal" font-weight="normal" text-decoration="none" x="0" y="240">UNREGISTERED</text><text fill="#eeeeee" stroke="none" font-family="Arial" font-size="24px" font-style="normal" font-weight="normal" text-decoration="none" x="200" y="0">UNREGISTERED</text><text fill="#eeeeee" stroke="none" font-family="Arial" font-size="24px" font-style="normal" font-weight="normal" text-decoration="none" x="200" y="30">UNREGISTERED</text><text fill="#eeeeee" stroke="none" font-family="Arial" font-size="24px" font-style="normal" font-weight="normal" text-decoration="none" x="200" y="60">UNREGISTERED</text><text fill="#eeeeee" stroke="none" font-family="Arial" font-size="24px" font-style="normal" font-weight="normal" text-decoration="none" x="200" y="90">UNREGISTERED</text><text fill="#eeeeee" stroke="none" font-family="Arial" font-size="24px" font-style="normal" font-weight="normal" text-decoration="none" x="200" y="120">UNREGISTERED</text><text fill="#eeeeee" stroke="none" font-family="Arial" font-size="24px" font-style="normal" font-weight="normal" text-decoration="none" x="200" y="150">UNREGISTERED</text><text fill="#eeeeee" stroke="none" font-family="Arial" font-size="24px" font-style="normal" font-weight="normal" text-decoration="none" x="200" y="180">UNREGISTERED</text><text fill="#eeeeee" stroke="none" font-family="Arial" font-size="24px" font-style="normal" font-weight="normal" text-decoration="none" x="200" y="210">UNREGISTERED</text><text fill="#eeeeee" stroke="none" font-family="Arial" font-size="24px" font-style="normal" font-weight="normal" text-decoration="none" x="200" y="240">UNREGISTERED</text><text fill="#eeeeee" stroke="none" font-family="Arial" font-size="24px" font-style="normal" font-weight="normal" text-decoration="none" x="400" y="0">UNREGISTERED</text><text fill="#eeeeee" stroke="none" font-family="Arial" font-size="24px" font-style="normal" font-weight="normal" text-decoration="none" x="400" y="30">UNREGISTERED</text><text fill="#eeeeee" stroke="none" font-family="Arial" font-size="24px" font-style="normal" font-weight="normal" text-decoration="none" x="400" y="60">UNREGISTERED</text><text fill="#eeeeee" stroke="none" font-family="Arial" font-size="24px" font-style="normal" font-weight="normal" text-decoration="none" x="400" y="90">UNREGISTERED</text><text fill="#eeeeee" stroke="none" font-family="Arial" font-size="24px" font-style="normal" font-weight="normal" text-decoration="none" x="400" y="120">UNREGISTERED</text><text fill="#eeeeee" stroke="none" font-family="Arial" font-size="24px" font-style="normal" font-weight="normal" text-decoration="none" x="400" y="150">UNREGISTERED</text><text fill="#eeeeee" stroke="none" font-family="Arial" font-size="24px" font-style="normal" font-weight="normal" text-decoration="none" x="400" y="180">UNREGISTERED</text><text fill="#eeeeee" stroke="none" font-family="Arial" font-size="24px" font-style="normal" font-weight="normal" text-decoration="none" x="400" y="210">UNREGISTERED</text><text fill="#eeeeee" stroke="none" font-family="Arial" font-size="24px" font-style="normal" font-weight="normal" text-decoration="none" x="400" y="240">UNREGISTERED</text><text fill="#eeeeee" stroke="none" font-family="Arial" font-size="24px" font-style="normal" font-weight="normal" text-decoration="none" x="600" y="0">UNREGISTERED</text><text fill="#eeeeee" stroke="none" font-family="Arial" font-size="24px" font-style="normal" font-weight="normal" text-decoration="none" x="600" y="30">UNREGISTERED</text><text fill="#eeeeee" stroke="none" font-family="Arial" font-size="24px" font-style="normal" font-weight="normal" text-decoration="none" x="600" y="60">UNREGISTERED</text><text fill="#eeeeee" stroke="none" font-family="Arial" font-size="24px" font-style="normal" font-weight="normal" text-decoration="none" x="600" y="90">UNREGISTERED</text><text fill="#eeeeee" stroke="none" font-family="Arial" font-size="24px" font-style="normal" font-weight="normal" text-decoration="none" x="600" y="120">UNREGISTERED</text><text fill="#eeeeee" stroke="none" font-family="Arial" font-size="24px" font-style="normal" font-weight="normal" text-decoration="none" x="600" y="150">UNREGISTERED</text><text fill="#eeeeee" stroke="none" font-family="Arial" font-size="24px" font-style="normal" font-weight="normal" text-decoration="none" x="600" y="180">UNREGISTERED</text><text fill="#eeeeee" stroke="none" font-family="Arial" font-size="24px" font-style="normal" font-weight="normal" text-decoration="none" x="600" y="210">UNREGISTERED</text><text fill="#eeeeee" stroke="none" font-family="Arial" font-size="24px" font-style="normal" font-weight="normal" text-decoration="none" x="600" y="240">UNREGISTERED</text><text fill="#eeeeee" stroke="none" font-family="Arial" font-size="24px" font-style="normal" font-weight="normal" text-decoration="none" x="800" y="0">UNREGISTERED</text><text fill="#eeeeee" stroke="none" font-family="Arial" font-size="24px" font-style="normal" font-weight="normal" text-decoration="none" x="800" y="30">UNREGISTERED</text><text fill="#eeeeee" stroke="none" font-family="Arial" font-size="24px" font-style="normal" font-weight="normal" text-decoration="none" x="800" y="60">UNREGISTERED</text><text fill="#eeeeee" stroke="none" font-family="Arial" font-size="24px" font-style="normal" font-weight="normal" text-decoration="none" x="800" y="90">UNREGISTERED</text><text fill="#eeeeee" stroke="none" font-family="Arial" font-size="24px" font-style="normal" font-weight="normal" text-decoration="none" x="800" y="120">UNREGISTERED</text><text fill="#eeeeee" stroke="none" font-family="Arial" font-size="24px" font-style="normal" font-weight="normal" text-decoration="none" x="800" y="150">UNREGISTERED</text><text fill="#eeeeee" stroke="none" font-family="Arial" font-size="24px" font-style="normal" font-weight="normal" text-decoration="none" x="800" y="180">UNREGISTERED</text><text fill="#eeeeee" stroke="none" font-family="Arial" font-size="24px" font-style="normal" font-weight="normal" text-decoration="none" x="800" y="210">UNREGISTERED</text><text fill="#eeeeee" stroke="none" font-family="Arial" font-size="24px" font-style="normal" font-weight="normal" text-decoration="none" x="800" y="240">UNREGISTERED</text><text fill="#eeeeee" stroke="none" font-family="Arial" font-size="24px" font-style="normal" font-weight="normal" text-decoration="none" x="1000" y="0">UNREGISTERED</text><text fill="#eeeeee" stroke="none" font-family="Arial" font-size="24px" font-style="normal" font-weight="normal" text-decoration="none" x="1000" y="30">UNREGISTERED</text><text fill="#eeeeee" stroke="none" font-family="Arial" font-size="24px" font-style="normal" font-weight="normal" text-decoration="none" x="1000" y="60">UNREGISTERED</text><text fill="#eeeeee" stroke="none" font-family="Arial" font-size="24px" font-style="normal" font-weight="normal" text-decoration="none" x="1000" y="90">UNREGISTERED</text><text fill="#eeeeee" stroke="none" font-family="Arial" font-size="24px" font-style="normal" font-weight="normal" text-decoration="none" x="1000" y="120">UNREGISTERED</text><text fill="#eeeeee" stroke="none" font-family="Arial" font-size="24px" font-style="normal" font-weight="normal" text-decoration="none" x="1000" y="150">UNREGISTERED</text><text fill="#eeeeee" stroke="none" font-family="Arial" font-size="24px" font-style="normal" font-weight="normal" text-decoration="none" x="1000" y="180">UNREGISTERED</text><text fill="#eeeeee" stroke="none" font-family="Arial" font-size="24px" font-style="normal" font-weight="normal" text-decoration="none" x="1000" y="210">UNREGISTERED</text><text fill="#eeeeee" stroke="none" font-family="Arial" font-size="24px" font-style="normal" font-weight="normal" text-decoration="none" x="1000" y="240">UNREGISTERED</text><text fill="#eeeeee" stroke="none" font-family="Arial" font-size="24px" font-style="normal" font-weight="normal" text-decoration="none" x="1200" y="0">UNREGISTERED</text><text fill="#eeeeee" stroke="none" font-family="Arial" font-size="24px" font-style="normal" font-weight="normal" text-decoration="none" x="1200" y="30">UNREGISTERED</text><text fill="#eeeeee" stroke="none" font-family="Arial" font-size="24px" font-style="normal" font-weight="normal" text-decoration="none" x="1200" y="60">UNREGISTERED</text><text fill="#eeeeee" stroke="none" font-family="Arial" font-size="24px" font-style="normal" font-weight="normal" text-decoration="none" x="1200" y="90">UNREGISTERED</text><text fill="#eeeeee" stroke="none" font-family="Arial" font-size="24px" font-style="normal" font-weight="normal" text-decoration="none" x="1200" y="120">UNREGISTERED</text><text fill="#eeeeee" stroke="none" font-family="Arial" font-size="24px" font-style="normal" font-weight="normal" text-decoration="none" x="1200" y="150">UNREGISTERED</text><text fill="#eeeeee" stroke="none" font-family="Arial" font-size="24px" font-style="normal" font-weight="normal" text-decoration="none" x="1200" y="180">UNREGISTERED</text><text fill="#eeeeee" stroke="none" font-family="Arial" font-size="24px" font-style="normal" font-weight="normal" text-decoration="none" x="1200" y="210">UNREGISTERED</text><text fill="#eeeeee" stroke="none" font-family="Arial" font-size="24px" font-style="normal" font-weight="normal" text-decoration="none" x="1200" y="240">UNREGISTERED</text><g transform="translate(-86,-142) scale(1,1)"><path fill="#C0C0C0" stroke="none" d="M 103 232.5 C 103 227.2532944 107.2532944 223 112.5 223 C 117.7467056 223 122 227.2532944 122 232.5 C 122 237.7467056 117.7467056 242 112.5 242 C 107.2532944 242 103 237.7467056 103 232.5 Z" opacity="0.2"/></g><g transform="translate(-86,-142) scale(1,1)"><path fill="#000000" stroke="none" d="M 96 225.5 C 96 220.2532944 100.2532944 216 105.5 216 C 110.7467056 216 115 220.2532944 115 225.5 C 115 230.7467056 110.7467056 235 105.5 235 C 100.2532944 235 96 230.7467056 96 225.5 Z"/></g><g transform="translate(-86,-142) scale(1,1)"><path fill="#C0C0C0" stroke="none" d="M 1239 395.5 C 1239 388.59644 1244.59644 383 1251.5 383 C 1258.40356 383 1264 388.59644 1264 395.5 C 1264 402.40356 1258.40356 408 1251.5 408 C 1244.59644 408 1239 402.40356 1239 395.5 Z" opacity="0.2"/></g><g transform="translate(-86,-142) scale(1,1)"><path fill="none" stroke="#000000" d="M 1232 388.5 C 1232 381.59644 1237.59644 376 1244.5 376 C 1251.40356 376 1257 381.59644 1257 388.5 C 1257 395.40356 1251.40356 401 1244.5 401 C 1237.59644 401 1232 395.40356 1232 388.5 Z" stroke-miterlimit="10"/></g><g transform="translate(-86,-142) scale(1,1)"><path fill="#000000" stroke="none" d="M 1237 388.5 C 1237 384.357864 1240.357864 381 1244.5 381 C 1248.642136 381 1252 384.357864 1252 388.5 C 1252 392.642136 1248.642136 396 1244.5 396 C 1240.357864 396 1237 392.642136 1237 388.5 Z"/></g><g transform="translate(-86,-142) scale(1,1)"><path fill="#C0C0C0" stroke="none" d="M 346 167 L 345 167 Q 348 167 348 170 L 348 300 Q 348 303 345 303 L 346 303 Q 343 303 343 300 L 343 170 Q 343 167 346 167 Z" opacity="0.2"/></g><g transform="translate(-86,-142) scale(1,1)"><path fill="#000000" stroke="none" d="M 339 160 L 339 160 Q 342 160 342 163 L 342 293 Q 342 296 339 296 L 339 296 Q 336 296 336 293 L 336 163 Q 336 160 339 160 Z"/></g><g transform="translate(-86,-142) scale(1,1)"><path fill="none" stroke="#000000" d="M 116 225 L 335 228" stroke-miterlimit="10"/></g><g transform="translate(-86,-142) scale(1,1)"><path fill="none" stroke="#000000" d="M 324.7806193166043 232.0699211844751 L 335 228 L 324.895937750807 223.65167548768122" stroke-miterlimit="10"/></g><g transform="translate(-86,-142) scale(1,1)"><g><path fill="none" stroke="none"/><text fill="#000000" stroke="none" font-family="Arial" font-size="13px" font-style="normal" font-weight="normal" text-decoration="none" x="169.5" y="215.5">Recebe compostos</text></g></g><g transform="translate(-86,-142) scale(1,1)"><path fill="#C0C0C0" stroke="none" d="M 513 159 L 697.0380859375 159 Q 707.0380859375 159 707.0380859375 169 L 707.0380859375 196 Q 707.0380859375 206 697.0380859375 206 L 513 206 Q 503 206 503 196 L 503 169 Q 503 159 513 159 Z" opacity="0.2"/></g><g transform="translate(-86,-142) scale(1,1)"><path fill="#ffffff" stroke="none" d="M 506 152 L 690.0380859375 152 Q 700.0380859375 152 700.0380859375 162 L 700.0380859375 189 Q 700.0380859375 199 690.0380859375 199 L 506 199 Q 496 199 496 189 L 496 162 Q 496 152 506 152 Z"/></g><g transform="translate(-86,-142) scale(1,1)"><path fill="none" stroke="#000000" d="M 506 152 L 690.0380859375 152 Q 700.0380859375 152 700.0380859375 162 L 700.0380859375 189 Q 700.0380859375 199 690.0380859375 199 L 506 199 Q 496 199 496 189 L 496 162 Q 496 152 506 152 Z" stroke-miterlimit="10"/></g><g transform="translate(-86,-142) scale(1,1)"><g><path fill="none" stroke="none"/><text fill="#000000" stroke="none" font-family="Arial" font-size="13px" font-style="normal" font-weight="bold" text-decoration="none" x="502.66455078125" y="169.5">NaOH é adicionado na solução</text></g></g><g transform="translate(-86,-142) scale(1,1)"><path fill="#C0C0C0" stroke="none" d="M 513 255 L 689.0908203125 255 Q 699.0908203125 255 699.0908203125 265 L 699.0908203125 292 Q 699.0908203125 302 689.0908203125 302 L 513 302 Q 503 302 503 292 L 503 265 Q 503 255 513 255 Z" opacity="0.2"/></g><g transform="translate(-86,-142) scale(1,1)"><path fill="#ffffff" stroke="none" d="M 506 248 L 682.0908203125 248 Q 692.0908203125 248 692.0908203125 258 L 692.0908203125 285 Q 692.0908203125 295 682.0908203125 295 L 506 295 Q 496 295 496 285 L 496 258 Q 496 248 506 248 Z"/></g><g transform="translate(-86,-142) scale(1,1)"><path fill="none" stroke="#000000" d="M 506 248 L 682.0908203125 248 Q 692.0908203125 248 692.0908203125 258 L 692.0908203125 285 Q 692.0908203125 295 682.0908203125 295 L 506 295 Q 496 295 496 285 L 496 258 Q 496 248 506 248 Z" stroke-miterlimit="10"/></g><g transform="translate(-86,-142) scale(1,1)"><g><path fill="none" stroke="none"/><text fill="#000000" stroke="none" font-family="Arial" font-size="13px" font-style="normal" font-weight="bold" text-decoration="none" x="500.5" y="265.5">EtOH é adicionado na solução</text></g></g><g transform="translate(-86,-142) scale(1,1)"><path fill="none" stroke="#000000" d="M 342 227 L 495 196" stroke-miterlimit="10"/></g><g transform="translate(-86,-142) scale(1,1)"><path fill="none" stroke="#000000" d="M 485.8756395608906 202.14378113031503 L 495 196 L 484.20379356014377 193.89241215888717" stroke-miterlimit="10"/></g><g transform="translate(-86,-142) scale(1,1)"><g><path fill="none" stroke="none"/><text fill="#000000" stroke="none" font-family="Arial" font-size="13px" font-style="normal" font-weight="normal" text-decoration="none" x="372.5" y="200.5">Recebe NaOH</text></g></g><g transform="translate(-86,-142) scale(1,1)"><path fill="none" stroke="#000000" d="M 342 229 L 495 254" stroke-miterlimit="10"/></g><g transform="translate(-86,-142) scale(1,1)"><path fill="none" stroke="#000000" d="M 484.2915075192901 256.51558915377296 L 495 254 L 485.6491622012927 248.20674249991706" stroke-miterlimit="10"/></g><g transform="translate(-86,-142) scale(1,1)"><g><path fill="none" stroke="none"/><text fill="#000000" stroke="none" font-family="Arial" font-size="13px" font-style="normal" font-weight="normal" text-decoration="none" x="378.5" y="263.5">Recebe EtOH</text></g></g><g transform="translate(-86,-142) scale(1,1)"><path fill="#C0C0C0" stroke="none" d="M 922 167 L 921 167 Q 924 167 924 170 L 924 281 Q 924 284 921 284 L 922 284 Q 919 284 919 281 L 919 170 Q 919 167 922 167 Z" opacity="0.2"/></g><g transform="translate(-86,-142) scale(1,1)"><path fill="#000000" stroke="none" d="M 915 160 L 915 160 Q 918 160 918 163 L 918 274 Q 918 277 915 277 L 915 277 Q 912 277 912 274 L 912 163 Q 912 160 915 160 Z"/></g><g transform="translate(-86,-142) scale(1,1)"><path fill="none" stroke="#000000" d="M 701 189 L 911 218" stroke-miterlimit="10"/></g><g transform="translate(-86,-142) scale(1,1)"><path fill="none" stroke="#000000" d="M 900.3570139602419 220.77972087762674 L 911 218 L 901.5087129168376 212.439831881589" stroke-miterlimit="10"/></g><g transform="translate(-86,-142) scale(1,1)"><g><path fill="none" stroke="none"/><text fill="#000000" stroke="none" font-family="Arial" font-size="13px" font-style="normal" font-weight="normal" text-decoration="none" x="722.023193359375" y="178.5">NaOH é misturado no tanque</text></g></g><g transform="translate(-86,-142) scale(1,1)"><path fill="none" stroke="#000000" d="M 693 255 L 911 218" stroke-miterlimit="10"/></g><g transform="translate(-86,-142) scale(1,1)"><path fill="none" stroke="#000000" d="M 901.6849983213813 223.85070454965307 L 911 218 L 900.276226284506 215.5503720080633" stroke-miterlimit="10"/></g><g transform="translate(-86,-142) scale(1,1)"><g><path fill="none" stroke="none"/><text fill="#000000" stroke="none" font-family="Arial" font-size="13px" font-style="normal" font-weight="normal" text-decoration="none" x="717.023193359375" y="266.5">EtOH é misturado no tanque</text></g></g><g transform="translate(-86,-142) scale(1,1)"><path fill="#C0C0C0" stroke="none" d="M 1185 207 L 1314.17529296875 207 Q 1324.17529296875 207 1324.17529296875 217 L 1324.17529296875 244 Q 1324.17529296875 254 1314.17529296875 254 L 1185 254 Q 1175 254 1175 244 L 1175 217 Q 1175 207 1185 207 Z" opacity="0.2"/></g><g transform="translate(-86,-142) scale(1,1)"><path fill="#ffffff" stroke="none" d="M 1178 200 L 1307.17529296875 200 Q 1317.17529296875 200 1317.17529296875 210 L 1317.17529296875 237 Q 1317.17529296875 247 1307.17529296875 247 L 1178 247 Q 1168 247 1168 237 L 1168 210 Q 1168 200 1178 200 Z"/></g><g transform="translate(-86,-142) scale(1,1)"><path fill="none" stroke="#000000" d="M 1178 200 L 1307.17529296875 200 Q 1317.17529296875 200 1317.17529296875 210 L 1317.17529296875 237 Q 1317.17529296875 247 1307.17529296875 247 L 1178 247 Q 1168 247 1168 237 L 1168 210 Q 1168 200 1178 200 Z" stroke-miterlimit="10"/></g><g transform="translate(-86,-142) scale(1,1)"><path fill="none" stroke="#000000" d="M 1168 225 L 1317.17529296875 225" stroke-miterlimit="10"/></g><g transform="translate(-86,-142) scale(1,1)"><g><path fill="none" stroke="none"/><text fill="#000000" stroke="none" font-family="Arial" font-size="13px" font-style="normal" font-weight="bold" text-decoration="none" x="1181.65966796875" y="217.5">Tanque é esvaziado</text></g></g><g transform="translate(-86,-142) scale(1,1)"><g><path fill="none" stroke="none"/><text fill="#000000" stroke="none" font-family="Arial" font-size="13px" font-style="normal" font-weight="normal" text-decoration="none" x="1173" y="240.5">exit/adicionaComposto()</text></g></g><g transform="translate(-86,-142) scale(1,1)"><path fill="none" stroke="#000000" d="M 918 218 L 1167 222" stroke-miterlimit="10"/></g><g transform="translate(-86,-142) scale(1,1)"><path fill="none" stroke="#000000" d="M 1156.7710221288644 226.0457399461429 L 1167 222 L 1156.906250231878 217.62779053354774" stroke-miterlimit="10"/></g><g transform="translate(-86,-142) scale(1,1)"><g><path fill="none" stroke="none"/><text fill="#000000" stroke="none" font-family="Arial" font-size="13px" font-style="normal" font-weight="normal" text-decoration="none" x="971.2099609375" y="209.5">Composto sai do tanque</text></g></g><g transform="translate(-86,-142) scale(1,1)"><path fill="none" stroke="#000000" d="M 1242 248 L 1244 375" stroke-miterlimit="10"/></g><g transform="translate(-86,-142) scale(1,1)"><path fill="none" stroke="#000000" d="M 1239.6309818459915 364.90486848179063 L 1244 375 L 1248.0489735896695 364.7723016826776" stroke-miterlimit="10"/></g><g transform="translate(-86,-142) scale(1,1)"><g><path fill="none" stroke="none"/><text fill="#000000" stroke="none" font-family="Arial" font-size="13px" font-style="normal" font-weight="normal" text-decoration="none" x="1155.5" y="314.5">Composto é enviado para o Reator</text></g></g></g></svg>