<svg version="1.1" xmlns="http://www.w3.org/2000/svg" xmlns:xlink="http://www.w3.org/1999/xlink" width="765" height="82"><defs/><g><text fill="#eeeeee" stroke="none" font-family="Arial" font-size="24px" font-style="normal" font-weight="normal" text-decoration="none" x="0" y="0">UNREGISTERED</text><text fill="#eeeeee" stroke="none" font-family="Arial" font-size="24px" font-style="normal" font-weight="normal" text-decoration="none" x="0" y="30">UNREGISTERED</text><text fill="#eeeeee" stroke="none" font-family="Arial" font-size="24px" font-style="normal" font-weight="normal" text-decoration="none" x="0" y="60">UNREGISTERED</text><text fill="#eeeeee" stroke="none" font-family="Arial" font-size="24px" font-style="normal" font-weight="normal" text-decoration="none" x="200" y="0">UNREGISTERED</text><text fill="#eeeeee" stroke="none" font-family="Arial" font-size="24px" font-style="normal" font-weight="normal" text-decoration="none" x="200" y="30">UNREGISTERED</text><text fill="#eeeeee" stroke="none" font-family="Arial" font-size="24px" font-style="normal" font-weight="normal" text-decoration="none" x="200" y="60">UNREGISTERED</text><text fill="#eeeeee" stroke="none" font-family="Arial" font-size="24px" font-style="normal" font-weight="normal" text-decoration="none" x="400" y="0">UNREGISTERED</text><text fill="#eeeeee" stroke="none" font-family="Arial" font-size="24px" font-style="normal" font-weight="normal" text-decoration="none" x="400" y="30">UNREGISTERED</text><text fill="#eeeeee" stroke="none" font-family="Arial" font-size="24px" font-style="normal" font-weight="normal" text-decoration="none" x="400" y="60">UNREGISTERED</text><text fill="#eeeeee" stroke="none" font-family="Arial" font-size="24px" font-style="normal" font-weight="normal" text-decoration="none" x="600" y="0">UNREGISTERED</text><text fill="#eeeeee" stroke="none" font-family="Arial" font-size="24px" font-style="normal" font-weight="normal" text-decoration="none" x="600" y="30">UNREGISTERED</text><text fill="#eeeeee" stroke="none" font-family="Arial" font-size="24px" font-style="normal" font-weight="normal" text-decoration="none" x="600" y="60">UNREGISTERED</text><g transform="translate(-158,-206) scale(1,1)"><path fill="#C0C0C0" stroke="none" d="M 175 248.5 C 175 243.2532944 179.2532944 239 184.5 239 C 189.7467056 239 194 243.2532944 194 248.5 C 194 253.7467056 189.7467056 258 184.5 258 C 179.2532944 258 175 253.7467056 175 248.5 Z" opacity="0.2"/></g><g transform="translate(-158,-206) scale(1,1)"><path fill="#000000" stroke="none" d="M 168 241.5 C 168 236.2532944 172.2532944 232 177.5 232 C 182.7467056 232 187 236.2532944 187 241.5 C 187 246.7467056 182.7467056 251 177.5 251 C 172.2532944 251 168 246.7467056 168 241.5 Z"/></g><g transform="translate(-158,-206) scale(1,1)"><path fill="#C0C0C0" stroke="none" d="M 895 251.5 C 895 244.59644 900.59644 239 907.5 239 C 914.40356 239 920 244.59644 920 251.5 C 920 258.40356 914.40356 264 907.5 264 C 900.59644 264 895 258.40356 895 251.5 Z" opacity="0.2"/></g><g transform="translate(-158,-206) scale(1,1)"><path fill="none" stroke="#000000" d="M 888 244.5 C 888 237.59644 893.59644 232 900.5 232 C 907.40356 232 913 237.59644 913 244.5 C 913 251.40356 907.40356 257 900.5 257 C 893.59644 257 888 251.40356 888 244.5 Z" stroke-miterlimit="10"/></g><g transform="translate(-158,-206) scale(1,1)"><path fill="#000000" stroke="none" d="M 893 244.5 C 893 240.357864 896.357864 237 900.5 237 C 904.642136 237 908 240.357864 908 244.5 C 908 248.642136 904.642136 252 900.5 252 C 896.357864 252 893 248.642136 893 244.5 Z"/></g><g transform="translate(-158,-206) scale(1,1)"><path fill="#C0C0C0" stroke="none" d="M 465 223 L 620 223 Q 630 223 630 233 L 630 275 Q 630 285 620 285 L 465 285 Q 455 285 455 275 L 455 233 Q 455 223 465 223 Z" opacity="0.2"/></g><g transform="translate(-158,-206) scale(1,1)"><path fill="#ffffff" stroke="none" d="M 458 216 L 613 216 Q 623 216 623 226 L 623 268 Q 623 278 613 278 L 458 278 Q 448 278 448 268 L 448 226 Q 448 216 458 216 Z"/></g><g transform="translate(-158,-206) scale(1,1)"><path fill="none" stroke="#000000" d="M 458 216 L 613 216 Q 623 216 623 226 L 623 268 Q 623 278 613 278 L 458 278 Q 448 278 448 268 L 448 226 Q 448 216 458 216 Z" stroke-miterlimit="10"/></g><g transform="translate(-158,-206) scale(1,1)"><path fill="none" stroke="#000000" d="M 448 241 L 623 241" stroke-miterlimit="10"/></g><g transform="translate(-158,-206) scale(1,1)"><g><path fill="none" stroke="none"/><text fill="#000000" stroke="none" font-family="Arial" font-size="13px" font-style="normal" font-weight="bold" text-decoration="none" x="470.611083984375" y="233.5">Tanque é preenchido</text></g></g><g transform="translate(-158,-206) scale(1,1)"><g><path fill="none" stroke="none"/><text fill="#000000" stroke="none" font-family="Arial" font-size="13px" font-style="normal" font-weight="normal" text-decoration="none" x="453" y="256.5">entry/depositaComposto()</text></g></g><g transform="translate(-158,-206) scale(1,1)"><g><path fill="none" stroke="none"/><text fill="#000000" stroke="none" font-family="Arial" font-size="13px" font-style="normal" font-weight="normal" text-decoration="none" x="453" y="271.5">exit/enviaComposto()</text></g></g><g transform="translate(-158,-206) scale(1,1)"><path fill="none" stroke="#000000" d="M 188 241 L 447 246" stroke-miterlimit="10"/></g><g transform="translate(-158,-206) scale(1,1)"><path fill="none" stroke="#000000" d="M 436.7579686624733 250.01257947972624 L 447 246 L 436.9204680279453 241.5951123482741" stroke-miterlimit="10"/></g><g transform="translate(-158,-206) scale(1,1)"><g><path fill="none" stroke="none"/><text fill="#000000" stroke="none" font-family="Arial" font-size="13px" font-style="normal" font-weight="normal" text-decoration="none" x="230.5" y="232.5">Recebe composto do secador</text></g></g><g transform="translate(-158,-206) scale(1,1)"><path fill="none" stroke="#000000" d="M 624 246 L 887 244" stroke-miterlimit="10"/></g><g transform="translate(-158,-206) scale(1,1)"><path fill="none" stroke="#000000" d="M 876.8696295965036 248.28667650843454 L 887 244 L 876.8056083638891 239.86788441962332" stroke-miterlimit="10"/></g><g transform="translate(-158,-206) scale(1,1)"><g><path fill="none" stroke="none"/><text fill="#000000" stroke="none" font-family="Arial" font-size="13px" font-style="normal" font-weight="normal" text-decoration="none" x="638.5" y="234.5">Envia EtOH para o tanque NaOH_EtOH</text></g></g></g></svg>