<svg version="1.1" xmlns="http://www.w3.org/2000/svg" xmlns:xlink="http://www.w3.org/1999/xlink" width="517" height="119"><defs/><g><text fill="#eeeeee" stroke="none" font-family="Arial" font-size="24px" font-style="normal" font-weight="normal" text-decoration="none" x="0" y="0">UNREGISTERED</text><text fill="#eeeeee" stroke="none" font-family="Arial" font-size="24px" font-style="normal" font-weight="normal" text-decoration="none" x="0" y="30">UNREGISTERED</text><text fill="#eeeeee" stroke="none" font-family="Arial" font-size="24px" font-style="normal" font-weight="normal" text-decoration="none" x="0" y="60">UNREGISTERED</text><text fill="#eeeeee" stroke="none" font-family="Arial" font-size="24px" font-style="normal" font-weight="normal" text-decoration="none" x="0" y="90">UNREGISTERED</text><text fill="#eeeeee" stroke="none" font-family="Arial" font-size="24px" font-style="normal" font-weight="normal" text-decoration="none" x="200" y="0">UNREGISTERED</text><text fill="#eeeeee" stroke="none" font-family="Arial" font-size="24px" font-style="normal" font-weight="normal" text-decoration="none" x="200" y="30">UNREGISTERED</text><text fill="#eeeeee" stroke="none" font-family="Arial" font-size="24px" font-style="normal" font-weight="normal" text-decoration="none" x="200" y="60">UNREGISTERED</text><text fill="#eeeeee" stroke="none" font-family="Arial" font-size="24px" font-style="normal" font-weight="normal" text-decoration="none" x="200" y="90">UNREGISTERED</text><text fill="#eeeeee" stroke="none" font-family="Arial" font-size="24px" font-style="normal" font-weight="normal" text-decoration="none" x="400" y="0">UNREGISTERED</text><text fill="#eeeeee" stroke="none" font-family="Arial" font-size="24px" font-style="normal" font-weight="normal" text-decoration="none" x="400" y="30">UNREGISTERED</text><text fill="#eeeeee" stroke="none" font-family="Arial" font-size="24px" font-style="normal" font-weight="normal" text-decoration="none" x="400" y="60">UNREGISTERED</text><text fill="#eeeeee" stroke="none" font-family="Arial" font-size="24px" font-style="normal" font-weight="normal" text-decoration="none" x="400" y="90">UNREGISTERED</text><g transform="translate(-342,-630) scale(1,1)"><path fill="#C0C0C0" stroke="none" d="M 359 736.5 C 359 731.2532944 363.2532944 727 368.5 727 C 373.7467056 727 378 731.2532944 378 736.5 C 378 741.7467056 373.7467056 746 368.5 746 C 363.2532944 746 359 741.7467056 359 736.5 Z" opacity="0.2"/></g><g transform="translate(-342,-630) scale(1,1)"><path fill="#000000" stroke="none" d="M 352 729.5 C 352 724.2532944 356.2532944 720 361.5 720 C 366.7467056 720 371 724.2532944 371 729.5 C 371 734.7467056 366.7467056 739 361.5 739 C 356.2532944 739 352 734.7467056 352 729.5 Z"/></g><g transform="translate(-342,-630) scale(1,1)"><path fill="#C0C0C0" stroke="none" d="M 831 659.5 C 831 652.59644 836.59644 647 843.5 647 C 850.40356 647 856 652.59644 856 659.5 C 856 666.40356 850.40356 672 843.5 672 C 836.59644 672 831 666.40356 831 659.5 Z" opacity="0.2"/></g><g transform="translate(-342,-630) scale(1,1)"><path fill="none" stroke="#000000" d="M 824 652.5 C 824 645.59644 829.59644 640 836.5 640 C 843.40356 640 849 645.59644 849 652.5 C 849 659.40356 843.40356 665 836.5 665 C 829.59644 665 824 659.40356 824 652.5 Z" stroke-miterlimit="10"/></g><g transform="translate(-342,-630) scale(1,1)"><path fill="#000000" stroke="none" d="M 829 652.5 C 829 648.357864 832.357864 645 836.5 645 C 840.642136 645 844 648.357864 844 652.5 C 844 656.642136 840.642136 660 836.5 660 C 832.357864 660 829 656.642136 829 652.5 Z"/></g><g transform="translate(-342,-630) scale(1,1)"><path fill="none" stroke="#000000" d="M 372 727 L 823 654" stroke-miterlimit="10"/></g><g transform="translate(-342,-630) scale(1,1)"><path fill="none" stroke="#000000" d="M 813.6405025905419 659.7792567205781 L 823 654 L 812.2952842959355 651.468387530613" stroke-miterlimit="10"/></g></g></svg>