<svg version="1.1" xmlns="http://www.w3.org/2000/svg" xmlns:xlink="http://www.w3.org/1999/xlink" width="1035.01904296875" height="774"><defs/><g><text fill="#eeeeee" stroke="none" font-family="Arial" font-size="24px" font-style="normal" font-weight="normal" text-decoration="none" x="0" y="0">UNREGISTERED</text><text fill="#eeeeee" stroke="none" font-family="Arial" font-size="24px" font-style="normal" font-weight="normal" text-decoration="none" x="0" y="30">UNREGISTERED</text><text fill="#eeeeee" stroke="none" font-family="Arial" font-size="24px" font-style="normal" font-weight="normal" text-decoration="none" x="0" y="60">UNREGISTERED</text><text fill="#eeeeee" stroke="none" font-family="Arial" font-size="24px" font-style="normal" font-weight="normal" text-decoration="none" x="0" y="90">UNREGISTERED</text><text fill="#eeeeee" stroke="none" font-family="Arial" font-size="24px" font-style="normal" font-weight="normal" text-decoration="none" x="0" y="120">UNREGISTERED</text><text fill="#eeeeee" stroke="none" font-family="Arial" font-size="24px" font-style="normal" font-weight="normal" text-decoration="none" x="0" y="150">UNREGISTERED</text><text fill="#eeeeee" stroke="none" font-family="Arial" font-size="24px" font-style="normal" font-weight="normal" text-decoration="none" x="0" y="180">UNREGISTERED</text><text fill="#eeeeee" stroke="none" font-family="Arial" font-size="24px" font-style="normal" font-weight="normal" text-decoration="none" x="0" y="210">UNREGISTERED</text><text fill="#eeeeee" stroke="none" font-family="Arial" font-size="24px" font-style="normal" font-weight="normal" text-decoration="none" x="0" y="240">UNREGISTERED</text><text fill="#eeeeee" stroke="none" font-family="Arial" font-size="24px" font-style="normal" font-weight="normal" text-decoration="none" x="0" y="270">UNREGISTERED</text><text fill="#eeeeee" stroke="none" font-family="Arial" font-size="24px" font-style="normal" font-weight="normal" text-decoration="none" x="0" y="300">UNREGISTERED</text><text fill="#eeeeee" stroke="none" font-family="Arial" font-size="24px" font-style="normal" font-weight="normal" text-decoration="none" x="0" y="330">UNREGISTERED</text><text fill="#eeeeee" stroke="none" font-family="Arial" font-size="24px" font-style="normal" font-weight="normal" text-decoration="none" x="0" y="360">UNREGISTERED</text><text fill="#eeeeee" stroke="none" font-family="Arial" font-size="24px" font-style="normal" font-weight="normal" text-decoration="none" x="0" y="390">UNREGISTERED</text><text fill="#eeeeee" stroke="none" font-family="Arial" font-size="24px" font-style="normal" font-weight="normal" text-decoration="none" x="0" y="420">UNREGISTERED</text><text fill="#eeeeee" stroke="none" font-family="Arial" font-size="24px" font-style="normal" font-weight="normal" text-decoration="none" x="0" y="450">UNREGISTERED</text><text fill="#eeeeee" stroke="none" font-family="Arial" font-size="24px" font-style="normal" font-weight="normal" text-decoration="none" x="0" y="480">UNREGISTERED</text><text fill="#eeeeee" stroke="none" font-family="Arial" font-size="24px" font-style="normal" font-weight="normal" text-decoration="none" x="0" y="510">UNREGISTERED</text><text fill="#eeeeee" stroke="none" font-family="Arial" font-size="24px" font-style="normal" font-weight="normal" text-decoration="none" x="0" y="540">UNREGISTERED</text><text fill="#eeeeee" stroke="none" font-family="Arial" font-size="24px" font-style="normal" font-weight="normal" text-decoration="none" x="0" y="570">UNREGISTERED</text><text fill="#eeeeee" stroke="none" font-family="Arial" font-size="24px" font-style="normal" font-weight="normal" text-decoration="none" x="0" y="600">UNREGISTERED</text><text fill="#eeeeee" stroke="none" font-family="Arial" font-size="24px" font-style="normal" font-weight="normal" text-decoration="none" x="0" y="630">UNREGISTERED</text><text fill="#eeeeee" stroke="none" font-family="Arial" font-size="24px" font-style="normal" font-weight="normal" text-decoration="none" x="0" y="660">UNREGISTERED</text><text fill="#eeeeee" stroke="none" font-family="Arial" font-size="24px" font-style="normal" font-weight="normal" text-decoration="none" x="0" y="690">UNREGISTERED</text><text fill="#eeeeee" stroke="none" font-family="Arial" font-size="24px" font-style="normal" font-weight="normal" text-decoration="none" x="0" y="720">UNREGISTERED</text><text fill="#eeeeee" stroke="none" font-family="Arial" font-size="24px" font-style="normal" font-weight="normal" text-decoration="none" x="0" y="750">UNREGISTERED</text><text fill="#eeeeee" stroke="none" font-family="Arial" font-size="24px" font-style="normal" font-weight="normal" text-decoration="none" x="200" y="0">UNREGISTERED</text><text fill="#eeeeee" stroke="none" font-family="Arial" font-size="24px" font-style="normal" font-weight="normal" text-decoration="none" x="200" y="30">UNREGISTERED</text><text fill="#eeeeee" stroke="none" font-family="Arial" font-size="24px" font-style="normal" font-weight="normal" text-decoration="none" x="200" y="60">UNREGISTERED</text><text fill="#eeeeee" stroke="none" font-family="Arial" font-size="24px" font-style="normal" font-weight="normal" text-decoration="none" x="200" y="90">UNREGISTERED</text><text fill="#eeeeee" stroke="none" font-family="Arial" font-size="24px" font-style="normal" font-weight="normal" text-decoration="none" x="200" y="120">UNREGISTERED</text><text fill="#eeeeee" stroke="none" font-family="Arial" font-size="24px" font-style="normal" font-weight="normal" text-decoration="none" x="200" y="150">UNREGISTERED</text><text fill="#eeeeee" stroke="none" font-family="Arial" font-size="24px" font-style="normal" font-weight="normal" text-decoration="none" x="200" y="180">UNREGISTERED</text><text fill="#eeeeee" stroke="none" font-family="Arial" font-size="24px" font-style="normal" font-weight="normal" text-decoration="none" x="200" y="210">UNREGISTERED</text><text fill="#eeeeee" stroke="none" font-family="Arial" font-size="24px" font-style="normal" font-weight="normal" text-decoration="none" x="200" y="240">UNREGISTERED</text><text fill="#eeeeee" stroke="none" font-family="Arial" font-size="24px" font-style="normal" font-weight="normal" text-decoration="none" x="200" y="270">UNREGISTERED</text><text fill="#eeeeee" stroke="none" font-family="Arial" font-size="24px" font-style="normal" font-weight="normal" text-decoration="none" x="200" y="300">UNREGISTERED</text><text fill="#eeeeee" stroke="none" font-family="Arial" font-size="24px" font-style="normal" font-weight="normal" text-decoration="none" x="200" y="330">UNREGISTERED</text><text fill="#eeeeee" stroke="none" font-family="Arial" font-size="24px" font-style="normal" font-weight="normal" text-decoration="none" x="200" y="360">UNREGISTERED</text><text fill="#eeeeee" stroke="none" font-family="Arial" font-size="24px" font-style="normal" font-weight="normal" text-decoration="none" x="200" y="390">UNREGISTERED</text><text fill="#eeeeee" stroke="none" font-family="Arial" font-size="24px" font-style="normal" font-weight="normal" text-decoration="none" x="200" y="420">UNREGISTERED</text><text fill="#eeeeee" stroke="none" font-family="Arial" font-size="24px" font-style="normal" font-weight="normal" text-decoration="none" x="200" y="450">UNREGISTERED</text><text fill="#eeeeee" stroke="none" font-family="Arial" font-size="24px" font-style="normal" font-weight="normal" text-decoration="none" x="200" y="480">UNREGISTERED</text><text fill="#eeeeee" stroke="none" font-family="Arial" font-size="24px" font-style="normal" font-weight="normal" text-decoration="none" x="200" y="510">UNREGISTERED</text><text fill="#eeeeee" stroke="none" font-family="Arial" font-size="24px" font-style="normal" font-weight="normal" text-decoration="none" x="200" y="540">UNREGISTERED</text><text fill="#eeeeee" stroke="none" font-family="Arial" font-size="24px" font-style="normal" font-weight="normal" text-decoration="none" x="200" y="570">UNREGISTERED</text><text fill="#eeeeee" stroke="none" font-family="Arial" font-size="24px" font-style="normal" font-weight="normal" text-decoration="none" x="200" y="600">UNREGISTERED</text><text fill="#eeeeee" stroke="none" font-family="Arial" font-size="24px" font-style="normal" font-weight="normal" text-decoration="none" x="200" y="630">UNREGISTERED</text><text fill="#eeeeee" stroke="none" font-family="Arial" font-size="24px" font-style="normal" font-weight="normal" text-decoration="none" x="200" y="660">UNREGISTERED</text><text fill="#eeeeee" stroke="none" font-family="Arial" font-size="24px" font-style="normal" font-weight="normal" text-decoration="none" x="200" y="690">UNREGISTERED</text><text fill="#eeeeee" stroke="none" font-family="Arial" font-size="24px" font-style="normal" font-weight="normal" text-decoration="none" x="200" y="720">UNREGISTERED</text><text fill="#eeeeee" stroke="none" font-family="Arial" font-size="24px" font-style="normal" font-weight="normal" text-decoration="none" x="200" y="750">UNREGISTERED</text><text fill="#eeeeee" stroke="none" font-family="Arial" font-size="24px" font-style="normal" font-weight="normal" text-decoration="none" x="400" y="0">UNREGISTERED</text><text fill="#eeeeee" stroke="none" font-family="Arial" font-size="24px" font-style="normal" font-weight="normal" text-decoration="none" x="400" y="30">UNREGISTERED</text><text fill="#eeeeee" stroke="none" font-family="Arial" font-size="24px" font-style="normal" font-weight="normal" text-decoration="none" x="400" y="60">UNREGISTERED</text><text fill="#eeeeee" stroke="none" font-family="Arial" font-size="24px" font-style="normal" font-weight="normal" text-decoration="none" x="400" y="90">UNREGISTERED</text><text fill="#eeeeee" stroke="none" font-family="Arial" font-size="24px" font-style="normal" font-weight="normal" text-decoration="none" x="400" y="120">UNREGISTERED</text><text fill="#eeeeee" stroke="none" font-family="Arial" font-size="24px" font-style="normal" font-weight="normal" text-decoration="none" x="400" y="150">UNREGISTERED</text><text fill="#eeeeee" stroke="none" font-family="Arial" font-size="24px" font-style="normal" font-weight="normal" text-decoration="none" x="400" y="180">UNREGISTERED</text><text fill="#eeeeee" stroke="none" font-family="Arial" font-size="24px" font-style="normal" font-weight="normal" text-decoration="none" x="400" y="210">UNREGISTERED</text><text fill="#eeeeee" stroke="none" font-family="Arial" font-size="24px" font-style="normal" font-weight="normal" text-decoration="none" x="400" y="240">UNREGISTERED</text><text fill="#eeeeee" stroke="none" font-family="Arial" font-size="24px" font-style="normal" font-weight="normal" text-decoration="none" x="400" y="270">UNREGISTERED</text><text fill="#eeeeee" stroke="none" font-family="Arial" font-size="24px" font-style="normal" font-weight="normal" text-decoration="none" x="400" y="300">UNREGISTERED</text><text fill="#eeeeee" stroke="none" font-family="Arial" font-size="24px" font-style="normal" font-weight="normal" text-decoration="none" x="400" y="330">UNREGISTERED</text><text fill="#eeeeee" stroke="none" font-family="Arial" font-size="24px" font-style="normal" font-weight="normal" text-decoration="none" x="400" y="360">UNREGISTERED</text><text fill="#eeeeee" stroke="none" font-family="Arial" font-size="24px" font-style="normal" font-weight="normal" text-decoration="none" x="400" y="390">UNREGISTERED</text><text fill="#eeeeee" stroke="none" font-family="Arial" font-size="24px" font-style="normal" font-weight="normal" text-decoration="none" x="400" y="420">UNREGISTERED</text><text fill="#eeeeee" stroke="none" font-family="Arial" font-size="24px" font-style="normal" font-weight="normal" text-decoration="none" x="400" y="450">UNREGISTERED</text><text fill="#eeeeee" stroke="none" font-family="Arial" font-size="24px" font-style="normal" font-weight="normal" text-decoration="none" x="400" y="480">UNREGISTERED</text><text fill="#eeeeee" stroke="none" font-family="Arial" font-size="24px" font-style="normal" font-weight="normal" text-decoration="none" x="400" y="510">UNREGISTERED</text><text fill="#eeeeee" stroke="none" font-family="Arial" font-size="24px" font-style="normal" font-weight="normal" text-decoration="none" x="400" y="540">UNREGISTERED</text><text fill="#eeeeee" stroke="none" font-family="Arial" font-size="24px" font-style="normal" font-weight="normal" text-decoration="none" x="400" y="570">UNREGISTERED</text><text fill="#eeeeee" stroke="none" font-family="Arial" font-size="24px" font-style="normal" font-weight="normal" text-decoration="none" x="400" y="600">UNREGISTERED</text><text fill="#eeeeee" stroke="none" font-family="Arial" font-size="24px" font-style="normal" font-weight="normal" text-decoration="none" x="400" y="630">UNREGISTERED</text><text fill="#eeeeee" stroke="none" font-family="Arial" font-size="24px" font-style="normal" font-weight="normal" text-decoration="none" x="400" y="660">UNREGISTERED</text><text fill="#eeeeee" stroke="none" font-family="Arial" font-size="24px" font-style="normal" font-weight="normal" text-decoration="none" x="400" y="690">UNREGISTERED</text><text fill="#eeeeee" stroke="none" font-family="Arial" font-size="24px" font-style="normal" font-weight="normal" text-decoration="none" x="400" y="720">UNREGISTERED</text><text fill="#eeeeee" stroke="none" font-family="Arial" font-size="24px" font-style="normal" font-weight="normal" text-decoration="none" x="400" y="750">UNREGISTERED</text><text fill="#eeeeee" stroke="none" font-family="Arial" font-size="24px" font-style="normal" font-weight="normal" text-decoration="none" x="600" y="0">UNREGISTERED</text><text fill="#eeeeee" stroke="none" font-family="Arial" font-size="24px" font-style="normal" font-weight="normal" text-decoration="none" x="600" y="30">UNREGISTERED</text><text fill="#eeeeee" stroke="none" font-family="Arial" font-size="24px" font-style="normal" font-weight="normal" text-decoration="none" x="600" y="60">UNREGISTERED</text><text fill="#eeeeee" stroke="none" font-family="Arial" font-size="24px" font-style="normal" font-weight="normal" text-decoration="none" x="600" y="90">UNREGISTERED</text><text fill="#eeeeee" stroke="none" font-family="Arial" font-size="24px" font-style="normal" font-weight="normal" text-decoration="none" x="600" y="120">UNREGISTERED</text><text fill="#eeeeee" stroke="none" font-family="Arial" font-size="24px" font-style="normal" font-weight="normal" text-decoration="none" x="600" y="150">UNREGISTERED</text><text fill="#eeeeee" stroke="none" font-family="Arial" font-size="24px" font-style="normal" font-weight="normal" text-decoration="none" x="600" y="180">UNREGISTERED</text><text fill="#eeeeee" stroke="none" font-family="Arial" font-size="24px" font-style="normal" font-weight="normal" text-decoration="none" x="600" y="210">UNREGISTERED</text><text fill="#eeeeee" stroke="none" font-family="Arial" font-size="24px" font-style="normal" font-weight="normal" text-decoration="none" x="600" y="240">UNREGISTERED</text><text fill="#eeeeee" stroke="none" font-family="Arial" font-size="24px" font-style="normal" font-weight="normal" text-decoration="none" x="600" y="270">UNREGISTERED</text><text fill="#eeeeee" stroke="none" font-family="Arial" font-size="24px" font-style="normal" font-weight="normal" text-decoration="none" x="600" y="300">UNREGISTERED</text><text fill="#eeeeee" stroke="none" font-family="Arial" font-size="24px" font-style="normal" font-weight="normal" text-decoration="none" x="600" y="330">UNREGISTERED</text><text fill="#eeeeee" stroke="none" font-family="Arial" font-size="24px" font-style="normal" font-weight="normal" text-decoration="none" x="600" y="360">UNREGISTERED</text><text fill="#eeeeee" stroke="none" font-family="Arial" font-size="24px" font-style="normal" font-weight="normal" text-decoration="none" x="600" y="390">UNREGISTERED</text><text fill="#eeeeee" stroke="none" font-family="Arial" font-size="24px" font-style="normal" font-weight="normal" text-decoration="none" x="600" y="420">UNREGISTERED</text><text fill="#eeeeee" stroke="none" font-family="Arial" font-size="24px" font-style="normal" font-weight="normal" text-decoration="none" x="600" y="450">UNREGISTERED</text><text fill="#eeeeee" stroke="none" font-family="Arial" font-size="24px" font-style="normal" font-weight="normal" text-decoration="none" x="600" y="480">UNREGISTERED</text><text fill="#eeeeee" stroke="none" font-family="Arial" font-size="24px" font-style="normal" font-weight="normal" text-decoration="none" x="600" y="510">UNREGISTERED</text><text fill="#eeeeee" stroke="none" font-family="Arial" font-size="24px" font-style="normal" font-weight="normal" text-decoration="none" x="600" y="540">UNREGISTERED</text><text fill="#eeeeee" stroke="none" font-family="Arial" font-size="24px" font-style="normal" font-weight="normal" text-decoration="none" x="600" y="570">UNREGISTERED</text><text fill="#eeeeee" stroke="none" font-family="Arial" font-size="24px" font-style="normal" font-weight="normal" text-decoration="none" x="600" y="600">UNREGISTERED</text><text fill="#eeeeee" stroke="none" font-family="Arial" font-size="24px" font-style="normal" font-weight="normal" text-decoration="none" x="600" y="630">UNREGISTERED</text><text fill="#eeeeee" stroke="none" font-family="Arial" font-size="24px" font-style="normal" font-weight="normal" text-decoration="none" x="600" y="660">UNREGISTERED</text><text fill="#eeeeee" stroke="none" font-family="Arial" font-size="24px" font-style="normal" font-weight="normal" text-decoration="none" x="600" y="690">UNREGISTERED</text><text fill="#eeeeee" stroke="none" font-family="Arial" font-size="24px" font-style="normal" font-weight="normal" text-decoration="none" x="600" y="720">UNREGISTERED</text><text fill="#eeeeee" stroke="none" font-family="Arial" font-size="24px" font-style="normal" font-weight="normal" text-decoration="none" x="600" y="750">UNREGISTERED</text><text fill="#eeeeee" stroke="none" font-family="Arial" font-size="24px" font-style="normal" font-weight="normal" text-decoration="none" x="800" y="0">UNREGISTERED</text><text fill="#eeeeee" stroke="none" font-family="Arial" font-size="24px" font-style="normal" font-weight="normal" text-decoration="none" x="800" y="30">UNREGISTERED</text><text fill="#eeeeee" stroke="none" font-family="Arial" font-size="24px" font-style="normal" font-weight="normal" text-decoration="none" x="800" y="60">UNREGISTERED</text><text fill="#eeeeee" stroke="none" font-family="Arial" font-size="24px" font-style="normal" font-weight="normal" text-decoration="none" x="800" y="90">UNREGISTERED</text><text fill="#eeeeee" stroke="none" font-family="Arial" font-size="24px" font-style="normal" font-weight="normal" text-decoration="none" x="800" y="120">UNREGISTERED</text><text fill="#eeeeee" stroke="none" font-family="Arial" font-size="24px" font-style="normal" font-weight="normal" text-decoration="none" x="800" y="150">UNREGISTERED</text><text fill="#eeeeee" stroke="none" font-family="Arial" font-size="24px" font-style="normal" font-weight="normal" text-decoration="none" x="800" y="180">UNREGISTERED</text><text fill="#eeeeee" stroke="none" font-family="Arial" font-size="24px" font-style="normal" font-weight="normal" text-decoration="none" x="800" y="210">UNREGISTERED</text><text fill="#eeeeee" stroke="none" font-family="Arial" font-size="24px" font-style="normal" font-weight="normal" text-decoration="none" x="800" y="240">UNREGISTERED</text><text fill="#eeeeee" stroke="none" font-family="Arial" font-size="24px" font-style="normal" font-weight="normal" text-decoration="none" x="800" y="270">UNREGISTERED</text><text fill="#eeeeee" stroke="none" font-family="Arial" font-size="24px" font-style="normal" font-weight="normal" text-decoration="none" x="800" y="300">UNREGISTERED</text><text fill="#eeeeee" stroke="none" font-family="Arial" font-size="24px" font-style="normal" font-weight="normal" text-decoration="none" x="800" y="330">UNREGISTERED</text><text fill="#eeeeee" stroke="none" font-family="Arial" font-size="24px" font-style="normal" font-weight="normal" text-decoration="none" x="800" y="360">UNREGISTERED</text><text fill="#eeeeee" stroke="none" font-family="Arial" font-size="24px" font-style="normal" font-weight="normal" text-decoration="none" x="800" y="390">UNREGISTERED</text><text fill="#eeeeee" stroke="none" font-family="Arial" font-size="24px" font-style="normal" font-weight="normal" text-decoration="none" x="800" y="420">UNREGISTERED</text><text fill="#eeeeee" stroke="none" font-family="Arial" font-size="24px" font-style="normal" font-weight="normal" text-decoration="none" x="800" y="450">UNREGISTERED</text><text fill="#eeeeee" stroke="none" font-family="Arial" font-size="24px" font-style="normal" font-weight="normal" text-decoration="none" x="800" y="480">UNREGISTERED</text><text fill="#eeeeee" stroke="none" font-family="Arial" font-size="24px" font-style="normal" font-weight="normal" text-decoration="none" x="800" y="510">UNREGISTERED</text><text fill="#eeeeee" stroke="none" font-family="Arial" font-size="24px" font-style="normal" font-weight="normal" text-decoration="none" x="800" y="540">UNREGISTERED</text><text fill="#eeeeee" stroke="none" font-family="Arial" font-size="24px" font-style="normal" font-weight="normal" text-decoration="none" x="800" y="570">UNREGISTERED</text><text fill="#eeeeee" stroke="none" font-family="Arial" font-size="24px" font-style="normal" font-weight="normal" text-decoration="none" x="800" y="600">UNREGISTERED</text><text fill="#eeeeee" stroke="none" font-family="Arial" font-size="24px" font-style="normal" font-weight="normal" text-decoration="none" x="800" y="630">UNREGISTERED</text><text fill="#eeeeee" stroke="none" font-family="Arial" font-size="24px" font-style="normal" font-weight="normal" text-decoration="none" x="800" y="660">UNREGISTERED</text><text fill="#eeeeee" stroke="none" font-family="Arial" font-size="24px" font-style="normal" font-weight="normal" text-decoration="none" x="800" y="690">UNREGISTERED</text><text fill="#eeeeee" stroke="none" font-family="Arial" font-size="24px" font-style="normal" font-weight="normal" text-decoration="none" x="800" y="720">UNREGISTERED</text><text fill="#eeeeee" stroke="none" font-family="Arial" font-size="24px" font-style="normal" font-weight="normal" text-decoration="none" x="800" y="750">UNREGISTERED</text><text fill="#eeeeee" stroke="none" font-family="Arial" font-size="24px" font-style="normal" font-weight="normal" text-decoration="none" x="1000" y="0">UNREGISTERED</text><text fill="#eeeeee" stroke="none" font-family="Arial" font-size="24px" font-style="normal" font-weight="normal" text-decoration="none" x="1000" y="30">UNREGISTERED</text><text fill="#eeeeee" stroke="none" font-family="Arial" font-size="24px" font-style="normal" font-weight="normal" text-decoration="none" x="1000" y="60">UNREGISTERED</text><text fill="#eeeeee" stroke="none" font-family="Arial" font-size="24px" font-style="normal" font-weight="normal" text-decoration="none" x="1000" y="90">UNREGISTERED</text><text fill="#eeeeee" stroke="none" font-family="Arial" font-size="24px" font-style="normal" font-weight="normal" text-decoration="none" x="1000" y="120">UNREGISTERED</text><text fill="#eeeeee" stroke="none" font-family="Arial" font-size="24px" font-style="normal" font-weight="normal" text-decoration="none" x="1000" y="150">UNREGISTERED</text><text fill="#eeeeee" stroke="none" font-family="Arial" font-size="24px" font-style="normal" font-weight="normal" text-decoration="none" x="1000" y="180">UNREGISTERED</text><text fill="#eeeeee" stroke="none" font-family="Arial" font-size="24px" font-style="normal" font-weight="normal" text-decoration="none" x="1000" y="210">UNREGISTERED</text><text fill="#eeeeee" stroke="none" font-family="Arial" font-size="24px" font-style="normal" font-weight="normal" text-decoration="none" x="1000" y="240">UNREGISTERED</text><text fill="#eeeeee" stroke="none" font-family="Arial" font-size="24px" font-style="normal" font-weight="normal" text-decoration="none" x="1000" y="270">UNREGISTERED</text><text fill="#eeeeee" stroke="none" font-family="Arial" font-size="24px" font-style="normal" font-weight="normal" text-decoration="none" x="1000" y="300">UNREGISTERED</text><text fill="#eeeeee" stroke="none" font-family="Arial" font-size="24px" font-style="normal" font-weight="normal" text-decoration="none" x="1000" y="330">UNREGISTERED</text><text fill="#eeeeee" stroke="none" font-family="Arial" font-size="24px" font-style="normal" font-weight="normal" text-decoration="none" x="1000" y="360">UNREGISTERED</text><text fill="#eeeeee" stroke="none" font-family="Arial" font-size="24px" font-style="normal" font-weight="normal" text-decoration="none" x="1000" y="390">UNREGISTERED</text><text fill="#eeeeee" stroke="none" font-family="Arial" font-size="24px" font-style="normal" font-weight="normal" text-decoration="none" x="1000" y="420">UNREGISTERED</text><text fill="#eeeeee" stroke="none" font-family="Arial" font-size="24px" font-style="normal" font-weight="normal" text-decoration="none" x="1000" y="450">UNREGISTERED</text><text fill="#eeeeee" stroke="none" font-family="Arial" font-size="24px" font-style="normal" font-weight="normal" text-decoration="none" x="1000" y="480">UNREGISTERED</text><text fill="#eeeeee" stroke="none" font-family="Arial" font-size="24px" font-style="normal" font-weight="normal" text-decoration="none" x="1000" y="510">UNREGISTERED</text><text fill="#eeeeee" stroke="none" font-family="Arial" font-size="24px" font-style="normal" font-weight="normal" text-decoration="none" x="1000" y="540">UNREGISTERED</text><text fill="#eeeeee" stroke="none" font-family="Arial" font-size="24px" font-style="normal" font-weight="normal" text-decoration="none" x="1000" y="570">UNREGISTERED</text><text fill="#eeeeee" stroke="none" font-family="Arial" font-size="24px" font-style="normal" font-weight="normal" text-decoration="none" x="1000" y="600">UNREGISTERED</text><text fill="#eeeeee" stroke="none" font-family="Arial" font-size="24px" font-style="normal" font-weight="normal" text-decoration="none" x="1000" y="630">UNREGISTERED</text><text fill="#eeeeee" stroke="none" font-family="Arial" font-size="24px" font-style="normal" font-weight="normal" text-decoration="none" x="1000" y="660">UNREGISTERED</text><text fill="#eeeeee" stroke="none" font-family="Arial" font-size="24px" font-style="normal" font-weight="normal" text-decoration="none" x="1000" y="690">UNREGISTERED</text><text fill="#eeeeee" stroke="none" font-family="Arial" font-size="24px" font-style="normal" font-weight="normal" text-decoration="none" x="1000" y="720">UNREGISTERED</text><text fill="#eeeeee" stroke="none" font-family="Arial" font-size="24px" font-style="normal" font-weight="normal" text-decoration="none" x="1000" y="750">UNREGISTERED</text><g transform="translate(-118,-277) scale(1,1)"><path fill="#C0C0C0" stroke="none" d="M 135 384.5 C 135 379.2532944 139.2532944 375 144.5 375 C 149.7467056 375 154 379.2532944 154 384.5 C 154 389.7467056 149.7467056 394 144.5 394 C 139.2532944 394 135 389.7467056 135 384.5 Z" opacity="0.2"/></g><g transform="translate(-118,-277) scale(1,1)"><path fill="#000000" stroke="none" d="M 128 377.5 C 128 372.2532944 132.2532944 368 137.5 368 C 142.7467056 368 147 372.2532944 147 377.5 C 147 382.7467056 142.7467056 387 137.5 387 C 132.2532944 387 128 382.7467056 128 377.5 Z"/></g><g transform="translate(-118,-277) scale(1,1)"><path fill="#C0C0C0" stroke="none" d="M 759 1035.5 C 759 1028.59644 764.59644 1023 771.5 1023 C 778.40356 1023 784 1028.59644 784 1035.5 C 784 1042.40356 778.40356 1048 771.5 1048 C 764.59644 1048 759 1042.40356 759 1035.5 Z" opacity="0.2"/></g><g transform="translate(-118,-277) scale(1,1)"><path fill="none" stroke="#000000" d="M 752 1028.5 C 752 1021.59644 757.59644 1016 764.5 1016 C 771.40356 1016 777 1021.59644 777 1028.5 C 777 1035.40356 771.40356 1041 764.5 1041 C 757.59644 1041 752 1035.40356 752 1028.5 Z" stroke-miterlimit="10"/></g><g transform="translate(-118,-277) scale(1,1)"><path fill="#000000" stroke="none" d="M 757 1028.5 C 757 1024.357864 760.357864 1021 764.5 1021 C 768.642136 1021 772 1024.357864 772 1028.5 C 772 1032.642136 768.642136 1036 764.5 1036 C 760.357864 1036 757 1032.642136 757 1028.5 Z"/></g><g transform="translate(-118,-277) scale(1,1)"><path fill="#C0C0C0" stroke="none" d="M 433 359 L 578.0380859375 359 Q 588.0380859375 359 588.0380859375 369 L 588.0380859375 396 Q 588.0380859375 406 578.0380859375 406 L 433 406 Q 423 406 423 396 L 423 369 Q 423 359 433 359 Z" opacity="0.2"/></g><g transform="translate(-118,-277) scale(1,1)"><path fill="#ffffff" stroke="none" d="M 426 352 L 571.0380859375 352 Q 581.0380859375 352 581.0380859375 362 L 581.0380859375 389 Q 581.0380859375 399 571.0380859375 399 L 426 399 Q 416 399 416 389 L 416 362 Q 416 352 426 352 Z"/></g><g transform="translate(-118,-277) scale(1,1)"><path fill="none" stroke="#000000" d="M 426 352 L 571.0380859375 352 Q 581.0380859375 352 581.0380859375 362 L 581.0380859375 389 Q 581.0380859375 399 571.0380859375 399 L 426 399 Q 416 399 416 389 L 416 362 Q 416 352 426 352 Z" stroke-miterlimit="10"/></g><g transform="translate(-118,-277) scale(1,1)"><g><path fill="none" stroke="none"/><text fill="#000000" stroke="none" font-family="Arial" font-size="13px" font-style="normal" font-weight="bold" text-decoration="none" x="420.5" y="369.5">Decantador é preenchido</text></g></g><g transform="translate(-118,-277) scale(1,1)"><path fill="none" stroke="#000000" d="M 148 377 L 415 375" stroke-miterlimit="10"/></g><g transform="translate(-118,-277) scale(1,1)"><path fill="none" stroke="#000000" d="M 404.86914132600657 379.2855224334463 L 415 375 L 404.8060791587597 370.86672310599363" stroke-miterlimit="10"/></g><g transform="translate(-118,-277) scale(1,1)"><g><path fill="none" stroke="none"/><text fill="#000000" stroke="none" font-family="Arial" font-size="13px" font-style="normal" font-weight="normal" text-decoration="none" x="176.5" y="365.5">Recebe solução da saída do Reator</text></g></g><g transform="translate(-118,-277) scale(1,1)"><path fill="#C0C0C0" stroke="none" d="M 751 383.5 L 767.5 367 L 783 383.5 L 767.5 399 L 751 383.5" opacity="0.2"/></g><g transform="translate(-118,-277) scale(1,1)"><path fill="#ffffff" stroke="none" d="M 744 376 L 760 360 L 776 376 L 760 392 L 744 376"/></g><g transform="translate(-118,-277) scale(1,1)"><path fill="none" stroke="#000000" d="M 744 376 L 760 360 L 776 376 L 760 392 L 744 376 L 744 376" stroke-miterlimit="10"/></g><g transform="translate(-118,-277) scale(1,1)"><path fill="none" stroke="#000000" d="M 582 375 L 743 376" stroke-miterlimit="10"/></g><g transform="translate(-118,-277) scale(1,1)"><path fill="none" stroke="#000000" d="M 732.8113755997019 380.14631557284906 L 743 376 L 732.8636667370855 371.7274424540875" stroke-miterlimit="10"/></g><g transform="translate(-118,-277) scale(1,1)"><g><path fill="none" stroke="none"/><text fill="#000000" stroke="none" font-family="Arial" font-size="13px" font-style="normal" font-weight="normal" text-decoration="none" x="605.5" y="364.5">Verifica capacidade</text></g></g><g transform="translate(-118,-277) scale(1,1)"><path fill="#C0C0C0" stroke="none" d="M 633 487 L 906.59716796875 487 Q 916.59716796875 487 916.59716796875 497 L 916.59716796875 524 Q 916.59716796875 534 906.59716796875 534 L 633 534 Q 623 534 623 524 L 623 497 Q 623 487 633 487 Z" opacity="0.2"/></g><g transform="translate(-118,-277) scale(1,1)"><path fill="#ffffff" stroke="none" d="M 626 480 L 899.59716796875 480 Q 909.59716796875 480 909.59716796875 490 L 909.59716796875 517 Q 909.59716796875 527 899.59716796875 527 L 626 527 Q 616 527 616 517 L 616 490 Q 616 480 626 480 Z"/></g><g transform="translate(-118,-277) scale(1,1)"><path fill="none" stroke="#000000" d="M 626 480 L 899.59716796875 480 Q 909.59716796875 480 909.59716796875 490 L 909.59716796875 517 Q 909.59716796875 527 899.59716796875 527 L 626 527 Q 616 527 616 517 L 616 490 Q 616 480 626 480 Z" stroke-miterlimit="10"/></g><g transform="translate(-118,-277) scale(1,1)"><path fill="none" stroke="#000000" d="M 616 505 L 909.59716796875 505" stroke-miterlimit="10"/></g><g transform="translate(-118,-277) scale(1,1)"><g><path fill="none" stroke="none"/><text fill="#000000" stroke="none" font-family="Arial" font-size="13px" font-style="normal" font-weight="bold" text-decoration="none" x="620.5" y="497.5">Repousa a solução no tanque por 5 segundos</text></g></g><g transform="translate(-118,-277) scale(1,1)"><g><path fill="none" stroke="none"/><text fill="#000000" stroke="none" font-family="Arial" font-size="13px" font-style="normal" font-weight="normal" text-decoration="none" x="621" y="520.5">do/repousa()</text></g></g><g transform="translate(-118,-277) scale(1,1)"><path fill="none" stroke="#000000" d="M 760 393 L 762 479" stroke-miterlimit="10"/></g><g transform="translate(-118,-277) scale(1,1)"><path fill="none" stroke="#000000" d="M 757.5553427141674 468.9379414824055 L 762 479 L 765.9721025036246 468.7422028826507" stroke-miterlimit="10"/></g><g transform="translate(-118,-277) scale(1,1)"><g><path fill="none" stroke="none"/><text fill="#000000" stroke="none" font-family="Arial" font-size="13px" font-style="normal" font-weight="normal" text-decoration="none" x="767.114990234375" y="438.5">Quantidade lançada atingiu 100 Litros</text></g></g><g transform="translate(-118,-277) scale(1,1)"><path fill="none" stroke="#000000" d="M 760 359 L 760 304 L 496 304 L 497 351" stroke-miterlimit="10"/></g><g transform="translate(-118,-277) scale(1,1)"><path fill="none" stroke="#000000" d="M 492.5752565323953 340.9291685921226 L 497 351 L 500.9923870697424 340.7500807083493" stroke-miterlimit="10"/></g><g transform="translate(-118,-277) scale(1,1)"><g><path fill="none" stroke="none"/><text fill="#000000" stroke="none" font-family="Arial" font-size="13px" font-style="normal" font-weight="normal" text-decoration="none" x="558.5" y="297.5">Recebe mais solução</text></g></g><g transform="translate(-118,-277) scale(1,1)"><path fill="#C0C0C0" stroke="none" d="M 738 631 L 801 631 Q 804 631 804 634 L 804 633 Q 804 636 801 636 L 738 636 Q 735 636 735 633 L 735 634 Q 735 631 738 631 Z" opacity="0.2"/></g><g transform="translate(-118,-277) scale(1,1)"><path fill="#000000" stroke="none" d="M 731 624 L 794 624 Q 797 624 797 627 L 797 627 Q 797 630 794 630 L 731 630 Q 728 630 728 627 L 728 627 Q 728 624 731 624 Z"/></g><g transform="translate(-118,-277) scale(1,1)"><path fill="none" stroke="#000000" d="M 762 528 L 762 623" stroke-miterlimit="10"/></g><g transform="translate(-118,-277) scale(1,1)"><path fill="none" stroke="#000000" d="M 757.790482243984 612.8373251423759 L 762 623 L 766.209517756016 612.8373251423759" stroke-miterlimit="10"/></g><g transform="translate(-118,-277) scale(1,1)"><g><path fill="none" stroke="none"/><text fill="#000000" stroke="none" font-family="Arial" font-size="13px" font-style="normal" font-weight="normal" text-decoration="none" x="713.5" y="578.5">Separa os compostos</text></g></g><g transform="translate(-118,-277) scale(1,1)"><path fill="#C0C0C0" stroke="none" d="M 385 703 L 576.9853515625 703 Q 586.9853515625 703 586.9853515625 713 L 586.9853515625 740 Q 586.9853515625 750 576.9853515625 750 L 385 750 Q 375 750 375 740 L 375 713 Q 375 703 385 703 Z" opacity="0.2"/></g><g transform="translate(-118,-277) scale(1,1)"><path fill="#ffffff" stroke="none" d="M 378 696 L 569.9853515625 696 Q 579.9853515625 696 579.9853515625 706 L 579.9853515625 733 Q 579.9853515625 743 569.9853515625 743 L 378 743 Q 368 743 368 733 L 368 706 Q 368 696 378 696 Z"/></g><g transform="translate(-118,-277) scale(1,1)"><path fill="none" stroke="#000000" d="M 378 696 L 569.9853515625 696 Q 579.9853515625 696 579.9853515625 706 L 579.9853515625 733 Q 579.9853515625 743 569.9853515625 743 L 378 743 Q 368 743 368 733 L 368 706 Q 368 696 378 696 Z" stroke-miterlimit="10"/></g><g transform="translate(-118,-277) scale(1,1)"><path fill="none" stroke="#000000" d="M 368 721 L 579.9853515625 721" stroke-miterlimit="10"/></g><g transform="translate(-118,-277) scale(1,1)"><g><path fill="none" stroke="none"/><text fill="#000000" stroke="none" font-family="Arial" font-size="13px" font-style="normal" font-weight="bold" text-decoration="none" x="372.5" y="713.5">Composto de glicerina é retirado</text></g></g><g transform="translate(-118,-277) scale(1,1)"><g><path fill="none" stroke="none"/><text fill="#000000" stroke="none" font-family="Arial" font-size="13px" font-style="normal" font-weight="normal" text-decoration="none" x="373" y="736.5">do/litrosLancados()</text></g></g><g transform="translate(-118,-277) scale(1,1)"><path fill="#C0C0C0" stroke="none" d="M 673 767 L 861.42431640625 767 Q 871.42431640625 767 871.42431640625 777 L 871.42431640625 804 Q 871.42431640625 814 861.42431640625 814 L 673 814 Q 663 814 663 804 L 663 777 Q 663 767 673 767 Z" opacity="0.2"/></g><g transform="translate(-118,-277) scale(1,1)"><path fill="#ffffff" stroke="none" d="M 666 760 L 854.42431640625 760 Q 864.42431640625 760 864.42431640625 770 L 864.42431640625 797 Q 864.42431640625 807 854.42431640625 807 L 666 807 Q 656 807 656 797 L 656 770 Q 656 760 666 760 Z"/></g><g transform="translate(-118,-277) scale(1,1)"><path fill="none" stroke="#000000" d="M 666 760 L 854.42431640625 760 Q 864.42431640625 760 864.42431640625 770 L 864.42431640625 797 Q 864.42431640625 807 854.42431640625 807 L 666 807 Q 656 807 656 797 L 656 770 Q 656 760 666 760 Z" stroke-miterlimit="10"/></g><g transform="translate(-118,-277) scale(1,1)"><path fill="none" stroke="#000000" d="M 656 785 L 864.42431640625 785" stroke-miterlimit="10"/></g><g transform="translate(-118,-277) scale(1,1)"><g><path fill="none" stroke="none"/><text fill="#000000" stroke="none" font-family="Arial" font-size="13px" font-style="normal" font-weight="bold" text-decoration="none" x="660.5" y="777.5">Solução para lavagem é retirada</text></g></g><g transform="translate(-118,-277) scale(1,1)"><g><path fill="none" stroke="none"/><text fill="#000000" stroke="none" font-family="Arial" font-size="13px" font-style="normal" font-weight="normal" text-decoration="none" x="661" y="800.5">do/litrosLancados()</text></g></g><g transform="translate(-118,-277) scale(1,1)"><path fill="#C0C0C0" stroke="none" d="M 969 711 L 1140.01904296875 711 Q 1150.01904296875 711 1150.01904296875 721 L 1150.01904296875 748 Q 1150.01904296875 758 1140.01904296875 758 L 969 758 Q 959 758 959 748 L 959 721 Q 959 711 969 711 Z" opacity="0.2"/></g><g transform="translate(-118,-277) scale(1,1)"><path fill="#ffffff" stroke="none" d="M 962 704 L 1133.01904296875 704 Q 1143.01904296875 704 1143.01904296875 714 L 1143.01904296875 741 Q 1143.01904296875 751 1133.01904296875 751 L 962 751 Q 952 751 952 741 L 952 714 Q 952 704 962 704 Z"/></g><g transform="translate(-118,-277) scale(1,1)"><path fill="none" stroke="#000000" d="M 962 704 L 1133.01904296875 704 Q 1143.01904296875 704 1143.01904296875 714 L 1143.01904296875 741 Q 1143.01904296875 751 1133.01904296875 751 L 962 751 Q 952 751 952 741 L 952 714 Q 952 704 962 704 Z" stroke-miterlimit="10"/></g><g transform="translate(-118,-277) scale(1,1)"><path fill="none" stroke="#000000" d="M 952 729 L 1143.01904296875 729" stroke-miterlimit="10"/></g><g transform="translate(-118,-277) scale(1,1)"><g><path fill="none" stroke="none"/><text fill="#000000" stroke="none" font-family="Arial" font-size="13px" font-style="normal" font-weight="bold" text-decoration="none" x="956.5" y="721.5">Composto de EtOH é retirado</text></g></g><g transform="translate(-118,-277) scale(1,1)"><g><path fill="none" stroke="none"/><text fill="#000000" stroke="none" font-family="Arial" font-size="13px" font-style="normal" font-weight="normal" text-decoration="none" x="957" y="744.5">do/litrosLancados()</text></g></g><g transform="translate(-118,-277) scale(1,1)"><path fill="none" stroke="#000000" d="M 750 630 L 548 695" stroke-miterlimit="10"/></g><g transform="translate(-118,-277) scale(1,1)"><path fill="none" stroke="#000000" d="M 556.3847243451322 687.8798597165402 L 548 695 L 558.9635949202568 695.894195965389" stroke-miterlimit="10"/></g><g transform="translate(-118,-277) scale(1,1)"><g><path fill="none" stroke="none"/><text fill="#000000" stroke="none" font-family="Arial" font-size="13px" font-style="normal" font-weight="normal" text-decoration="none" x="398.5" y="665.5">2% de glicerina é depositada no tanque</text></g></g><g transform="translate(-118,-277) scale(1,1)"><path fill="none" stroke="#000000" d="M 762 630 L 760 759" stroke-miterlimit="10"/></g><g transform="translate(-118,-277) scale(1,1)"><path fill="none" stroke="#000000" d="M 755.9485299915002 748.7732903253184 L 760 759 L 764.3665538434093 748.9038023230224" stroke-miterlimit="10"/></g><g transform="translate(-118,-277) scale(1,1)"><g><path fill="none" stroke="none"/><text fill="#000000" stroke="none" font-family="Arial" font-size="13px" font-style="normal" font-weight="normal" text-decoration="none" x="657.5" y="698.5">90% de solução é enviada para lavagem</text></g></g><g transform="translate(-118,-277) scale(1,1)"><path fill="none" stroke="#000000" d="M 773 630 L 979 703" stroke-miterlimit="10"/></g><g transform="translate(-118,-277) scale(1,1)"><path fill="none" stroke="#000000" d="M 968.0149473287922 703.5732519610004 L 979 703 L 970.8270444155457 695.6377451134495" stroke-miterlimit="10"/></g><g transform="translate(-118,-277) scale(1,1)"><g><path fill="none" stroke="none"/><text fill="#000000" stroke="none" font-family="Arial" font-size="13px" font-style="normal" font-weight="normal" text-decoration="none" x="850.5" y="650.5">8% de EtOH direcionado ao secador</text></g></g><g transform="translate(-118,-277) scale(1,1)"><path fill="#C0C0C0" stroke="none" d="M 738 935 L 801 935 Q 804 935 804 938 L 804 937 Q 804 940 801 940 L 738 940 Q 735 940 735 937 L 735 938 Q 735 935 738 935 Z" opacity="0.2"/></g><g transform="translate(-118,-277) scale(1,1)"><path fill="#000000" stroke="none" d="M 731 928 L 794 928 Q 797 928 797 931 L 797 931 Q 797 934 794 934 L 731 934 Q 728 934 728 931 L 728 931 Q 728 928 731 928 Z"/></g><g transform="translate(-118,-277) scale(1,1)"><path fill="none" stroke="#000000" d="M 507 744 L 758 927" stroke-miterlimit="10"/></g><g transform="translate(-118,-277) scale(1,1)"><path fill="none" stroke="#000000" d="M 747.3082113924802 924.4143363768444 L 758 927 L 752.2681040544104 917.611423490809" stroke-miterlimit="10"/></g><g transform="translate(-118,-277) scale(1,1)"><g><path fill="none" stroke="none"/><text fill="#000000" stroke="none" font-family="Arial" font-size="13px" font-style="normal" font-weight="normal" text-decoration="none" x="425.5" y="857.5">Decantador é esvaziado da glicerina</text></g></g><g transform="translate(-118,-277) scale(1,1)"><path fill="none" stroke="#000000" d="M 760 808 L 762 927" stroke-miterlimit="10"/></g><g transform="translate(-118,-277) scale(1,1)"><path fill="none" stroke="#000000" d="M 757.6202995002805 916.9094983507877 L 762 927 L 766.0381462188143 916.7680219353501" stroke-miterlimit="10"/></g><g transform="translate(-118,-277) scale(1,1)"><g><path fill="none" stroke="none"/><text fill="#000000" stroke="none" font-family="Arial" font-size="13px" font-style="normal" font-weight="normal" text-decoration="none" x="668.5" y="837.5">Decantador é esvaziado da solução</text></g></g><g transform="translate(-118,-277) scale(1,1)"><path fill="none" stroke="#000000" d="M 1012 752 L 766 927" stroke-miterlimit="10"/></g><g transform="translate(-118,-277) scale(1,1)"><path fill="none" stroke="#000000" d="M 771.8409329447063 917.6788679692087 L 766 927 L 776.7211989609655 924.53912762635" stroke-miterlimit="10"/></g><g transform="translate(-118,-277) scale(1,1)"><g><path fill="none" stroke="none"/><text fill="#000000" stroke="none" font-family="Arial" font-size="13px" font-style="normal" font-weight="normal" text-decoration="none" x="915.5" y="855.5">Decantador é esvaziado do EtOH</text></g></g><g transform="translate(-118,-277) scale(1,1)"><path fill="none" stroke="#000000" d="M 762 934 L 764 1015" stroke-miterlimit="10"/></g><g transform="translate(-118,-277) scale(1,1)"><path fill="none" stroke="#000000" d="M 759.5409110646026 1004.9443286715299 L 764 1015 L 767.957381361611 1004.7365145901223" stroke-miterlimit="10"/></g><g transform="translate(-118,-277) scale(1,1)"><g><path fill="none" stroke="none"/><text fill="#000000" stroke="none" font-family="Arial" font-size="13px" font-style="normal" font-weight="normal" text-decoration="none" x="707.5" y="977.5">Decantação é finalizada</text></g></g></g></svg>