<svg version="1.1" xmlns="http://www.w3.org/2000/svg" xmlns:xlink="http://www.w3.org/1999/xlink" width="653" height="61"><defs/><g><text fill="#eeeeee" stroke="none" font-family="Arial" font-size="24px" font-style="normal" font-weight="normal" text-decoration="none" x="0" y="0">UNREGISTERED</text><text fill="#eeeeee" stroke="none" font-family="Arial" font-size="24px" font-style="normal" font-weight="normal" text-decoration="none" x="0" y="30">UNREGISTERED</text><text fill="#eeeeee" stroke="none" font-family="Arial" font-size="24px" font-style="normal" font-weight="normal" text-decoration="none" x="0" y="60">UNREGISTERED</text><text fill="#eeeeee" stroke="none" font-family="Arial" font-size="24px" font-style="normal" font-weight="normal" text-decoration="none" x="200" y="0">UNREGISTERED</text><text fill="#eeeeee" stroke="none" font-family="Arial" font-size="24px" font-style="normal" font-weight="normal" text-decoration="none" x="200" y="30">UNREGISTERED</text><text fill="#eeeeee" stroke="none" font-family="Arial" font-size="24px" font-style="normal" font-weight="normal" text-decoration="none" x="200" y="60">UNREGISTERED</text><text fill="#eeeeee" stroke="none" font-family="Arial" font-size="24px" font-style="normal" font-weight="normal" text-decoration="none" x="400" y="0">UNREGISTERED</text><text fill="#eeeeee" stroke="none" font-family="Arial" font-size="24px" font-style="normal" font-weight="normal" text-decoration="none" x="400" y="30">UNREGISTERED</text><text fill="#eeeeee" stroke="none" font-family="Arial" font-size="24px" font-style="normal" font-weight="normal" text-decoration="none" x="400" y="60">UNREGISTERED</text><text fill="#eeeeee" stroke="none" font-family="Arial" font-size="24px" font-style="normal" font-weight="normal" text-decoration="none" x="600" y="0">UNREGISTERED</text><text fill="#eeeeee" stroke="none" font-family="Arial" font-size="24px" font-style="normal" font-weight="normal" text-decoration="none" x="600" y="30">UNREGISTERED</text><text fill="#eeeeee" stroke="none" font-family="Arial" font-size="24px" font-style="normal" font-weight="normal" text-decoration="none" x="600" y="60">UNREGISTERED</text><g transform="translate(-358,-462) scale(1,1)"><path fill="#C0C0C0" stroke="none" d="M 375 488.5 C 375 483.2532944 379.2532944 479 384.5 479 C 389.7467056 479 394 483.2532944 394 488.5 C 394 493.7467056 389.7467056 498 384.5 498 C 379.2532944 498 375 493.7467056 375 488.5 Z" opacity="0.2"/></g><g transform="translate(-358,-462) scale(1,1)"><path fill="#000000" stroke="none" d="M 368 481.5 C 368 476.2532944 372.2532944 472 377.5 472 C 382.7467056 472 387 476.2532944 387 481.5 C 387 486.7467056 382.7467056 491 377.5 491 C 372.2532944 491 368 486.7467056 368 481.5 Z"/></g><g transform="translate(-358,-462) scale(1,1)"><path fill="#C0C0C0" stroke="none" d="M 983 507.5 C 983 500.59644 988.59644 495 995.5 495 C 1002.40356 495 1008 500.59644 1008 507.5 C 1008 514.40356 1002.40356 520 995.5 520 C 988.59644 520 983 514.40356 983 507.5 Z" opacity="0.2"/></g><g transform="translate(-358,-462) scale(1,1)"><path fill="none" stroke="#000000" d="M 976 500.5 C 976 493.59644 981.59644 488 988.5 488 C 995.40356 488 1001 493.59644 1001 500.5 C 1001 507.40356 995.40356 513 988.5 513 C 981.59644 513 976 507.40356 976 500.5 Z" stroke-miterlimit="10"/></g><g transform="translate(-358,-462) scale(1,1)"><path fill="#000000" stroke="none" d="M 981 500.5 C 981 496.357864 984.357864 493 988.5 493 C 992.642136 493 996 496.357864 996 500.5 C 996 504.642136 992.642136 508 988.5 508 C 984.357864 508 981 504.642136 981 500.5 Z"/></g><g transform="translate(-358,-462) scale(1,1)"><path fill="none" stroke="#000000" d="M 388 481 L 975 500" stroke-miterlimit="10"/></g><g transform="translate(-358,-462) scale(1,1)"><path fill="none" stroke="#000000" d="M 964.7064623706765 503.8785413590293 L 975 500 L 964.9788268438243 495.4639126359886" stroke-miterlimit="10"/></g></g></svg>