<svg version="1.1" xmlns="http://www.w3.org/2000/svg" xmlns:xlink="http://www.w3.org/1999/xlink" width="606" height="196"><defs/><g><text fill="#eeeeee" stroke="none" font-family="Arial" font-size="24px" font-style="normal" font-weight="normal" text-decoration="none" x="0" y="0">UNREGISTERED</text><text fill="#eeeeee" stroke="none" font-family="Arial" font-size="24px" font-style="normal" font-weight="normal" text-decoration="none" x="0" y="30">UNREGISTERED</text><text fill="#eeeeee" stroke="none" font-family="Arial" font-size="24px" font-style="normal" font-weight="normal" text-decoration="none" x="0" y="60">UNREGISTERED</text><text fill="#eeeeee" stroke="none" font-family="Arial" font-size="24px" font-style="normal" font-weight="normal" text-decoration="none" x="0" y="90">UNREGISTERED</text><text fill="#eeeeee" stroke="none" font-family="Arial" font-size="24px" font-style="normal" font-weight="normal" text-decoration="none" x="0" y="120">UNREGISTERED</text><text fill="#eeeeee" stroke="none" font-family="Arial" font-size="24px" font-style="normal" font-weight="normal" text-decoration="none" x="0" y="150">UNREGISTERED</text><text fill="#eeeeee" stroke="none" font-family="Arial" font-size="24px" font-style="normal" font-weight="normal" text-decoration="none" x="0" y="180">UNREGISTERED</text><text fill="#eeeeee" stroke="none" font-family="Arial" font-size="24px" font-style="normal" font-weight="normal" text-decoration="none" x="200" y="0">UNREGISTERED</text><text fill="#eeeeee" stroke="none" font-family="Arial" font-size="24px" font-style="normal" font-weight="normal" text-decoration="none" x="200" y="30">UNREGISTERED</text><text fill="#eeeeee" stroke="none" font-family="Arial" font-size="24px" font-style="normal" font-weight="normal" text-decoration="none" x="200" y="60">UNREGISTERED</text><text fill="#eeeeee" stroke="none" font-family="Arial" font-size="24px" font-style="normal" font-weight="normal" text-decoration="none" x="200" y="90">UNREGISTERED</text><text fill="#eeeeee" stroke="none" font-family="Arial" font-size="24px" font-style="normal" font-weight="normal" text-decoration="none" x="200" y="120">UNREGISTERED</text><text fill="#eeeeee" stroke="none" font-family="Arial" font-size="24px" font-style="normal" font-weight="normal" text-decoration="none" x="200" y="150">UNREGISTERED</text><text fill="#eeeeee" stroke="none" font-family="Arial" font-size="24px" font-style="normal" font-weight="normal" text-decoration="none" x="200" y="180">UNREGISTERED</text><text fill="#eeeeee" stroke="none" font-family="Arial" font-size="24px" font-style="normal" font-weight="normal" text-decoration="none" x="400" y="0">UNREGISTERED</text><text fill="#eeeeee" stroke="none" font-family="Arial" font-size="24px" font-style="normal" font-weight="normal" text-decoration="none" x="400" y="30">UNREGISTERED</text><text fill="#eeeeee" stroke="none" font-family="Arial" font-size="24px" font-style="normal" font-weight="normal" text-decoration="none" x="400" y="60">UNREGISTERED</text><text fill="#eeeeee" stroke="none" font-family="Arial" font-size="24px" font-style="normal" font-weight="normal" text-decoration="none" x="400" y="90">UNREGISTERED</text><text fill="#eeeeee" stroke="none" font-family="Arial" font-size="24px" font-style="normal" font-weight="normal" text-decoration="none" x="400" y="120">UNREGISTERED</text><text fill="#eeeeee" stroke="none" font-family="Arial" font-size="24px" font-style="normal" font-weight="normal" text-decoration="none" x="400" y="150">UNREGISTERED</text><text fill="#eeeeee" stroke="none" font-family="Arial" font-size="24px" font-style="normal" font-weight="normal" text-decoration="none" x="400" y="180">UNREGISTERED</text><text fill="#eeeeee" stroke="none" font-family="Arial" font-size="24px" font-style="normal" font-weight="normal" text-decoration="none" x="600" y="0">UNREGISTERED</text><text fill="#eeeeee" stroke="none" font-family="Arial" font-size="24px" font-style="normal" font-weight="normal" text-decoration="none" x="600" y="30">UNREGISTERED</text><text fill="#eeeeee" stroke="none" font-family="Arial" font-size="24px" font-style="normal" font-weight="normal" text-decoration="none" x="600" y="60">UNREGISTERED</text><text fill="#eeeeee" stroke="none" font-family="Arial" font-size="24px" font-style="normal" font-weight="normal" text-decoration="none" x="600" y="90">UNREGISTERED</text><text fill="#eeeeee" stroke="none" font-family="Arial" font-size="24px" font-style="normal" font-weight="normal" text-decoration="none" x="600" y="120">UNREGISTERED</text><text fill="#eeeeee" stroke="none" font-family="Arial" font-size="24px" font-style="normal" font-weight="normal" text-decoration="none" x="600" y="150">UNREGISTERED</text><text fill="#eeeeee" stroke="none" font-family="Arial" font-size="24px" font-style="normal" font-weight="normal" text-decoration="none" x="600" y="180">UNREGISTERED</text><g transform="translate(-254,-777) scale(1,1)"><path fill="#C0C0C0" stroke="none" d="M 271 960.5 C 271 955.2532944 275.2532944 951 280.5 951 C 285.7467056 951 290 955.2532944 290 960.5 C 290 965.7467056 285.7467056 970 280.5 970 C 275.2532944 970 271 965.7467056 271 960.5 Z" opacity="0.2"/></g><g transform="translate(-254,-777) scale(1,1)"><path fill="#000000" stroke="none" d="M 264 953.5 C 264 948.2532944 268.2532944 944 273.5 944 C 278.7467056 944 283 948.2532944 283 953.5 C 283 958.7467056 278.7467056 963 273.5 963 C 268.2532944 963 264 958.7467056 264 953.5 Z"/></g><g transform="translate(-254,-777) scale(1,1)"><path fill="#C0C0C0" stroke="none" d="M 832 806.5 C 832 799.59644 837.59644 794 844.5 794 C 851.40356 794 857 799.59644 857 806.5 C 857 813.40356 851.40356 819 844.5 819 C 837.59644 819 832 813.40356 832 806.5 Z" opacity="0.2"/></g><g transform="translate(-254,-777) scale(1,1)"><path fill="none" stroke="#000000" d="M 825 799.5 C 825 792.59644 830.59644 787 837.5 787 C 844.40356 787 850 792.59644 850 799.5 C 850 806.40356 844.40356 812 837.5 812 C 830.59644 812 825 806.40356 825 799.5 Z" stroke-miterlimit="10"/></g><g transform="translate(-254,-777) scale(1,1)"><path fill="#000000" stroke="none" d="M 830 799.5 C 830 795.357864 833.357864 792 837.5 792 C 841.642136 792 845 795.357864 845 799.5 C 845 803.642136 841.642136 807 837.5 807 C 833.357864 807 830 803.642136 830 799.5 Z"/></g><g transform="translate(-254,-777) scale(1,1)"><path fill="none" stroke="#000000" d="M 284 950 L 824 803" stroke-miterlimit="10"/></g><g transform="translate(-254,-777) scale(1,1)"><path fill="none" stroke="#000000" d="M 815.2998508133422 809.7310774865468 L 824 803 L 813.0884749773503 801.607656048209" stroke-miterlimit="10"/></g></g></svg>