<svg version="1.1" xmlns="http://www.w3.org/2000/svg" xmlns:xlink="http://www.w3.org/1999/xlink" width="829" height="91"><defs/><g><text fill="#eeeeee" stroke="none" font-family="Arial" font-size="24px" font-style="normal" font-weight="normal" text-decoration="none" x="0" y="0">UNREGISTERED</text><text fill="#eeeeee" stroke="none" font-family="Arial" font-size="24px" font-style="normal" font-weight="normal" text-decoration="none" x="0" y="30">UNREGISTERED</text><text fill="#eeeeee" stroke="none" font-family="Arial" font-size="24px" font-style="normal" font-weight="normal" text-decoration="none" x="0" y="60">UNREGISTERED</text><text fill="#eeeeee" stroke="none" font-family="Arial" font-size="24px" font-style="normal" font-weight="normal" text-decoration="none" x="0" y="90">UNREGISTERED</text><text fill="#eeeeee" stroke="none" font-family="Arial" font-size="24px" font-style="normal" font-weight="normal" text-decoration="none" x="200" y="0">UNREGISTERED</text><text fill="#eeeeee" stroke="none" font-family="Arial" font-size="24px" font-style="normal" font-weight="normal" text-decoration="none" x="200" y="30">UNREGISTERED</text><text fill="#eeeeee" stroke="none" font-family="Arial" font-size="24px" font-style="normal" font-weight="normal" text-decoration="none" x="200" y="60">UNREGISTERED</text><text fill="#eeeeee" stroke="none" font-family="Arial" font-size="24px" font-style="normal" font-weight="normal" text-decoration="none" x="200" y="90">UNREGISTERED</text><text fill="#eeeeee" stroke="none" font-family="Arial" font-size="24px" font-style="normal" font-weight="normal" text-decoration="none" x="400" y="0">UNREGISTERED</text><text fill="#eeeeee" stroke="none" font-family="Arial" font-size="24px" font-style="normal" font-weight="normal" text-decoration="none" x="400" y="30">UNREGISTERED</text><text fill="#eeeeee" stroke="none" font-family="Arial" font-size="24px" font-style="normal" font-weight="normal" text-decoration="none" x="400" y="60">UNREGISTERED</text><text fill="#eeeeee" stroke="none" font-family="Arial" font-size="24px" font-style="normal" font-weight="normal" text-decoration="none" x="400" y="90">UNREGISTERED</text><text fill="#eeeeee" stroke="none" font-family="Arial" font-size="24px" font-style="normal" font-weight="normal" text-decoration="none" x="600" y="0">UNREGISTERED</text><text fill="#eeeeee" stroke="none" font-family="Arial" font-size="24px" font-style="normal" font-weight="normal" text-decoration="none" x="600" y="30">UNREGISTERED</text><text fill="#eeeeee" stroke="none" font-family="Arial" font-size="24px" font-style="normal" font-weight="normal" text-decoration="none" x="600" y="60">UNREGISTERED</text><text fill="#eeeeee" stroke="none" font-family="Arial" font-size="24px" font-style="normal" font-weight="normal" text-decoration="none" x="600" y="90">UNREGISTERED</text><text fill="#eeeeee" stroke="none" font-family="Arial" font-size="24px" font-style="normal" font-weight="normal" text-decoration="none" x="800" y="0">UNREGISTERED</text><text fill="#eeeeee" stroke="none" font-family="Arial" font-size="24px" font-style="normal" font-weight="normal" text-decoration="none" x="800" y="30">UNREGISTERED</text><text fill="#eeeeee" stroke="none" font-family="Arial" font-size="24px" font-style="normal" font-weight="normal" text-decoration="none" x="800" y="60">UNREGISTERED</text><text fill="#eeeeee" stroke="none" font-family="Arial" font-size="24px" font-style="normal" font-weight="normal" text-decoration="none" x="800" y="90">UNREGISTERED</text><g transform="translate(-182,-254) scale(1,1)"><path fill="#C0C0C0" stroke="none" d="M 199 304.5 C 199 299.2532944 203.2532944 295 208.5 295 C 213.7467056 295 218 299.2532944 218 304.5 C 218 309.7467056 213.7467056 314 208.5 314 C 203.2532944 314 199 309.7467056 199 304.5 Z" opacity="0.2"/></g><g transform="translate(-182,-254) scale(1,1)"><path fill="#000000" stroke="none" d="M 192 297.5 C 192 292.2532944 196.2532944 288 201.5 288 C 206.7467056 288 211 292.2532944 211 297.5 C 211 302.7467056 206.7467056 307 201.5 307 C 196.2532944 307 192 302.7467056 192 297.5 Z"/></g><g transform="translate(-182,-254) scale(1,1)"><path fill="#C0C0C0" stroke="none" d="M 983 307.5 C 983 300.59644 988.59644 295 995.5 295 C 1002.40356 295 1008 300.59644 1008 307.5 C 1008 314.40356 1002.40356 320 995.5 320 C 988.59644 320 983 314.40356 983 307.5 Z" opacity="0.2"/></g><g transform="translate(-182,-254) scale(1,1)"><path fill="none" stroke="#000000" d="M 976 300.5 C 976 293.59644 981.59644 288 988.5 288 C 995.40356 288 1001 293.59644 1001 300.5 C 1001 307.40356 995.40356 313 988.5 313 C 981.59644 313 976 307.40356 976 300.5 Z" stroke-miterlimit="10"/></g><g transform="translate(-182,-254) scale(1,1)"><path fill="#000000" stroke="none" d="M 981 300.5 C 981 296.357864 984.357864 293 988.5 293 C 992.642136 293 996 296.357864 996 300.5 C 996 304.642136 992.642136 308 988.5 308 C 984.357864 308 981 304.642136 981 300.5 Z"/></g><g transform="translate(-182,-254) scale(1,1)"><path fill="#C0C0C0" stroke="none" d="M 513 271 L 684 271 Q 694 271 694 281 L 694 332 Q 694 342 684 342 L 513 342 Q 503 342 503 332 L 503 281 Q 503 271 513 271 Z" opacity="0.2"/></g><g transform="translate(-182,-254) scale(1,1)"><path fill="#ffffff" stroke="none" d="M 506 264 L 677 264 Q 687 264 687 274 L 687 325 Q 687 335 677 335 L 506 335 Q 496 335 496 325 L 496 274 Q 496 264 506 264 Z"/></g><g transform="translate(-182,-254) scale(1,1)"><path fill="none" stroke="#000000" d="M 506 264 L 677 264 Q 687 264 687 274 L 687 325 Q 687 335 677 335 L 506 335 Q 496 335 496 325 L 496 274 Q 496 264 506 264 Z" stroke-miterlimit="10"/></g><g transform="translate(-182,-254) scale(1,1)"><path fill="none" stroke="#000000" d="M 496 289 L 687 289" stroke-miterlimit="10"/></g><g transform="translate(-182,-254) scale(1,1)"><g><path fill="none" stroke="none"/><text fill="#000000" stroke="none" font-family="Arial" font-size="13px" font-style="normal" font-weight="bold" text-decoration="none" x="517.445068359375" y="281.5">Biodiesel é armazenado</text></g></g><g transform="translate(-182,-254) scale(1,1)"><g><path fill="none" stroke="none"/><text fill="#000000" stroke="none" font-family="Arial" font-size="13px" font-style="normal" font-weight="normal" text-decoration="none" x="501" y="304.5">entry/armazenaBiodiesel()</text></g></g><g transform="translate(-182,-254) scale(1,1)"><path fill="none" stroke="#000000" d="M 212 297 L 495 299" stroke-miterlimit="10"/></g><g transform="translate(-182,-254) scale(1,1)"><path fill="none" stroke="#000000" d="M 484.8078304181908 303.13759340869103 L 495 299 L 484.86732741662127 294.7187681307776" stroke-miterlimit="10"/></g><g transform="translate(-182,-254) scale(1,1)"><g><path fill="none" stroke="none"/><text fill="#000000" stroke="none" font-family="Arial" font-size="13px" font-style="normal" font-weight="normal" text-decoration="none" x="268.5" y="287.5">Recebe biodiesel do Secador</text></g></g><g transform="translate(-182,-254) scale(1,1)"><path fill="none" stroke="#000000" d="M 688 299 L 975 300" stroke-miterlimit="10"/></g><g transform="translate(-182,-254) scale(1,1)"><path fill="none" stroke="#000000" d="M 964.822719611518 304.17408240146506 L 975 300 L 964.8520540519602 295.75509799457495" stroke-miterlimit="10"/></g><g transform="translate(-182,-254) scale(1,1)"><g><path fill="none" stroke="none"/><text fill="#000000" stroke="none" font-family="Arial" font-size="13px" font-style="normal" font-weight="normal" text-decoration="none" x="770.5" y="288.5">Tanque é preenchido</text></g></g></g></svg>