<svg version="1.1" xmlns="http://www.w3.org/2000/svg" xmlns:xlink="http://www.w3.org/1999/xlink" width="343" height="99"><defs/><g><text fill="#eeeeee" stroke="none" font-family="Arial" font-size="24px" font-style="normal" font-weight="normal" text-decoration="none" x="0" y="0">UNREGISTERED</text><text fill="#eeeeee" stroke="none" font-family="Arial" font-size="24px" font-style="normal" font-weight="normal" text-decoration="none" x="0" y="30">UNREGISTERED</text><text fill="#eeeeee" stroke="none" font-family="Arial" font-size="24px" font-style="normal" font-weight="normal" text-decoration="none" x="0" y="60">UNREGISTERED</text><text fill="#eeeeee" stroke="none" font-family="Arial" font-size="24px" font-style="normal" font-weight="normal" text-decoration="none" x="0" y="90">UNREGISTERED</text><text fill="#eeeeee" stroke="none" font-family="Arial" font-size="24px" font-style="normal" font-weight="normal" text-decoration="none" x="200" y="0">UNREGISTERED</text><text fill="#eeeeee" stroke="none" font-family="Arial" font-size="24px" font-style="normal" font-weight="normal" text-decoration="none" x="200" y="30">UNREGISTERED</text><text fill="#eeeeee" stroke="none" font-family="Arial" font-size="24px" font-style="normal" font-weight="normal" text-decoration="none" x="200" y="60">UNREGISTERED</text><text fill="#eeeeee" stroke="none" font-family="Arial" font-size="24px" font-style="normal" font-weight="normal" text-decoration="none" x="200" y="90">UNREGISTERED</text><g transform="translate(-86,-254) scale(1,1)"><path fill="#C0C0C0" stroke="none" d="M 271 304 C 271 294.6111584 305.697928 287 348.5 287 C 391.302072 287 426 294.6111584 426 304 C 426 313.3888416 391.302072 321 348.5 321 C 305.697928 321 271 313.3888416 271 304 Z" opacity="0.2"/></g><g transform="translate(-86,-254) scale(1,1)"><path fill="#ffffff" stroke="none" d="M 264 297 C 264 287.6111584 298.697928 280 341.5 280 C 384.302072 280 419 287.6111584 419 297 C 419 306.3888416 384.302072 314 341.5 314 C 298.697928 314 264 306.3888416 264 297 Z"/></g><g transform="translate(-86,-254) scale(1,1)"><path fill="none" stroke="#000000" d="M 264 297 C 264 287.6111584 298.697928 280 341.5 280 C 384.302072 280 419 287.6111584 419 297 C 419 306.3888416 384.302072 314 341.5 314 C 298.697928 314 264 306.3888416 264 297 Z" stroke-miterlimit="10"/></g><g transform="translate(-86,-254) scale(1,1)"><g><path fill="none" stroke="none"/><text fill="#000000" stroke="none" font-family="Arial" font-size="13px" font-style="normal" font-weight="bold" text-decoration="none" x="291.280517578125" y="302">Iniciar Processo</text></g></g><g transform="translate(-86,-254) scale(1,1)"><path fill="#ffffff" stroke="none" d="M 129.01481906960228 273.68 C 129.01481906960228 268.886167936 132.90066139454774 265 137.694091796875 265 C 142.48752219920226 265 146.37336452414772 268.886167936 146.37336452414772 273.68 C 146.37336452414772 278.473832064 142.48752219920226 282.36 137.694091796875 282.36 C 132.90066139454774 282.36 129.01481906960228 278.473832064 129.01481906960228 273.68 Z"/></g><g transform="translate(-86,-254) scale(1,1)"><path fill="none" stroke="#000000" d="M 129.01481906960228 273.68 C 129.01481906960228 268.886167936 132.90066139454774 265 137.694091796875 265 C 142.48752219920226 265 146.37336452414772 268.886167936 146.37336452414772 273.68 C 146.37336452414772 278.473832064 142.48752219920226 282.36 137.694091796875 282.36 C 132.90066139454774 282.36 129.01481906960228 278.473832064 129.01481906960228 273.68 Z" stroke-miterlimit="10"/></g><g transform="translate(-86,-254) scale(1,1)"><path fill="none" stroke="#000000" d="M 137.694091796875 282.36 L 137.694091796875 299.64" stroke-miterlimit="10"/></g><g transform="translate(-86,-254) scale(1,1)"><path fill="none" stroke="#000000" d="M 128.50427361505683 288.84 L 146.88390997869317 288.84" stroke-miterlimit="10"/></g><g transform="translate(-86,-254) scale(1,1)"><path fill="none" stroke="#000000" d="M 137.694091796875 299.64 L 124.93045543323865 317" stroke-miterlimit="10"/></g><g transform="translate(-86,-254) scale(1,1)"><path fill="none" stroke="#000000" d="M 137.694091796875 299.64 L 150.45772816051135 317" stroke-miterlimit="10"/></g><g transform="translate(-86,-254) scale(1,1)"><g><path fill="none" stroke="none"/><text fill="#000000" stroke="none" font-family="Arial" font-size="13px" font-style="normal" font-weight="bold" text-decoration="none" x="100.5" y="335.5">Funcionário</text></g></g><g transform="translate(-86,-254) scale(1,1)"><path fill="none" stroke="#000000" d="M 180 302 L 263 299" stroke-miterlimit="10"/></g><g transform="translate(-86,-254) scale(1,1)"><path fill="none" stroke="#000000" d="M 252.99600901334045 303.57385661546516 L 263 299 L 252.69190510543356 295.1603151633743" stroke-miterlimit="10"/></g></g></svg>